<svg width="153" height="4" viewBox="0 0 153 4" fill="none" xmlns="http://www.w3.org/2000/svg">
<g clip-path="url(#clip0_77_405)">
<path d="M1277.24 1.60195C1277.09 1.97033 1277.03 2.34548 1277.05 2.72062C1276.47 2.35337 1276.01 1.97861 1275.65 1.59857C1275.65 1.76756 1275.6 1.92302 1275.6 2.08693L1275.01 1.67799V1.59857V1.63237L1274.82 1.50394V1.78445L1274.2 2.27112L1273.04 1.50394V2.32858L1271.73 1.03417L1271.49 2.08017L1271.27 1.60195L1270.64 2.27788L1269.82 1.31806L1269.73 1.55633L1269.15 1.03248L1269.04 2.36913L1268.02 1.60364L1267.81 2.58374C1267.23 2.1667 1266.85 1.73814 1266.67 1.30454C1266.67 1.18288 1266.67 1.05952 1266.75 0.937852C1266.7 0.971649 1266.65 1.00882 1266.6 1.04431C1266.6 0.978408 1266.6 0.914195 1266.6 0.849981C1266.49 0.981788 1266.42 1.11528 1266.35 1.25047C1265.65 1.83981 1265.61 2.45676 1266.23 3.05013C1266.18 3.03323 1266.14 3.01634 1266.11 2.99944C1265.37 2.38772 1264.71 1.76812 1264.13 1.14063C1264.13 1.06966 1264.13 1.00038 1264.19 0.931093C1264.13 0.966579 1264.08 1.00376 1264.03 1.03924C1263.77 0.753661 1263.52 0.468081 1263.3 0.180811C1263.3 0.616786 1263.39 1.05276 1263.49 1.48873C1263.49 1.52422 1263.44 1.5614 1263.42 1.59857C1263.23 1.37721 1263.07 1.15753 1262.93 0.934473C1262.55 1.62518 1262.42 2.3212 1262.54 3.01634H1262.37C1261.3 2.44201 1261.03 1.81221 1261.59 1.20484C1261 1.47307 1260.58 1.75724 1260.34 2.04976C1260.06 1.73883 1259.79 1.4279 1259.56 1.11528C1259.45 1.71686 1259.46 2.32351 1259.56 2.92846C1258.21 2.30884 1257.78 1.61301 1258.33 0.937852C1257.72 1.24936 1257.32 1.57833 1257.15 1.91457L1256.91 1.80811L1256.85 1.77769V1.78614L1256.76 1.74221L1256.4 1.30454L1255.96 2.43673C1255.64 2.03082 1255.5 1.61975 1255.51 1.20822C1254.88 1.70487 1254.5 2.21469 1254.36 2.72907L1252.53 1.01727L1252.61 3.0552L1251.19 1.29947L1250.7 2.54656C1250.53 2.44349 1250.37 2.33703 1250.21 2.23226L1249.43 1.29947L1249.35 1.52422C1249.13 1.29441 1248.96 1.0629 1248.84 0.828014C1248.63 1.35493 1248.69 1.88518 1249 2.40969L1248.81 2.88115L1247.5 0.920954L1247.38 1.59012L1246.85 0.941232L1246.47 1.91795L1245.98 1.31806L1245.41 2.78145L1244.05 0.753661L1243.85 1.65603L1243.65 0.753661L1242.29 2.78145L1241.71 1.31806L1241.23 1.91795L1240.85 0.941232L1240.32 1.59012L1240.18 0.939542L1238.99 2.71555H1238.79L1238.68 2.43504C1238.99 1.90824 1239.04 1.3757 1238.83 0.846602C1238.71 1.08149 1238.54 1.31299 1238.32 1.54281L1238.23 1.31806L1237.46 2.25085C1237.3 2.35674 1237.14 2.46151 1236.97 2.56515L1236.49 1.31806L1235.37 2.70541L1235.09 2.72062L1235.16 1.03079L1233.33 2.74258C1233.19 2.2282 1232.81 1.71839 1232.18 1.22174C1232.19 1.63327 1232.05 2.04434 1231.73 2.45024L1231.29 1.31806L1230.93 1.75573L1230.84 1.79966V1.79121L1230.78 1.82163L1230.54 1.92809C1230.37 1.59184 1229.97 1.26287 1229.36 0.951371C1229.91 1.62653 1229.48 2.32236 1228.13 2.94198C1228.26 2.33703 1228.27 1.73038 1228.13 1.1288C1227.91 1.44142 1227.65 1.75235 1227.35 2.06327C1227.11 1.77076 1226.69 1.48659 1226.1 1.21836C1226.64 1.8154 1226.37 2.43322 1225.32 2.99775L1225.11 2.98254C1225.21 2.30143 1225.07 1.61964 1224.7 0.942922C1224.57 1.16598 1224.41 1.38566 1224.22 1.60702C1224.22 1.56985 1224.22 1.53267 1224.15 1.49718C1224.24 1.06121 1224.31 0.625235 1224.34 0.18926C1224.11 0.47653 1223.86 0.762111 1223.61 1.04769C1223.55 1.0122 1223.5 0.975028 1223.44 0.939542C1223.44 1.00882 1223.49 1.07811 1223.5 1.14908C1223.01 1.68475 1222.45 2.21874 1221.84 2.74765L1221.67 2.73582C1222 2.24057 1221.86 1.73618 1221.28 1.25216C1221.22 1.11697 1221.14 0.983477 1221.04 0.851671C1221.04 0.915885 1221.04 0.980098 1220.99 1.046C1220.95 1.00997 1220.9 0.974442 1220.84 0.939542C1220.9 1.06134 1220.93 1.18375 1220.92 1.30623C1220.74 1.73983 1220.36 2.16839 1219.79 2.58543L1219.58 1.60533L1218.61 2.36744L1218.49 1.03079L1217.93 1.55633L1217.84 1.31806L1217.05 2.27957L1216.43 1.60364L1216.21 2.08186L1216.01 1.03586L1214.72 2.32858V1.50394L1213.6 2.27112L1212.98 1.78445V1.50394L1212.8 1.63237V1.59857V1.67799L1212.21 2.08693C1212.21 1.91795 1212.2 1.7608 1212.16 1.59857C1211.8 1.97861 1211.33 2.35337 1210.76 2.72062C1210.76 2.34548 1210.71 1.97033 1210.56 1.60195C1210.39 1.81825 1210.16 2.03286 1209.92 2.24578L1210.02 1.69151L1208.04 2.94367C1208.06 2.39965 1207.88 1.85617 1207.52 1.31806C1207.41 1.56647 1207.26 1.81318 1207.08 2.05652C1206.99 1.74559 1206.85 1.43466 1206.64 1.1288C1206.45 1.63555 1206.1 2.13873 1205.58 2.63444C1205.5 2.53474 1205.42 2.43673 1205.35 2.33703L1205.74 1.1288L1205.04 1.67124C1204.94 1.36707 1204.89 1.06121 1204.91 0.751972C1204.36 1.18125 1203.94 1.61749 1203.64 2.05821L1203.67 0.471461L1202.46 1.9923C1202.41 1.80594 1202.31 1.62034 1202.17 1.43635L1201.74 0.846602L1201.64 1.03079C1201.43 0.841286 1201.17 0.654538 1200.87 0.471461C1201.24 1.06033 1201.13 1.65907 1200.52 2.23902V1.50901L1200 1.89767C1199.86 1.79797 1199.72 1.69827 1199.56 1.60195C1199.61 1.79836 1199.61 1.9953 1199.56 2.1917L1198.55 2.93691L1198.07 2.39448C1198.07 2.16016 1197.98 1.92628 1197.81 1.69489C1197.64 2.00812 1197.32 2.31672 1196.86 2.61585C1196.7 2.20422 1196.29 1.79931 1195.62 1.41269C1195.78 1.95505 1195.47 2.49925 1194.7 3.01634V1.50394L1194.26 1.8098C1194.26 1.77094 1194.26 1.73207 1194.26 1.6932C1193.98 1.9274 1193.63 2.15719 1193.21 2.38096C1193.13 2.2745 1193.07 2.16804 1193.04 2.06158C1193.06 1.58599 1193.32 1.11236 1193.81 0.648892C1193.4 0.873639 1192.99 1.09839 1192.62 1.32482C1192.22 1.55797 1191.92 1.79909 1191.74 2.04469V1.50225L1190.79 2.44349C1190.79 2.43335 1190.79 2.42321 1190.75 2.41307L1189.97 1.86557C1189.62 1.49841 1189.5 1.12272 1189.61 0.748592C1189.38 0.934473 1189.15 1.11866 1188.98 1.30961C1188.92 1.362 1188.87 1.41776 1188.84 1.4786C1188.84 1.42621 1188.77 1.37383 1188.75 1.32144C1188.56 1.52422 1188.42 1.73038 1188.29 1.93654L1187.08 2.78145C1186.94 2.32806 1186.92 1.8733 1187.02 1.41945C1186.73 1.62054 1186.46 1.82501 1186.25 2.02948C1186.11 1.7608 1185.95 1.4938 1185.73 1.23019C1185.57 1.72914 1185.26 2.22528 1184.8 2.71555L1184.02 1.32482L1182.83 3.21235L1183.1 0.939542L1181.43 2.67837C1181.48 2.56515 1181.53 2.45362 1181.57 2.34041C1181.72 1.83346 1181.7 1.34172 1181.69 0.844912C1181.26 1.33327 1180.86 1.82163 1180.29 2.29478C1179.8 2.69358 1179.22 3.09407 1178.67 3.49625C1178.69 3.09948 1178.95 2.70496 1179.45 2.32351C1179.75 2.06645 1179.97 1.80575 1180.13 1.54281C1180.28 1.27929 1180.21 1.01179 1179.92 0.753661C1180 1.01083 1179.85 1.26878 1179.49 1.51408C1179.13 1.75936 1178.7 1.99974 1178.21 2.23395C1177.92 2.38265 1177.63 2.53474 1177.35 2.68851V1.88077L1175.97 2.83552C1175.6 2.27217 1175.56 1.70126 1175.83 1.13556C1175.43 1.42252 1175.11 1.71492 1174.88 2.01089C1174.78 1.77849 1174.61 1.54769 1174.37 1.31975C1174.35 1.5868 1174.25 1.85326 1174.07 2.11735C1173.96 1.84909 1173.77 1.58267 1173.5 1.31975C1173.47 1.64338 1173.33 1.96603 1173.06 2.28464C1173.02 1.90162 1173.04 1.5169 1173.12 1.13049C1172.75 1.44311 1172.43 1.75911 1172.14 2.07679V1.88077L1171.17 2.53643C1171.17 2.48911 1171.12 2.44349 1171.1 2.39786C1171.37 1.60195 1171.75 0.804356 1172.28 0.0101389C1171.81 0.348104 1171.38 0.686068 1170.95 1.02403C1170.95 1.00207 1170.95 0.978408 1170.95 0.95475C1170.89 1.04093 1170.81 1.12373 1170.73 1.21329C1170.39 1.52253 1169.97 1.8605 1169.61 2.19846C1168.83 1.46001 1167.93 0.730004 1166.92 0.00168982C1167.5 0.875329 1167.92 1.75235 1168.18 2.62768L1167.11 1.88077V3.06365C1166.24 2.50085 1165.78 1.91289 1165.72 1.31975C1165.45 1.58255 1165.27 1.84903 1165.16 2.11735C1164.98 1.8532 1164.88 1.58679 1164.85 1.31975C1164.62 1.54785 1164.45 1.77859 1164.34 2.01089C1164.11 1.71492 1163.79 1.42252 1163.39 1.13556C1163.67 1.70126 1163.62 2.27237 1163.25 2.83552L1161.87 1.88077V2.68851C1161.6 2.53474 1161.31 2.38265 1161.01 2.23395C1160.53 2.00216 1160.1 1.76464 1159.74 1.52253C1159.38 1.27704 1159.24 1.01925 1159.31 0.762111C1159.02 1.02024 1158.95 1.28774 1159.1 1.55126C1159.26 1.81407 1159.49 2.07472 1159.78 2.33196C1160.28 2.71087 1160.54 3.10238 1160.56 3.49625C1160.01 3.09745 1159.44 2.70034 1158.96 2.31337C1158.39 1.84022 1157.98 1.35186 1157.56 0.8635C1157.56 1.36031 1157.56 1.85543 1157.67 2.35899C1157.71 2.4739 1157.76 2.58543 1157.81 2.69696L1156.14 0.95813L1156.39 3.21235L1155.3 1.31637L1154.52 2.7071C1154.06 2.21698 1153.75 1.72078 1153.59 1.22174C1153.37 1.48535 1153.21 1.75235 1153.07 2.02103C1152.82 1.81656 1152.56 1.61209 1152.29 1.411C1152.39 1.86488 1152.37 2.31955 1152.24 2.773L1151.02 1.92809C1150.89 1.72193 1150.74 1.51577 1150.56 1.31299C1150.56 1.36538 1150.5 1.41776 1150.48 1.47015C1150.48 1.41607 1150.4 1.36031 1150.34 1.30116C1150.15 1.11021 1149.93 0.926023 1149.7 0.740143C1149.82 1.11435 1149.69 1.49016 1149.34 1.85712L1148.56 2.40462C1148.56 2.41476 1148.56 2.4249 1148.52 2.43504L1147.56 1.4938V2.03624C1147.39 1.79047 1147.1 1.54927 1146.69 1.31637C1146.32 1.08656 1145.92 0.86181 1145.5 0.640443C1146 1.10376 1146.26 1.57748 1146.28 2.05314C1146.28 2.15959 1146.19 2.26605 1146.11 2.37251C1145.7 2.14819 1145.34 1.9185 1145.06 1.68475C1145.06 1.72362 1145.06 1.76249 1145.06 1.80135L1144.62 1.49549V3.01634C1143.85 2.49907 1143.54 1.95502 1143.7 1.41269C1143.03 1.79955 1142.62 2.20435 1142.45 2.61585C1142 2.31628 1141.68 2.00784 1141.51 1.69489C1141.34 1.92647 1141.26 2.16023 1141.24 2.39448L1140.78 2.93691L1139.76 2.1917C1139.71 1.9953 1139.71 1.79836 1139.76 1.60195C1139.6 1.69827 1139.46 1.79797 1139.32 1.89767L1138.79 1.50901V2.23902C1138.19 1.65897 1138.08 1.06023 1138.46 0.471461C1138.15 0.654283 1137.89 0.841076 1137.68 1.03079L1137.5 0.846602L1137.2 1.43973C1137.05 1.62368 1136.95 1.80929 1136.89 1.99568L1135.68 0.47484L1135.72 2.06158C1135.42 1.62072 1135 1.18443 1134.44 0.755351C1134.44 1.06459 1134.44 1.37045 1134.31 1.67462L1133.62 1.13218L1134 2.34041C1133.94 2.44011 1133.86 2.53812 1133.78 2.63781C1133.27 2.142 1132.91 1.63888 1132.72 1.13218C1132.51 1.43804 1132.38 1.74897 1132.28 2.0599C1132.1 1.81656 1131.95 1.56985 1131.85 1.32144C1131.48 1.85946 1131.3 2.40301 1131.32 2.94705L1129.34 1.69151L1129.44 2.24578C1129.2 2.03286 1128.98 1.81825 1128.8 1.60195C1128.64 1.97385 1128.58 2.34725 1128.6 2.72062C1128.03 2.35317 1127.56 1.97846 1127.2 1.59857C1127.2 1.76756 1127.15 1.92302 1127.15 2.08693L1126.56 1.67799V1.59857L1126.51 1.63237L1126.33 1.50394V1.78445L1125.7 2.27112L1124.6 1.50394V2.32858L1123.29 1.03417L1123.09 2.08017L1122.87 1.60195L1122.24 2.27788L1121.4 1.31975L1121.32 1.55802L1120.76 1.03248L1120.62 2.36744L1119.61 1.60195L1119.39 2.58205C1118.82 2.16533 1118.45 1.73734 1118.28 1.30454C1118.28 1.1821 1118.31 1.05968 1118.36 0.937852C1118.31 0.971649 1118.26 1.00882 1118.21 1.04431C1118.21 0.978408 1118.21 0.914195 1118.21 0.849981C1118.11 0.981788 1118.02 1.11528 1117.96 1.25047C1117.31 1.80315 1117.23 2.38055 1117.74 2.94029H1117.65C1116.94 2.34435 1116.3 1.74333 1115.73 1.13725C1115.73 1.06628 1115.73 0.996996 1115.8 0.927713C1115.74 0.9632 1115.69 1.00038 1115.64 1.03586C1115.38 0.750845 1115.13 0.464702 1114.91 0.177431C1114.91 0.613406 1114.99 1.04938 1115.1 1.48536C1115.1 1.52084 1115.05 1.55802 1115.02 1.59519C1114.84 1.37383 1114.68 1.15415 1114.54 0.931093C1114.15 1.64528 1114.02 2.36521 1114.16 3.08393H1114.11C1112.92 2.49314 1112.59 1.83759 1113.16 1.20484C1112.57 1.47314 1112.15 1.75731 1111.92 2.04976C1111.64 1.73883 1111.37 1.4279 1111.14 1.11528C1111.04 1.71686 1111.05 2.32351 1111.14 2.92846C1109.79 2.30841 1109.37 1.61285 1109.92 0.937852C1109.3 1.24909 1108.91 1.57818 1108.73 1.91457L1108.49 1.80811L1108.44 1.77769V1.78614L1108.34 1.74221L1107.99 1.30454L1107.54 2.43673C1107.22 2.03082 1107.08 1.61975 1107.09 1.20822C1106.47 1.70493 1106.08 2.21475 1105.95 2.72907L1104.11 1.01727L1104.19 3.03323L1102.73 1.31806L1102.24 2.56515C1102.07 2.46207 1101.9 2.35561 1101.75 2.25085L1100.97 1.31806L1100.88 1.54281C1100.66 1.31299 1100.49 1.08149 1100.37 0.846602C1100.17 1.37361 1100.23 1.90377 1100.54 2.42828L1100.35 2.89974L1099.04 0.939542L1098.89 1.59012L1098.37 0.941232L1097.98 1.91795L1097.5 1.31806L1096.92 2.78145L1095.56 0.753661L1095.37 1.65603L1095.16 0.753661L1093.8 2.78145L1093.23 1.31806L1092.75 1.91795L1092.36 0.941232L1091.84 1.59012L1091.7 0.939542L1090.38 2.89974L1090.2 2.42828C1090.51 1.90365 1090.56 1.37357 1090.36 0.846602C1090.24 1.08149 1090.07 1.31299 1089.85 1.54281L1089.77 1.31806L1088.99 2.25085C1088.83 2.3573 1088.67 2.46207 1088.49 2.56515L1088 1.31806L1086.6 3.05182L1086.69 1.03586L1084.84 2.74765C1084.71 2.23333 1084.33 1.72352 1083.7 1.22681C1083.72 1.63834 1083.57 2.04941 1083.26 2.45531L1082.81 1.32313L1082.46 1.7608L1082.36 1.80473V1.79628L1082.31 1.8267L1082.06 1.93316C1081.89 1.59661 1081.49 1.26741 1080.88 0.95644C1081.43 1.63144 1081 2.32699 1079.66 2.94705C1079.77 2.3421 1079.8 1.73545 1079.66 1.13387C1079.43 1.44649 1079.17 1.75742 1078.88 2.06834C1078.64 1.77571 1078.23 1.49144 1077.64 1.22343C1078.21 1.85618 1077.88 2.51172 1076.69 3.10252C1076.82 2.38094 1076.69 1.65823 1076.29 0.941232C1076.16 1.16429 1075.99 1.38397 1075.82 1.60533C1075.82 1.56816 1075.77 1.53098 1075.74 1.49549C1075.84 1.05952 1075.91 0.623545 1075.93 0.18757C1075.7 0.47484 1075.46 0.760421 1075.19 1.046C1075.14 1.01051 1075.1 0.973338 1075.04 0.937852C1075.04 1.00713 1075.08 1.07642 1075.1 1.14739C1074.53 1.75347 1073.89 2.35449 1073.19 2.95043H1073.09C1073.6 2.39069 1073.53 1.81328 1072.88 1.26061C1072.81 1.12542 1072.74 0.991927 1072.63 0.86012C1072.63 0.924334 1072.63 0.988547 1072.59 1.05445C1072.53 1.01896 1072.49 0.981788 1072.43 0.947991C1072.49 1.06982 1072.52 1.19223 1072.51 1.31468C1072.33 1.74822 1071.96 2.17679 1071.38 2.59388L1071.17 1.61378L1070.19 2.36744L1070.07 1.03248L1069.51 1.55802L1069.43 1.31975L1068.6 2.27957L1067.98 1.60364L1067.74 2.08017L1067.54 1.03417L1066.23 2.32858V1.50394L1065.12 2.27112L1064.5 1.78445V1.50394L1064.31 1.63237L1064.27 1.59857V1.67799L1063.68 2.08693C1063.68 1.91795 1063.68 1.7608 1063.63 1.59857C1063.27 1.97846 1062.8 2.35317 1062.22 2.72062C1062.25 2.34725 1062.18 1.97385 1062.03 1.60195C1061.85 1.81825 1061.63 2.03286 1061.39 2.24578L1061.49 1.69151L1059.51 2.94367C1059.53 2.39963 1059.35 1.85608 1058.98 1.31806C1058.88 1.56647 1058.72 1.81318 1058.54 2.05652C1058.45 1.74559 1058.32 1.43466 1058.11 1.1288C1057.92 1.63559 1057.56 2.13877 1057.04 2.63444C1056.96 2.53474 1056.89 2.43673 1056.82 2.33703L1057.21 1.1288L1056.51 1.67124C1056.41 1.36707 1056.36 1.06121 1056.38 0.751972C1055.83 1.18105 1055.4 1.61734 1055.11 2.05821V0.471461L1053.89 1.9923C1053.84 1.80601 1053.74 1.62045 1053.6 1.43635L1053.29 0.846602L1053.2 1.03079C1052.99 0.841289 1052.73 0.654542 1052.42 0.471461C1052.8 1.06023 1052.69 1.65897 1052.09 2.23902V1.50901L1051.56 1.89767C1051.43 1.79797 1051.28 1.69827 1051.12 1.60195C1051.17 1.79838 1051.17 1.99527 1051.12 2.1917L1050.11 2.93691L1049.65 2.39448C1049.63 2.16023 1049.54 1.92647 1049.38 1.69489C1049.2 2.00784 1048.89 2.31628 1048.43 2.61585C1048.27 2.20435 1047.85 1.79955 1047.19 1.41269C1047.35 1.95502 1047.04 2.49907 1046.27 3.01634L1046.23 1.50394L1045.79 1.8098C1045.79 1.77094 1045.79 1.73207 1045.79 1.6932C1045.5 1.92695 1045.15 2.15664 1044.74 2.38096C1044.66 2.2745 1044.6 2.16804 1044.57 2.06158C1044.6 1.58604 1044.86 1.1125 1045.35 0.648892C1044.94 0.873639 1044.57 1.09839 1044.16 1.32482C1043.75 1.55772 1043.46 1.79892 1043.29 2.04469V1.50225L1042.33 2.44349C1042.33 2.43335 1042.33 2.42321 1042.33 2.41307L1041.55 1.86557C1041.2 1.49861 1041.07 1.1228 1041.19 0.748592C1040.96 0.934473 1040.73 1.11866 1040.55 1.30961C1040.49 1.362 1040.45 1.41776 1040.41 1.4786C1040.41 1.42621 1040.35 1.37383 1040.33 1.32144C1040.14 1.52422 1040 1.73038 1039.87 1.93654L1038.66 2.78145C1038.52 2.32806 1038.5 1.87335 1038.6 1.41945C1038.31 1.62054 1038.04 1.82501 1037.82 2.02948C1037.69 1.7608 1037.52 1.4938 1037.3 1.23019C1037.14 1.72923 1036.82 2.22542 1036.36 2.71555L1035.59 1.32482L1034.4 3.21235L1034.67 0.939542L1033 2.67837C1033.05 2.56515 1033.11 2.45362 1033.14 2.34041C1033.29 1.83346 1033.26 1.34172 1033.25 0.844912C1032.83 1.33327 1032.43 1.82163 1031.86 2.29478C1031.37 2.6902 1030.8 3.08731 1030.25 3.48611C1030.27 3.09224 1030.53 2.70073 1031.03 2.32182C1031.33 2.06476 1031.55 1.80406 1031.71 1.54112C1031.86 1.2776 1031.79 1.0101 1031.5 0.751972C1031.57 1.00911 1031.43 1.2669 1031.07 1.51239C1030.71 1.75767 1030.28 1.99805 1029.79 2.23226C1029.5 2.38096 1029.21 2.53305 1028.93 2.68682V1.87908L1027.55 2.83383C1027.18 2.27068 1027.13 1.69957 1027.41 1.13387C1027.01 1.42083 1026.69 1.71323 1026.46 2.0092C1026.35 1.7769 1026.18 1.54616 1025.95 1.31806C1025.93 1.58519 1025.83 1.85171 1025.64 2.11566C1025.54 1.84734 1025.35 1.58086 1025.08 1.31806C1025.04 1.9106 1024.59 2.49853 1023.75 3.06196V1.87908L1022.63 2.62768C1022.89 1.75235 1023.31 0.875329 1023.89 0.00168982C1022.81 0.77056 1021.88 1.55126 1021.04 2.33872C1021.04 2.32689 1021.04 2.31506 1021.04 2.30154C1020.87 2.06834 1020.64 1.8436 1020.44 1.62561C1020.23 1.40762 1020.04 1.17443 1019.87 0.949681C1019.83 1.1795 1019.8 1.411 1019.79 1.64082C1019.78 1.87063 1019.79 2.10214 1019.74 2.31675C1019.7 2.46117 1019.62 2.605 1019.51 2.74765C1019.39 2.21198 1019.38 1.67124 1019.51 1.13049C1019.18 1.40762 1018.9 1.68982 1018.62 1.9754C1018.36 1.6932 1018.07 1.411 1017.75 1.13049C1017.86 1.67124 1017.85 2.21198 1017.75 2.74765C1017.63 2.605 1017.56 2.46117 1017.51 2.31675C1017.47 2.09369 1017.51 1.86219 1017.47 1.64082C1017.42 1.41945 1017.47 1.1795 1017.39 0.949681C1017.22 1.17612 1017.02 1.40255 1016.82 1.62561C1016.62 1.84867 1016.39 2.0751 1016.21 2.30154C1016.21 2.31506 1016.21 2.32689 1016.21 2.33872C1015.38 1.55126 1014.45 0.77056 1013.37 0.00168982C1013.95 0.875329 1014.36 1.75235 1014.63 2.62768L1013.55 1.88077V3.06365C1012.7 2.50022 1012.25 1.91229 1012.22 1.31975C1011.95 1.58255 1011.76 1.84903 1011.66 2.11735C1011.47 1.8534 1011.36 1.58688 1011.35 1.31975C1011.11 1.54785 1010.94 1.77859 1010.83 2.01089C1010.6 1.71492 1010.29 1.42252 1009.88 1.13556C1010.16 1.70126 1010.12 2.27237 1009.74 2.83552L1008.37 1.88077V2.68851C1008.09 2.53474 1007.8 2.38265 1007.5 2.23395C1006.97 2.0032 1006.49 1.76563 1006.09 1.52253C1005.73 1.27704 1005.58 1.01925 1005.65 0.762111C1005.36 1.02024 1005.3 1.28774 1005.45 1.55126C1005.6 1.8142 1005.83 2.0749 1006.13 2.33196C1006.62 2.71087 1006.88 3.10238 1006.91 3.49625C1006.35 3.09745 1005.79 2.70034 1005.3 2.31337C1004.73 1.84022 1004.32 1.35186 1003.9 0.8635C1003.9 1.36031 1003.9 1.85543 1004.01 2.35899C1004.01 2.4739 1004.11 2.58543 1004.15 2.69696L1002.49 0.95813L1002.75 3.23094L1001.63 1.31806L1000.85 2.70541C1000.39 2.21518 1000.08 1.71904 999.914 1.22005C999.696 1.48367 999.533 1.75066 999.401 2.01934C999.152 1.81487 998.887 1.6104 998.623 1.40931C998.719 1.86321 998.698 2.31792 998.561 2.77131L997.347 1.9264C997.223 1.72024 997.075 1.51408 996.889 1.3113C996.889 1.36369 996.834 1.41607 996.811 1.46846C996.764 1.41438 996.725 1.35862 996.671 1.29947C996.484 1.10852 996.259 0.924334 996.033 0.738453C996.146 1.11266 996.023 1.48847 995.668 1.85543L994.89 2.40293C994.89 2.41307 994.89 2.42321 994.89 2.43335L993.856 1.50563V2.04807C993.679 1.8023 993.387 1.5611 992.985 1.3282C992.611 1.09839 992.207 0.873639 991.795 0.652272C992.283 1.11588 992.544 1.58942 992.573 2.06496C992.573 2.17142 992.479 2.27788 992.401 2.38434C991.986 2.16002 991.636 1.93033 991.352 1.69658C991.352 1.73545 991.352 1.77431 991.352 1.81318L990.908 1.50732V3.02816C990.127 2.50748 989.807 1.95927 989.967 1.41269C989.302 1.79955 988.883 2.20435 988.723 2.61585C988.266 2.3165 987.949 2.00798 987.774 1.69489C987.612 1.92647 987.523 2.16023 987.51 2.39448L987.043 2.93691L986.032 2.1917C985.978 1.9953 985.978 1.79836 986.032 1.60195C985.877 1.69827 985.729 1.79797 985.597 1.89767L985.068 1.50901V2.23902C984.469 1.65897 984.356 1.06023 984.734 0.471461C984.426 0.654542 984.166 0.841289 983.956 1.03079L983.839 0.846602L983.536 1.43973C983.394 1.62383 983.295 1.80939 983.24 1.99568L982.027 0.47484V2.06158C981.73 1.62072 981.304 1.18443 980.752 0.755351C980.752 1.06459 980.752 1.37045 980.62 1.67462L979.927 1.13218L980.308 2.34041C980.246 2.44011 980.168 2.53812 980.091 2.63781C979.587 2.14075 979.249 1.63644 979.08 1.1288C978.87 1.43466 978.73 1.74559 978.644 2.05652C978.458 1.81318 978.31 1.56647 978.209 1.31806C977.837 1.85608 977.66 2.39963 977.68 2.94367L975.681 1.69151L975.782 2.24578C975.541 2.03286 975.324 1.81825 975.137 1.60195C974.989 1.97393 974.926 2.34729 974.95 2.72062C974.376 2.35317 973.906 1.97846 973.543 1.59857C973.504 1.76756 973.496 1.92302 973.496 2.08693L972.905 1.67799V1.59857L972.858 1.63237L972.672 1.50394V1.78445L972.049 2.27112L970.945 1.50394V2.32858L969.631 1.03417L969.437 2.08017L969.211 1.60195L968.589 2.27788L967.757 1.31806L967.679 1.55633L967.119 1.03079L966.948 2.36744L965.929 1.60195L965.719 2.58205C965.147 2.16496 964.769 1.7364 964.592 1.30285C964.586 1.18041 964.612 1.05799 964.669 0.936162C964.607 0.969959 964.568 1.00713 964.514 1.04262C964.514 0.976718 964.514 0.912505 964.467 0.848292C964.366 0.980098 964.288 1.11359 964.226 1.24878C963.574 1.80146 963.499 2.37886 964.008 2.9386H963.915C963.207 2.3421 962.562 1.74221 962.002 1.13556C962.002 1.06459 962.002 0.995306 962.064 0.926023C962.002 0.96151 961.963 0.998686 961.909 1.03417C961.644 0.748592 961.403 0.463012 961.131 0.175742C961.131 0.611716 961.224 1.04769 961.325 1.48367C961.325 1.51915 961.271 1.55633 961.247 1.5935C961.069 1.37214 960.898 1.15246 960.773 0.929403C960.389 1.64775 960.27 2.37159 960.415 3.09407C959.223 2.5035 958.892 1.84769 959.467 1.21498C958.877 1.48299 958.458 1.76726 958.222 2.0599C957.942 1.74897 957.678 1.43804 957.445 1.12542C957.336 1.727 957.359 2.33365 957.445 2.9386C956.099 2.31854 955.672 1.62299 956.224 0.947991C955.608 1.25896 955.21 1.58817 955.042 1.92471L954.793 1.81825L954.746 1.78783V1.79628L954.645 1.75235L954.287 1.31468L953.844 2.44686C953.531 2.04096 953.383 1.62989 953.401 1.21836C952.773 1.71507 952.389 2.22489 952.258 2.7392L950.414 1.02741L950.5 3.04337L949.1 1.30961L948.61 2.5567C948.431 2.45362 948.268 2.34717 948.113 2.2424L947.335 1.30961L947.249 1.53436C947.032 1.30454 946.86 1.07304 946.744 0.838153C946.539 1.3651 946.592 1.89526 946.899 2.41983L946.72 2.89129L945.398 0.931093L945.258 1.58168L944.737 0.932783L944.349 1.9095L943.866 1.30961L943.291 2.773L941.93 0.745212L941.751 1.65265L941.557 0.750282L940.196 2.77807L939.62 1.31468L939.138 1.91457L938.749 0.937852L938.228 1.58674L938.08 0.936162L936.766 2.89636L936.579 2.4249C936.89 1.90039 936.945 1.37023 936.743 0.843222C936.626 1.07811 936.455 1.30961 936.237 1.53943L936.144 1.31468L935.366 2.24747C935.219 2.35392 935.047 2.45869 934.876 2.56177L934.386 1.31468L932.987 3.04844L933.072 1.03248L931.229 2.74427C931.097 2.22995 930.714 1.72014 930.086 1.22343C930.105 1.63504 929.954 2.04619 929.635 2.45193L929.192 1.31975L928.842 1.75742L928.74 1.80135V1.7929L928.686 1.82332L928.445 1.92978C928.273 1.59338 927.875 1.2643 927.263 0.953061C927.814 1.62806 927.388 2.32361 926.042 2.94367C926.159 2.33872 926.174 1.73207 926.042 1.13049C925.816 1.44311 925.552 1.75404 925.264 2.06496C925.025 1.77252 924.606 1.48835 924.02 1.22005C924.593 1.85137 924.267 2.50562 923.087 3.09576C923.223 2.37704 923.093 1.65711 922.698 0.942922C922.566 1.16598 922.402 1.38566 922.224 1.60702C922.224 1.56985 922.177 1.53267 922.146 1.49718C922.239 1.06121 922.317 0.625235 922.332 0.18926C922.109 0.47653 921.866 0.762674 921.601 1.04769C921.547 1.0122 921.5 0.975028 921.446 0.939542C921.446 1.00882 921.493 1.07811 921.508 1.14908C920.938 1.75516 920.297 2.35618 919.587 2.95212H919.502C920.011 2.39238 919.936 1.81497 919.284 1.2623C919.222 1.12711 919.136 0.993616 919.035 0.86181C919.035 0.926023 919.035 0.990237 919.035 1.05614C918.981 1.02065 918.934 0.983477 918.879 0.949681C918.936 1.07151 918.962 1.19392 918.957 1.31637C918.776 1.7498 918.398 2.17828 917.83 2.59557L917.612 1.61547L916.601 2.38096L916.476 1.04431L915.917 1.56985L915.839 1.33158L915.007 2.2914L914.385 1.61547L914.159 2.09369L913.957 1.04769L912.65 2.3421V1.51746L911.422 2.27112L910.807 1.78445V1.50394L910.62 1.63237L910.574 1.59857V1.67799L909.991 2.08693C909.991 1.91795 909.991 1.7608 909.944 1.59857C909.58 1.97846 909.11 2.35317 908.536 2.72062C908.562 2.34725 908.497 1.97385 908.342 1.60195C908.163 1.81825 907.945 2.03286 907.704 2.24578L907.805 1.69151L905.822 2.94367C905.842 2.39963 905.666 1.85608 905.293 1.31806C905.192 1.56647 905.037 1.81318 904.858 2.05652C904.765 1.74559 904.632 1.43466 904.422 1.1288C904.231 1.6355 903.875 2.13862 903.357 2.63444C903.279 2.53474 903.201 2.43673 903.139 2.33703L903.52 1.1288L902.82 1.67124C902.719 1.36707 902.673 1.06121 902.696 0.751972C902.143 1.18105 901.717 1.61734 901.421 2.05821V0.471461L900.215 1.9923C900.161 1.80591 900.06 1.6203 899.912 1.43635L899.632 0.846602L899.539 1.03079C899.332 0.841076 899.072 0.654283 898.761 0.471461C899.135 1.06027 899.022 1.65886 898.427 2.23902V1.50901L897.898 1.89767C897.758 1.79797 897.618 1.69827 897.454 1.60195C897.509 1.79836 897.509 1.9953 897.454 2.1917L896.443 2.93691L895.977 2.39448C895.963 2.16023 895.875 1.92647 895.712 1.69489C895.534 2.00784 895.217 2.31628 894.764 2.61585C894.603 2.20435 894.184 1.79955 893.519 1.41269C893.681 1.95515 893.367 2.49936 892.594 3.01634V1.50394L892.151 1.8098C892.151 1.77094 892.151 1.73207 892.151 1.6932C891.866 1.92695 891.516 2.15664 891.101 2.38096C891.023 2.2745 890.961 2.16804 890.93 2.06158C890.951 1.58593 891.212 1.11221 891.707 0.648892C891.295 0.873639 890.93 1.09839 890.517 1.32482C890.115 1.55772 889.823 1.79892 889.646 2.04469V1.50225L888.69 2.44349C888.69 2.43335 888.69 2.42321 888.69 2.41307L887.912 1.86557C887.563 1.49841 887.443 1.12272 887.555 0.748592C887.329 0.934473 887.103 1.11866 886.917 1.30961C886.862 1.362 886.816 1.41776 886.777 1.4786C886.777 1.42621 886.715 1.37383 886.699 1.32144C886.512 1.52422 886.365 1.73038 886.24 1.93654L885.019 2.78145C884.888 2.328 884.87 1.87333 884.965 1.41945C884.669 1.62054 884.413 1.82501 884.187 2.02948C884.047 1.7608 883.884 1.4938 883.666 1.23019C883.475 1.72624 883.135 2.21904 882.647 2.70541L881.87 1.31468L880.75 3.21235L881.014 0.939542L879.35 2.67837C879.397 2.56515 879.451 2.45362 879.49 2.34041C879.638 1.83346 879.607 1.34172 879.599 0.844912C879.179 1.33327 878.767 1.82163 878.199 2.29478C877.717 2.6902 877.149 3.08731 876.597 3.48611C876.614 3.09218 876.876 2.70056 877.375 2.32182C877.668 2.06458 877.894 1.80393 878.051 1.54112C878.207 1.2776 878.139 1.0101 877.849 0.751972C877.918 1.00921 877.768 1.26701 877.406 1.51239C877.05 1.75764 876.627 1.99803 876.138 2.23226C875.843 2.38096 875.547 2.53305 875.275 2.68682V1.87908L873.898 2.83383C873.525 2.27068 873.478 1.69957 873.758 1.13387C873.355 1.42083 873.038 1.71323 872.81 2.0092C872.699 1.7769 872.527 1.54616 872.296 1.31806C872.271 1.5851 872.167 1.85151 871.985 2.11566C871.882 1.84734 871.695 1.58086 871.425 1.31806C871.389 1.9106 870.941 2.49853 870.096 3.06196V1.87908L869.022 2.62599C869.287 1.75066 869.699 0.873639 870.274 0C869.201 0.76887 868.26 1.54957 867.436 2.33703C867.436 2.3252 867.436 2.31337 867.436 2.29985C867.265 2.06665 867.032 1.84191 866.829 1.62392C866.627 1.40593 866.433 1.17274 866.262 0.947991C866.215 1.17781 866.192 1.40931 866.184 1.63913C866.176 1.86894 866.184 2.10045 866.137 2.31506C866.091 2.45951 866.011 2.60334 865.896 2.74596C865.787 2.21029 865.772 1.66955 865.896 1.1288C865.569 1.40593 865.282 1.68813 865.01 1.97371C864.745 1.69151 864.457 1.40931 864.131 1.1288C864.24 1.66955 864.232 2.21029 864.131 2.74596C864.019 2.60331 863.941 2.45948 863.897 2.31506C863.843 2.092 863.897 1.8605 863.851 1.63913C863.804 1.41776 863.851 1.17781 863.773 0.947991C863.594 1.17443 863.408 1.40086 863.205 1.62392C863.003 1.84698 862.77 2.07341 862.599 2.29985C862.599 2.31337 862.599 2.3252 862.599 2.33703C861.767 1.54957 860.826 0.76887 859.752 0C860.336 0.873639 860.748 1.75066 861.012 2.62599L859.931 1.87908V3.06196C859.083 2.49873 858.634 1.91067 858.601 1.31806C858.328 1.58071 858.141 1.84724 858.042 2.11566C857.852 1.85171 857.748 1.58519 857.73 1.31806C857.496 1.546 857.324 1.7768 857.217 2.0092C856.989 1.71323 856.672 1.42083 856.268 1.13387C856.549 1.69957 856.502 2.27068 856.128 2.83383L854.752 1.87908V2.68682C854.472 2.53305 854.184 2.38096 853.889 2.23226C853.339 2.00225 852.853 1.76525 852.434 1.52253C852.071 1.27722 851.924 1.01927 851.999 0.762111C851.709 1.02024 851.641 1.28774 851.797 1.55126C851.95 1.8142 852.176 2.0749 852.473 2.33196C852.968 2.71087 853.23 3.10238 853.251 3.49625C852.699 3.09745 852.131 2.70034 851.641 2.31337C851.074 1.84022 850.669 1.35186 850.241 0.8635C850.241 1.36031 850.241 1.85543 850.358 2.35899C850.358 2.4739 850.451 2.58543 850.498 2.69696L848.834 0.95813L849.098 3.23094L848.009 1.33496L847.232 2.72569C846.772 2.23546 846.458 1.73932 846.291 1.24033C846.073 1.50394 845.91 1.77094 845.777 2.03962C845.529 1.83515 845.264 1.63068 845 1.42959C845.102 1.88344 845.084 2.3382 844.945 2.79159L843.732 1.94668C843.608 1.74052 843.46 1.53436 843.273 1.33158C843.273 1.38397 843.219 1.43635 843.188 1.48873C843.149 1.43466 843.102 1.3789 843.056 1.31975C842.869 1.1288 842.643 0.944612 842.41 0.758731C842.529 1.13286 842.409 1.50876 842.052 1.8757L841.275 2.42321C841.275 2.43335 841.275 2.44349 841.275 2.45362L840.31 1.51239V2.05483C840.13 1.80923 839.838 1.56811 839.439 1.33496C839.066 1.10514 838.662 0.880398 838.242 0.659031C838.734 1.1225 838.994 1.59613 839.019 2.07172C839.019 2.17818 838.926 2.28464 838.848 2.3911C838.433 2.16678 838.083 1.93708 837.798 1.70334C837.798 1.74221 837.798 1.78107 837.798 1.81994L837.355 1.51408V3.03492C836.588 2.51765 836.277 1.97361 836.438 1.43128C835.769 1.8179 835.35 2.22281 835.193 2.63444C834.733 2.33531 834.415 2.02671 834.245 1.71348C834.074 1.94486 833.986 2.17875 833.98 2.41307L833.513 2.9555L832.331 2.19846C832.277 2.00205 832.277 1.80512 832.331 1.60871C832.176 1.70503 832.028 1.80473 831.896 1.90443L831.367 1.51577V2.24578C830.769 1.66572 830.654 1.06713 831.025 0.47822C830.717 0.661298 830.457 0.848045 830.247 1.03755L830.185 0.846602L829.882 1.43973C829.74 1.62383 829.641 1.80939 829.586 1.99568L828.373 0.47484V2.06158C828.076 1.62072 827.65 1.18443 827.098 0.755351C827.098 1.06459 827.098 1.37045 826.965 1.67462L826.266 1.13218L826.654 2.34041C826.592 2.44011 826.507 2.53812 826.429 2.63781C825.914 2.14196 825.56 1.63884 825.371 1.13218C825.153 1.43804 825.021 1.74897 824.928 2.0599C824.749 1.81656 824.593 1.56985 824.5 1.32144C824.129 1.85951 823.95 2.40299 823.964 2.94705L822.027 1.69151L822.128 2.24578C821.887 2.03286 821.669 1.81825 821.483 1.60195C821.335 1.97033 821.273 2.34548 821.288 2.72062C820.721 2.3529 820.253 1.97823 819.889 1.59857C819.889 1.76756 819.842 1.92302 819.842 2.08693L819.251 1.67799V1.59857V1.63237L819.064 1.50394V1.78445L818.442 2.27112L817.338 1.50394V2.32858L816.023 1.03417L815.767 2.08017L815.549 1.60195L814.927 2.27788L814.056 1.31975L813.978 1.55802L813.434 1.03248L813.309 2.36913L812.291 1.60364L812.081 2.58374C811.508 2.16665 811.13 1.73809 810.953 1.30454C810.948 1.1821 810.974 1.05968 811.031 0.937852C810.969 0.971649 810.93 1.00882 810.875 1.04431C810.875 0.978408 810.875 0.914195 810.829 0.849981C810.727 0.981788 810.65 1.11528 810.587 1.25047C809.927 1.80291 809.853 2.38069 810.37 2.94029H810.276C809.569 2.34379 808.923 1.7439 808.363 1.13725C808.363 1.06628 808.363 0.996996 808.426 0.927713C808.363 0.9632 808.317 1.00038 808.262 1.03586C808.006 0.750282 807.757 0.464702 807.531 0.177431C807.531 0.613406 807.624 1.04938 807.726 1.48536C807.726 1.52084 807.671 1.55802 807.648 1.59519C807.461 1.37383 807.298 1.15415 807.166 0.931093C806.778 1.64541 806.648 2.36521 806.777 3.08393H806.738C805.545 2.49336 805.214 1.83755 805.789 1.20484C805.199 1.47285 804.781 1.75712 804.545 2.04976C804.26 1.73883 804 1.42734 803.767 1.11528C803.658 1.71686 803.682 2.32351 803.767 2.92846C802.434 2.31239 802.008 1.622 802.546 0.951371C801.932 1.26253 801.531 1.59161 801.356 1.92809L801.115 1.82163L801.061 1.79121V1.79966L800.968 1.75573L800.61 1.31806L800.167 2.45024C799.854 2.04434 799.706 1.63327 799.723 1.22174C799.093 1.71839 798.707 2.2282 798.572 2.74258L796.737 1.03079L796.823 3.04675L795.423 1.31299L794.933 2.56008C794.754 2.457 794.591 2.35054 794.435 2.24578L793.657 1.31299L793.572 1.53774C793.354 1.30792 793.183 1.07642 793.066 0.841532C792.862 1.36848 792.914 1.89864 793.222 2.42321L793.035 2.89467L791.721 0.934473L791.581 1.58505L791.052 0.936162L790.671 1.91288L790.189 1.31299L789.613 2.77638L788.252 0.748592L788.05 1.65096L787.856 0.748592L786.487 2.77638L785.919 1.31299L785.43 1.91288L785.048 0.936162L784.527 1.58505L784.38 0.934473L783.104 2.89974L782.918 2.42828C783.236 1.90395 783.298 1.37379 783.104 0.846602C782.988 1.08149 782.816 1.31299 782.599 1.54281L782.505 1.31806L781.728 2.25085C781.58 2.3573 781.409 2.46207 781.238 2.56515L780.771 1.31806L779.371 3.05182L779.465 1.03586L777.622 2.74765C777.486 2.23342 777.103 1.7237 776.478 1.22681C776.49 1.63836 776.339 2.04936 776.027 2.45531L775.584 1.32313L775.234 1.7608L775.133 1.80473V1.79628L775.079 1.8267L774.837 1.93316C774.666 1.59676 774.267 1.26768 773.655 0.95644C774.207 1.63144 773.78 2.32699 772.434 2.94705C772.551 2.3421 772.567 1.73545 772.434 1.13387C772.217 1.44649 771.952 1.75742 771.657 2.06834C771.418 1.7759 770.999 1.49173 770.413 1.22343C770.984 1.85618 770.653 2.51172 769.464 3.10252H769.417C769.553 2.3838 769.423 1.66387 769.028 0.949681C768.896 1.17274 768.733 1.39241 768.554 1.61378C768.554 1.57661 768.507 1.53943 768.476 1.50394C768.569 1.06797 768.647 0.631994 768.663 0.19602C768.435 0.48329 768.191 0.769433 767.932 1.05445C767.877 1.01896 767.831 0.981788 767.776 0.946301C767.776 1.01558 767.823 1.08487 767.838 1.15584C767.268 1.76192 766.628 2.36294 765.917 2.95888H765.832C766.341 2.39914 766.267 1.82173 765.614 1.26906C765.552 1.13387 765.466 1.00038 765.365 0.868569C765.365 0.932783 765.365 0.996996 765.326 1.0629C765.272 1.02741 765.225 0.990237 765.171 0.95644C765.225 1.07811 765.249 1.20146 765.249 1.32313C765.068 1.75656 764.69 2.18504 764.121 2.60233L763.903 1.62223L762.885 2.36744L762.76 1.03079L762.2 1.55633L762.107 1.31975L761.282 2.27957L760.653 1.60364L760.435 2.08186L760.233 1.03586L758.926 2.33027V1.50563L757.814 2.27281L757.2 1.78614V1.50394L757.013 1.63237L756.966 1.59857V1.67799L756.375 2.08693C756.375 1.91795 756.375 1.7608 756.375 1.59857C756.012 1.97846 755.541 2.35317 754.968 2.72062C754.989 2.34726 754.924 1.9739 754.773 1.60195C754.594 1.81825 754.369 2.03286 754.136 2.24578L754.229 1.69151L752.254 2.94367C752.27 2.39965 752.093 1.85617 751.725 1.31806C751.624 1.56647 751.468 1.81318 751.289 2.05652C751.196 1.74559 751.064 1.43466 750.854 1.1288C750.662 1.6355 750.306 2.13862 749.788 2.63444C749.711 2.53474 749.633 2.43673 749.563 2.33703L749.952 1.1288L749.252 1.67124C749.151 1.36707 749.096 1.06121 749.12 0.751972C748.57 1.18108 748.146 1.61738 747.852 2.05821V0.471461L746.647 1.9923C746.593 1.80591 746.492 1.6203 746.343 1.43635L745.978 0.846602L745.884 1.03079C745.674 0.841286 745.415 0.654538 745.107 0.471461C745.481 1.06027 745.367 1.65886 744.772 2.23902V1.50901L744.244 1.89767C744.111 1.79797 743.971 1.69827 743.808 1.60195C743.862 1.79836 743.862 1.9953 743.808 2.1917L742.797 2.93691L742.33 2.39448C742.318 2.16015 742.227 1.92633 742.058 1.69489C741.888 2.00812 741.57 2.31672 741.109 2.61585C740.952 2.20442 740.536 1.79962 739.873 1.41269C740.035 1.95515 739.721 2.49936 738.948 3.01634V1.50394L738.512 1.8098C738.512 1.77094 738.512 1.73207 738.512 1.6932C738.228 1.92695 737.877 2.15664 737.462 2.38096C737.384 2.2745 737.322 2.16804 737.291 2.06158C737.312 1.58593 737.573 1.11221 738.069 0.648892C737.657 0.873639 737.291 1.09839 736.871 1.32482C736.476 1.55822 736.184 1.79926 736 2.04469V1.50225L735.044 2.44349C735.044 2.43335 735.044 2.42321 735.044 2.41307L734.266 1.86557C733.917 1.49841 733.796 1.12272 733.908 0.748592C733.683 0.934473 733.449 1.11866 733.271 1.30961C733.216 1.362 733.169 1.41776 733.13 1.4786C733.13 1.42621 733.068 1.37383 733.045 1.32144C732.866 1.52422 732.718 1.73038 732.586 1.93654L731.373 2.78145C731.238 2.32803 731.22 1.87332 731.318 1.41945C731.023 1.62054 730.759 1.82501 730.541 2.02948C730.401 1.7608 730.237 1.4938 730.02 1.23019C729.855 1.72914 729.544 2.22528 729.087 2.71555L728.309 1.32482L727.111 3.21235L727.368 0.939542L725.704 2.67837C725.75 2.56515 725.812 2.45362 725.844 2.34041C725.999 1.83346 725.968 1.34172 725.96 0.844912C725.533 1.33327 725.128 1.82163 724.56 2.29478C724.07 2.6902 723.511 3.08731 722.958 3.48611C722.979 3.09224 723.241 2.70072 723.736 2.32182C724.033 2.06476 724.259 1.80406 724.413 1.54112C724.576 1.27766 724.508 1.00985 724.211 0.751972C724.286 1.00914 724.138 1.26709 723.775 1.51239C723.416 1.75767 722.99 1.99805 722.5 2.23226C722.212 2.38096 721.916 2.53305 721.636 2.68682V1.87908L720.26 2.83383C719.887 2.27068 719.838 1.69968 720.112 1.13387C719.711 1.42087 719.396 1.71327 719.171 2.0092C719.03 1.77691 718.825 1.54668 718.557 1.31975C718.538 1.5868 718.437 1.85326 718.253 2.11735C718.15 1.84903 717.963 1.58255 717.694 1.31975C717.657 1.91229 717.209 2.50022 716.364 3.06365V1.88077L715.283 2.62768C715.547 1.75235 715.967 0.875329 716.543 0.00168982C715.469 0.77056 714.528 1.55126 713.704 2.33872C713.704 2.32689 713.704 2.31506 713.704 2.30154C713.533 2.06834 713.3 1.8436 713.097 1.62561C712.895 1.40762 712.701 1.17443 712.522 0.949681C712.522 1.1795 712.46 1.411 712.444 1.64082C712.429 1.87063 712.444 2.10214 712.397 2.31675C712.358 2.46124 712.28 2.60512 712.164 2.74765C712.055 2.21198 712.04 1.67124 712.164 1.13049C711.83 1.40762 711.55 1.68982 711.278 1.9754C711.013 1.6932 710.725 1.411 710.399 1.13049C710.508 1.67124 710.492 2.21198 710.399 2.74765C710.283 2.60512 710.205 2.46124 710.166 2.31675C710.111 2.09369 710.127 1.86219 710.119 1.64082C710.111 1.41945 710.119 1.1795 710.041 0.949681C709.862 1.17612 709.676 1.40255 709.466 1.62561C709.256 1.84867 709.03 2.0751 708.867 2.30154V2.33872C708.043 1.55126 707.102 0.77056 706.028 0.00168982C706.612 0.875329 707.024 1.75235 707.288 2.62768L706.114 1.88077V3.06365C705.273 2.50002 704.824 1.91221 704.784 1.31975C704.518 1.5827 704.331 1.84913 704.224 2.11735C704.041 1.85326 703.939 1.5868 703.921 1.31975C703.686 1.54769 703.515 1.77849 703.408 2.01089C703.18 1.71492 702.863 1.42252 702.459 1.13556C702.732 1.70133 702.685 2.27224 702.319 2.83552L700.934 1.88077V2.68851C700.654 2.53474 700.367 2.38265 700.071 2.23395C699.576 2.00257 699.145 1.76502 698.78 1.52253C698.417 1.27722 698.269 1.01927 698.345 0.762111C698.055 1.02024 697.987 1.28774 698.143 1.55126C698.296 1.8142 698.522 2.0749 698.819 2.33196C699.314 2.71087 699.576 3.10238 699.597 3.49625C699.045 3.09745 698.477 2.70034 697.987 2.31337C697.419 1.84022 697.015 1.35186 696.587 0.8635C696.587 1.36031 696.587 1.85543 696.704 2.35899C696.743 2.4739 696.797 2.58543 696.844 2.69696L695.18 0.95813L695.444 3.23094L694.348 1.33496L693.57 2.72569C693.113 2.23542 692.801 1.73928 692.637 1.24033C692.419 1.50394 692.256 1.77094 692.123 2.03962C691.874 1.83515 691.61 1.63068 691.346 1.42959C691.448 1.88344 691.43 2.3382 691.291 2.79159L690.078 1.94668C689.954 1.74052 689.806 1.53436 689.619 1.33158C689.619 1.38397 689.557 1.43635 689.534 1.48873C689.534 1.43466 689.448 1.3789 689.394 1.31975C689.215 1.1288 688.989 0.944612 688.756 0.758731C688.868 1.13286 688.747 1.50855 688.398 1.8757L687.621 2.42321C687.621 2.43335 687.621 2.44349 687.582 2.45362L686.625 1.51239V2.05483C686.444 1.80923 686.153 1.56811 685.754 1.33496C685.381 1.10514 684.977 0.880398 684.557 0.659031C685.048 1.1225 685.309 1.59613 685.334 2.07172C685.334 2.17818 685.241 2.28464 685.163 2.3911C684.71 2.16397 684.33 1.9302 684.028 1.69151C684.028 1.73038 684.028 1.76925 684.028 1.80811L683.561 1.50394V3.02478C682.79 2.5077 682.479 1.9635 682.643 1.42114C681.975 1.80776 681.556 2.21267 681.399 2.6243C680.935 2.32134 680.617 2.00874 680.45 1.69151C680.28 1.9229 680.192 2.15678 680.186 2.3911L679.712 2.93353L678.701 2.18832C678.646 1.99192 678.646 1.79498 678.701 1.59857C678.537 1.69489 678.397 1.79459 678.265 1.89429L677.736 1.50563V2.23564C677.135 1.65569 677.019 1.05695 677.394 0.468081C677.086 0.651159 676.826 0.837906 676.616 1.02741L676.562 0.846602L676.259 1.43973C676.113 1.62372 676.014 1.80932 675.963 1.99568L674.75 0.47484V2.06158C674.442 1.61963 674.008 1.18225 673.451 0.751972C673.451 1.06121 673.451 1.36707 673.319 1.67124L672.619 1.1288L673.008 2.33703C672.946 2.43673 672.86 2.53474 672.782 2.63444C672.264 2.13873 671.91 1.63555 671.725 1.1288C671.507 1.43466 671.375 1.74559 671.281 2.05652C671.103 1.81318 670.947 1.56647 670.846 1.31806C670.478 1.85617 670.301 2.39965 670.317 2.94367L668.373 1.69151L668.474 2.24578C668.233 2.03286 668.007 1.81825 667.829 1.60195C667.681 1.97033 667.619 2.34548 667.634 2.72062C667.059 2.35337 666.592 1.97861 666.234 1.59857C666.234 1.76756 666.188 1.92302 666.188 2.08693L665.597 1.67799V1.59857V1.63237L665.41 1.50394V1.78445L664.788 2.27112L663.676 1.50394V2.32858L662.362 1.03417L662.159 2.08017L661.942 1.60195L661.319 2.27788L660.487 1.31806L660.402 1.55633L659.842 1.03079L659.725 2.36744L658.706 1.60195L658.496 2.58205C657.921 2.16501 657.541 1.73645 657.361 1.30285C657.359 1.18037 657.387 1.05796 657.447 0.936162C657.387 0.971062 657.335 1.00659 657.291 1.04262C657.291 0.976718 657.291 0.912505 657.244 0.848292C657.143 0.980098 657.066 1.11359 657.003 1.24878C656.343 1.80122 656.269 2.379 656.786 2.9386H656.692C655.985 2.3421 655.339 1.74221 654.779 1.13556C654.779 1.06459 654.779 0.995306 654.841 0.926023C654.779 0.96151 654.732 0.998686 654.678 1.03417C654.421 0.748592 654.173 0.463012 653.947 0.175742C653.947 0.611716 654.04 1.04769 654.134 1.48367C654.134 1.51915 654.087 1.55633 654.064 1.5935C653.877 1.37214 653.714 1.15246 653.581 0.929403C653.19 1.64365 653.06 2.36352 653.193 3.08224C652 2.49167 651.669 1.83586 652.244 1.20315C651.655 1.47138 651.234 1.75555 650.992 2.04807C650.712 1.73714 650.447 1.42621 650.214 1.11359C650.105 1.71517 650.121 2.32182 650.214 2.92677C648.862 2.30715 648.432 1.61132 648.985 0.936162C648.377 1.24767 647.979 1.57664 647.803 1.91288L647.562 1.80642L647.508 1.776V1.78445L647.415 1.74052L647.01 1.31806L646.567 2.45024C646.254 2.04434 646.106 1.63327 646.124 1.22174C645.493 1.71839 645.107 2.2282 644.973 2.74258L643.122 1.03586L643.207 3.05182L641.8 1.31806L641.31 2.56515C641.139 2.46207 640.975 2.35561 640.82 2.25085L640.042 1.31806L639.957 1.54281C639.739 1.31299 639.568 1.08149 639.451 0.846602C639.243 1.37352 639.295 1.90377 639.607 2.42828L639.42 2.89974L638.106 0.939542L637.966 1.59012L637.437 0.941232L637.056 1.91795L636.574 1.31806L635.998 2.78145L634.637 0.753661L634.435 1.65603L634.233 0.753661L632.872 2.78145L632.304 1.31806L631.814 1.91795L631.456 0.941232L630.928 1.59012L630.788 0.939542L629.473 2.89974L629.287 2.42828C629.598 1.90377 629.651 1.37352 629.442 0.846602C629.326 1.08149 629.155 1.31299 628.937 1.54281L628.851 1.31806L628.074 2.25085C627.918 2.35674 627.755 2.46151 627.584 2.56515L627.094 1.31806L625.686 3.05182L625.772 1.03586L623.936 2.74765C623.802 2.23327 623.416 1.72346 622.785 1.22681C622.803 1.63834 622.655 2.04941 622.342 2.45531L621.899 1.32313L621.541 1.7608L621.448 1.80473V1.79628L621.393 1.8267L621.152 1.93316C620.98 1.59676 620.582 1.26768 619.97 0.95644C620.523 1.6316 620.094 2.32743 618.741 2.94705C618.866 2.3421 618.881 1.73545 618.741 1.13387C618.524 1.44649 618.259 1.75742 617.964 2.06834C617.722 1.77582 617.301 1.49166 616.712 1.22343C617.29 1.85611 616.959 2.51215 615.763 3.10252H615.724C615.856 2.3838 615.726 1.66393 615.335 0.949681C615.203 1.17274 615.04 1.39241 614.853 1.61378C614.853 1.57661 614.853 1.53943 614.783 1.50394C614.876 1.06797 614.946 0.631994 614.97 0.19602C614.744 0.48329 614.495 0.76887 614.239 1.05445C614.184 1.01896 614.138 0.981788 614.075 0.946301C614.114 1.01558 614.122 1.08487 614.138 1.15584C613.578 1.76249 612.932 2.36237 612.224 2.95888H612.131C612.646 2.39933 612.575 1.82175 611.921 1.26906C611.851 1.13387 611.773 1.00038 611.672 0.868569C611.672 0.932783 611.672 0.996996 611.633 1.0629C611.579 1.02741 611.532 0.990237 611.478 0.95644C611.532 1.07811 611.556 1.20146 611.556 1.32313C611.383 1.75018 611.015 2.17244 610.459 2.58374L610.249 1.60364L609.215 2.36744L609.098 1.03079L608.538 1.55633L608.453 1.31806L607.628 2.27788L606.998 1.60195L606.781 2.08017L606.571 1.03417L605.256 2.32858V1.50394L604.144 2.27112L603.522 1.78445V1.50394L603.336 1.63237L603.297 1.59857V1.67799L602.682 2.08693C602.682 1.91795 602.682 1.7608 602.636 1.59857C602.278 1.97861 601.811 2.35337 601.236 2.72062C601.236 2.34548 601.189 1.97033 601.041 1.60195C600.863 1.81825 600.637 2.03286 600.396 2.24578L600.497 1.69151L598.522 2.94367C598.546 2.39979 598.377 1.8563 598.016 1.31806C597.915 1.56647 597.76 1.81318 597.581 2.05652C597.487 1.74559 597.355 1.43466 597.137 1.1288C596.952 1.63555 596.598 2.13873 596.08 2.63444C596.002 2.53474 595.916 2.43673 595.854 2.33703L596.243 1.1288L595.543 1.67124C595.442 1.36707 595.388 1.06121 595.411 0.751972C594.86 1.18121 594.431 1.61746 594.128 2.05821V0.471461L592.922 1.9923C592.865 1.80598 592.764 1.62043 592.619 1.43635L592.324 0.846602L592.23 1.03079C592.02 0.841286 591.761 0.654538 591.453 0.471461C591.828 1.06033 591.712 1.65907 591.11 2.23902V1.50901L590.582 1.89767C590.449 1.79797 590.309 1.69827 590.146 1.60195C590.2 1.79836 590.2 1.9953 590.146 2.1917L589.135 2.93691L588.669 2.39448C588.656 2.16015 588.565 1.92633 588.396 1.69489C588.226 2.00812 587.908 2.31672 587.448 2.61585C587.29 2.20442 586.874 1.79962 586.211 1.41269C586.373 1.95515 586.059 2.49936 585.286 3.01634V1.50394L584.842 1.8098C584.842 1.77094 584.842 1.73207 584.842 1.6932C584.565 1.9274 584.214 2.15719 583.792 2.38096C583.715 2.2745 583.652 2.16804 583.621 2.06158C583.647 1.58599 583.907 1.11236 584.399 0.648892C583.987 0.873639 583.575 1.09839 583.201 1.32482C582.803 1.55797 582.511 1.79909 582.33 2.04469V1.50225L581.374 2.44349C581.374 2.43335 581.374 2.42321 581.374 2.41307L580.596 1.86557C580.247 1.49841 580.127 1.12272 580.238 0.748592C580.013 0.934473 579.78 1.11866 579.601 1.30961C579.546 1.362 579.5 1.41776 579.461 1.4786C579.461 1.42621 579.399 1.37383 579.375 1.32144C579.189 1.52422 579.049 1.73038 578.916 1.93654L577.703 2.78145C577.568 2.32803 577.55 1.87332 577.649 1.41945C577.353 1.62054 577.089 1.82501 576.871 2.02948C576.731 1.7608 576.568 1.4938 576.35 1.23019C576.186 1.72914 575.874 2.22528 575.417 2.71555L574.639 1.32482L573.434 3.21235L573.698 0.939542L572.034 2.67837C572.081 2.56515 572.135 2.45362 572.174 2.34041C572.329 1.83346 572.298 1.34172 572.291 0.844912C571.863 1.33327 571.458 1.82163 570.891 2.29478C570.401 2.6902 569.833 3.08731 569.289 3.48611C569.306 3.09218 569.567 2.70054 570.066 2.32182C570.364 2.06476 570.589 1.80406 570.743 1.54112C570.903 1.27763 570.834 1.00997 570.541 0.751972C570.616 1.00914 570.468 1.26709 570.105 1.51239C569.747 1.75767 569.321 1.99805 568.83 2.23226C568.534 2.38096 568.247 2.53305 567.967 2.68682V1.87908L566.582 2.83383C566.217 2.27055 566.17 1.69964 566.442 1.13387C566.039 1.42083 565.722 1.71323 565.494 2.0092C565.386 1.7768 565.215 1.546 564.98 1.31806C564.962 1.58511 564.86 1.85157 564.677 2.11566C564.57 1.84744 564.383 1.58101 564.117 1.31806C564.077 1.91052 563.629 2.49833 562.787 3.06196V1.87908L561.706 2.62599C561.971 1.75066 562.383 0.873639 562.966 0C562.017 0.675929 561.178 1.37214 560.415 2.06834C560.275 1.89936 560.135 1.73038 560.027 1.60026C559.964 1.74728 559.925 1.89767 559.894 2.04638C559.77 1.90274 559.63 1.75911 559.505 1.61716C559.296 1.39241 559.109 1.16598 558.93 0.941232C558.93 1.17105 558.86 1.40255 558.852 1.63237C558.852 1.74897 558.852 1.86557 558.852 1.98047C558.704 1.85374 558.557 1.727 558.432 1.59857C558.432 1.76756 558.386 1.92302 558.386 2.08693L557.795 1.67799V1.59857L557.748 1.63237L557.561 1.50394V1.78445V1.80135C557.336 1.57661 557.102 1.35186 556.838 1.12542C556.9 1.40086 556.885 1.78276 556.838 2.18156L555.85 1.50563V2.33027L554.388 1.03417L554.194 2.08017L553.968 1.60195L553.346 2.27788L552.514 1.31975L552.436 1.55802L551.876 1.03248L551.752 2.36744L550.733 1.60364L550.523 2.58374C549.951 2.16665 549.573 1.73809 549.396 1.30454C549.39 1.1821 549.417 1.05968 549.473 0.937852C549.411 0.971649 549.372 1.00882 549.318 1.04431C549.318 0.978408 549.318 0.914195 549.271 0.849981C549.17 0.981788 549.092 1.11528 549.03 1.25047C548.335 1.83755 548.295 2.45225 548.913 3.04337L548.781 2.99268C548.05 2.38096 547.392 1.76136 546.806 1.13387C546.806 1.0629 546.806 0.993616 546.868 0.924334C546.806 0.95982 546.767 0.996996 546.713 1.03248C546.448 0.746902 546.207 0.461322 545.974 0.174052C545.974 0.610026 546.067 1.046 546.168 1.48198C546.168 1.51746 546.114 1.55464 546.091 1.59181C545.912 1.37045 545.748 1.15077 545.616 0.927713C545.235 1.61838 545.1 2.31439 545.212 3.00958H545.048C543.98 2.43525 543.709 1.80545 544.271 1.19809C543.681 1.46609 543.262 1.75036 543.026 2.043C542.746 1.73207 542.482 1.42114 542.249 1.10852C542.14 1.7101 542.163 2.31675 542.249 2.92171C540.903 2.30165 540.476 1.60609 541.028 0.931093C540.412 1.24206 540.014 1.57127 539.846 1.90781L539.597 1.80135L539.55 1.77094V1.77938L539.449 1.73545L539.099 1.29778L538.648 2.42997C538.336 2.02406 538.187 1.61299 538.205 1.20146C537.577 1.69817 537.194 2.20799 537.062 2.72231L535.219 1.03586L535.304 3.07379L533.889 1.31806L533.399 2.56515C533.22 2.46207 533.057 2.35561 532.901 2.25085L532.123 1.31806L532.038 1.54281C531.82 1.31299 531.649 1.08149 531.532 0.846602C531.332 1.37357 531.384 1.90365 531.688 2.42828L531.509 2.89974L530.195 0.939542L530.047 1.59012L529.58 0.941232L529.192 1.91795L528.709 1.31806L528.134 2.78145L526.773 0.753661L526.571 1.65603L526.376 0.753661L525.015 2.78145L524.44 1.31806L523.958 1.91795L523.569 0.941232L523.048 1.59012L522.9 0.939542L521.71 2.71555H521.516L521.399 2.43504C521.701 1.90806 521.746 1.37561 521.531 0.846602C521.415 1.08149 521.244 1.31299 521.026 1.54281L520.933 1.31806L520.155 2.25085C520.007 2.3573 519.836 2.46207 519.665 2.56515L519.175 1.31806L518.078 2.70541L517.791 2.72062L517.868 1.03079L516.025 2.74258C515.893 2.22826 515.51 1.71845 514.882 1.22174C514.9 1.63327 514.751 2.04434 514.439 2.45024L514.027 1.31806L513.677 1.75573L513.576 1.79966V1.79121L513.521 1.82163L513.28 1.92809C513.112 1.59154 512.714 1.26234 512.098 0.951371C512.637 1.62724 512.197 2.32283 510.838 2.94198C510.955 2.33703 510.97 1.73038 510.838 1.1288C510.613 1.44142 510.348 1.75235 510.061 2.06327C509.821 1.77083 509.403 1.48666 508.816 1.21836C509.35 1.8154 509.08 2.43322 508.039 2.99775L507.821 2.98254C507.925 2.30142 507.79 1.61957 507.416 0.942922C507.284 1.16598 507.121 1.38566 506.942 1.60702C506.942 1.56985 506.895 1.53267 506.864 1.49718C506.965 1.06121 507.035 0.625235 507.051 0.18926C506.823 0.47653 506.579 0.762674 506.32 1.04769C506.266 1.0122 506.227 0.975028 506.164 0.939542C506.164 1.00882 506.211 1.07811 506.227 1.14908C505.729 1.68475 505.169 2.21874 504.555 2.74765L504.391 2.73582C504.713 2.24054 504.581 1.73631 504.002 1.25216C503.94 1.11697 503.855 0.983477 503.754 0.851671C503.754 0.915885 503.754 0.980098 503.715 1.046C503.66 1.01051 503.614 0.973339 503.559 0.939542C503.616 1.06137 503.642 1.18379 503.637 1.30623C503.46 1.73978 503.082 2.16834 502.509 2.58543L502.362 1.60364L501.335 2.36744L501.211 1.03079L500.651 1.55633L500.573 1.31806L499.741 2.27788L499.119 1.60195L498.893 2.08017L498.699 1.03417L497.384 2.32858V1.50394L496.28 2.27112L495.658 1.78445V1.50394L495.471 1.63237L495.425 1.59857V1.67799L494.834 2.08693C494.834 1.91795 494.834 1.7608 494.787 1.59857C494.423 1.97846 493.953 2.35317 493.379 2.72062C493.404 2.34725 493.34 1.97385 493.185 1.60195C493.006 1.81825 492.788 2.03286 492.547 2.24578L492.648 1.69151L490.665 2.94367C490.685 2.39963 490.509 1.85608 490.136 1.31806C490.035 1.56647 489.88 1.81318 489.701 2.05652C489.608 1.74559 489.475 1.43466 489.265 1.1288C489.077 1.63559 488.721 2.13877 488.2 2.63444C488.122 2.53474 488.044 2.43673 487.982 2.33703L488.363 1.1288L487.671 1.67124C487.57 1.36707 487.516 1.06121 487.539 0.751972C486.986 1.18105 486.56 1.61734 486.264 2.05821V0.471461L485.05 1.9923C484.995 1.80601 484.897 1.62045 484.755 1.43635L484.475 0.846602L484.374 1.03079C484.167 0.841076 483.908 0.654283 483.596 0.471461C483.974 1.06023 483.861 1.65897 483.262 2.23902V1.50901L482.733 1.89767C482.593 1.79797 482.453 1.69827 482.29 1.60195C482.357 1.79819 482.37 1.99513 482.328 2.1917L481.318 2.93691L480.851 2.39448C480.838 2.15911 480.75 1.92421 480.586 1.69151C480.408 2.00446 480.091 2.3129 479.638 2.61247C479.477 2.20097 479.059 1.79617 478.393 1.40931C478.556 1.95276 478.245 2.498 477.476 3.01634L477.437 1.50394L476.994 1.8098C476.994 1.77094 476.994 1.73207 476.994 1.6932C476.702 1.92706 476.343 2.15675 475.92 2.38096C475.843 2.2745 475.78 2.16804 475.749 2.06158C475.771 1.58593 476.031 1.11221 476.527 0.648892C476.123 0.873639 475.71 1.09839 475.337 1.32482C474.935 1.55772 474.643 1.79892 474.466 2.04469V1.50225L473.51 2.44349C473.51 2.43335 473.51 2.42321 473.51 2.41307L472.732 1.86557C472.376 1.49861 472.253 1.1228 472.366 0.748592C472.141 0.934473 471.915 1.11866 471.729 1.30961C471.674 1.362 471.628 1.41776 471.589 1.4786C471.589 1.42621 471.527 1.37383 471.511 1.32144C471.324 1.52422 471.177 1.73038 471.052 1.93654L469.831 2.78145C469.673 2.32605 469.629 1.86913 469.699 1.41269C469.411 1.61378 469.147 1.81825 468.921 2.02272C468.781 1.75404 468.626 1.48704 468.4 1.22343C468.231 1.72145 467.912 2.21651 467.444 2.70541L466.666 1.31468L465.554 3.21235L465.811 0.941232L464.146 2.68006C464.193 2.56684 464.247 2.45531 464.286 2.3421C464.434 1.83515 464.403 1.34341 464.395 0.846602C463.975 1.33496 463.563 1.82332 462.995 2.29647C462.505 2.69527 461.938 3.09576 461.378 3.49794C461.392 3.10119 461.654 2.70669 462.155 2.3252C462.449 2.06796 462.675 1.80731 462.832 1.5445C462.988 1.28098 462.919 1.01348 462.63 0.755351C462.701 1.01249 462.554 1.27028 462.194 1.51577C461.832 1.76078 461.407 2.00113 460.919 2.23564C460.623 2.38434 460.328 2.53643 460.056 2.6902V1.88246L458.679 2.83721C458.306 2.27406 458.259 1.70295 458.539 1.13725C458.135 1.42421 457.818 1.71661 457.59 2.01258C457.479 1.78028 457.308 1.54954 457.077 1.32144C457.056 1.58852 456.952 1.85499 456.766 2.11904C456.663 1.85072 456.476 1.58424 456.206 1.32144C456.183 1.64512 456.037 1.96783 455.771 2.28633C455.771 1.90274 455.771 1.51746 455.833 1.13218C455.46 1.4448 455.149 1.7608 454.853 2.07848V1.88077L453.889 2.53643C453.889 2.48911 453.842 2.44349 453.826 2.39786C454.091 1.60195 454.48 0.804356 455.009 0.0101389C454.534 0.348104 454.099 0.686068 453.679 1.02403C453.679 1.00207 453.679 0.978408 453.679 0.95475C453.609 1.04093 453.531 1.12373 453.461 1.21329C453.057 1.54281 452.683 1.87232 452.326 2.20522C451.548 1.46677 450.654 0.736763 449.643 0.00844912C450.226 0.882088 450.638 1.75911 450.902 2.63444L449.821 1.88753V3.07041C448.964 2.50506 448.503 1.91491 448.453 1.31975C448.187 1.5827 448 1.84913 447.893 2.11735C447.709 1.85326 447.608 1.5868 447.589 1.31975C447.355 1.54769 447.183 1.77849 447.076 2.01089C446.848 1.71492 446.531 1.42252 446.127 1.13556C446.4 1.70133 446.353 2.27224 445.987 2.83552L444.603 1.88077V2.68851C444.323 2.53474 444.036 2.38265 443.74 2.23395C443.256 2.00242 442.835 1.76487 442.48 1.52253C442.117 1.27722 441.969 1.01927 442.045 0.762111C441.755 1.02024 441.687 1.28774 441.842 1.55126C441.996 1.8142 442.222 2.0749 442.519 2.33196C443.014 2.71087 443.276 3.10238 443.297 3.49625C442.745 3.09745 442.177 2.70034 441.687 2.31337C441.119 1.84022 440.715 1.35186 440.287 0.8635C440.287 1.36031 440.287 1.85543 440.404 2.35899C440.404 2.4739 440.497 2.58543 440.544 2.69696L438.825 0.941232L439.089 3.21235L437.993 1.31806L437.215 2.70879C436.754 2.21849 436.434 1.7224 436.259 1.22343C436.041 1.48704 435.878 1.75404 435.745 2.02272C435.497 1.81825 435.232 1.61378 434.968 1.41269C435.07 1.86654 435.052 2.3213 434.913 2.77469L433.7 1.92978C433.576 1.72362 433.428 1.51746 433.241 1.31468C433.241 1.36707 433.187 1.41945 433.156 1.47184C433.117 1.41776 433.07 1.362 433.016 1.30285C432.837 1.1119 432.611 0.927713 432.378 0.741833C432.49 1.11596 432.37 1.49165 432.02 1.85881L431.243 2.40631C431.243 2.41645 431.243 2.42659 431.243 2.43673L430.239 1.50563V2.04807C430.059 1.80247 429.767 1.56135 429.368 1.3282C428.995 1.09839 428.591 0.873639 428.171 0.652272C428.663 1.11574 428.923 1.58937 428.948 2.06496C428.948 2.17142 428.855 2.27788 428.777 2.38434C428.347 2.15905 427.988 1.92756 427.704 1.69151C427.704 1.73038 427.704 1.76925 427.704 1.80811L427.261 1.50225V3.02309C426.49 2.50601 426.179 1.96181 426.343 1.41945C425.674 1.80607 425.256 2.21098 425.099 2.62261C424.617 2.32063 424.281 2.00859 424.096 1.69151C423.925 1.9229 423.837 2.15678 423.831 2.3911L423.357 2.93353L422.346 2.19846C422.292 2.00205 422.292 1.80512 422.346 1.60871C422.183 1.70503 422.043 1.80473 421.91 1.90443L421.382 1.51577V2.24578C420.78 1.66583 420.664 1.06709 421.039 0.47822C420.732 0.661298 420.472 0.848045 420.262 1.03755L420.2 0.846602L419.927 1.43973C419.782 1.62372 419.683 1.80932 419.632 1.99568L418.419 0.47484L418.458 2.06158C418.157 1.62087 417.731 1.18463 417.182 0.755351C417.182 1.06459 417.182 1.37045 417.05 1.67462L416.35 1.13218L416.739 2.34041C416.677 2.44011 416.591 2.53812 416.513 2.63781C415.995 2.14211 415.641 1.63893 415.456 1.13218C415.238 1.43804 415.106 1.74897 415.012 2.0599C414.834 1.81656 414.678 1.56985 414.577 1.32144C414.212 1.85964 414.036 2.40306 414.048 2.94705L412.042 1.69151L412.143 2.24578C411.902 2.03286 411.676 1.81825 411.497 1.60195C411.35 1.97033 411.287 2.34548 411.303 2.72062C410.728 2.35337 410.261 1.97861 409.903 1.59857C409.864 1.76756 409.856 1.92302 409.856 2.08693L409.265 1.67799V1.59857V1.63237L409.04 1.50394V1.78445L408.418 2.27112L407.306 1.50394V2.32858L405.929 1.03417L405.727 2.08017L405.509 1.60195L404.887 2.27788L404.07 1.31975L403.985 1.55802L403.425 1.03248L403.308 2.36744L402.29 1.60195L402.08 2.58205C401.504 2.16501 401.124 1.73645 400.944 1.30285C400.942 1.18037 400.97 1.05796 401.03 0.936162C400.97 0.971062 400.918 1.00659 400.874 1.04262C400.874 0.976718 400.874 0.912505 400.828 0.848292C400.726 0.980098 400.649 1.11359 400.586 1.24878C399.926 1.80122 399.852 2.379 400.369 2.9386H400.275C399.568 2.3421 398.922 1.74221 398.362 1.13556C398.362 1.06459 398.362 0.995306 398.424 0.926023C398.362 0.96151 398.316 0.998686 398.261 1.03417C398.005 0.748592 397.756 0.463012 397.53 0.175742C397.53 0.611716 397.624 1.04769 397.725 1.48367C397.686 1.51915 397.67 1.55633 397.647 1.5935C397.46 1.37214 397.297 1.15246 397.165 0.929403C396.777 1.64372 396.647 2.36352 396.776 3.08224H396.737C395.567 2.49499 395.247 1.84436 395.819 1.21667C395.23 1.4849 394.809 1.76907 394.567 2.06158C394.287 1.75066 394.023 1.43973 393.79 1.12711C393.681 1.72869 393.696 2.33534 393.79 2.94029C392.441 2.32042 392.012 1.62486 392.561 0.949681C391.952 1.26118 391.554 1.59016 391.379 1.9264L391.138 1.81994L391.083 1.78952V1.79797L390.99 1.75404L390.632 1.31637L390.189 2.44855C389.876 2.04265 389.728 1.63158 389.746 1.22005C389.115 1.7167 388.729 2.22651 388.595 2.74089L386.775 1.03586L386.86 3.05182L385.437 1.31806L384.932 2.56515C384.761 2.46207 384.597 2.35561 384.442 2.25085L383.664 1.31806L383.579 1.54281C383.361 1.31299 383.19 1.08149 383.073 0.846602C382.869 1.37355 382.921 1.90371 383.229 2.42828L383.042 2.89974L381.728 0.939542L381.588 1.59012L381.059 0.941232L380.678 1.91795L380.266 1.31806L379.69 2.78145L378.329 0.753661L378.127 1.65603L377.933 0.750282L376.572 2.77807L376.004 1.31468L375.514 1.91457L375.133 0.937852L374.604 1.58674L374.464 0.936162L373.15 2.89636L372.963 2.4249C373.275 1.90039 373.327 1.37014 373.119 0.843222C373.002 1.07811 372.831 1.30961 372.613 1.53943L372.489 1.31806L371.711 2.25085C371.556 2.35674 371.392 2.46151 371.221 2.56515L370.731 1.31806L369.378 3.05182L369.464 1.03586L367.628 2.74765C367.494 2.23327 367.108 1.72346 366.477 1.22681C366.495 1.63834 366.347 2.04941 366.034 2.45531L365.591 1.32313L365.233 1.7608L365.14 1.80473V1.79628L365.085 1.8267L364.844 1.93316C364.672 1.59676 364.274 1.26768 363.662 0.95644C364.189 1.6312 363.741 2.32487 362.379 2.94198C362.496 2.33703 362.511 1.73038 362.379 1.1288C362.161 1.44142 361.897 1.75235 361.601 2.06327C361.359 1.77076 360.938 1.48659 360.349 1.21836C360.928 1.85104 360.597 2.50708 359.401 3.09745C359.533 2.37873 359.403 1.65886 359.012 0.944611C358.879 1.16767 358.716 1.38735 358.537 1.60871C358.537 1.57154 358.491 1.53436 358.46 1.49887C358.553 1.0629 358.623 0.626925 358.646 0.19095C358.421 0.47822 358.172 0.7638 357.915 1.04938C357.861 1.01389 357.814 0.976718 357.752 0.941232C357.752 1.01051 357.798 1.0798 357.814 1.15077C357.254 1.75742 356.609 2.3573 355.901 2.95381H355.808C356.323 2.39426 356.251 1.81668 355.598 1.26399C355.528 1.1288 355.45 0.995306 355.349 0.8635C355.349 0.927713 355.349 0.991927 355.31 1.05783C355.255 1.02234 355.209 0.985167 355.154 0.951371C355.209 1.07304 355.232 1.1964 355.232 1.31806C355.052 1.75166 354.672 2.18022 354.097 2.59726L353.887 1.61716L352.884 2.36744L352.767 1.03079L352.207 1.55633L352.121 1.31806L351.297 2.27788L350.667 1.60195L350.449 2.08017L350.247 1.03417L348.933 2.32858V1.50394L347.821 2.27112L347.199 1.78445V1.50394L347.012 1.63237L346.973 1.59857V1.67799L346.382 2.08693C346.382 1.91795 346.382 1.7608 346.335 1.59857C345.978 1.97861 345.51 2.35337 344.936 2.72062C344.936 2.34548 344.889 1.97033 344.741 1.60195C344.562 1.81825 344.337 2.03286 344.104 2.24578L344.197 1.69151L342.159 2.94367C342.176 2.39965 341.999 1.85617 341.631 1.31806C341.529 1.56647 341.374 1.81318 341.195 2.05652C341.102 1.74559 340.969 1.43466 340.752 1.1288C340.566 1.63555 340.213 2.13873 339.694 2.63444C339.616 2.53474 339.531 2.43673 339.469 2.33703L339.857 1.1288L339.158 1.67124C339.056 1.36707 339.002 1.06121 339.025 0.751972C338.477 1.18125 338.051 1.61749 337.75 2.05821V0.471461L336.544 1.9923C336.491 1.80591 336.39 1.6203 336.241 1.43635L335.992 0.846602L335.938 1.03079C335.728 0.841286 335.468 0.654538 335.16 0.471461C335.535 1.06033 335.42 1.65907 334.818 2.23902V1.50901L334.289 1.89767C334.157 1.79797 334.017 1.69827 333.854 1.60195C333.908 1.79836 333.908 1.9953 333.854 2.1917L332.827 2.93691L332.361 2.39448C332.348 2.16015 332.257 1.92633 332.088 1.69489C331.918 2.00812 331.6 2.31672 331.14 2.61585C330.982 2.20442 330.566 1.79962 329.903 1.41269C330.065 1.95515 329.751 2.49936 328.978 3.01634V1.50394L328.534 1.8098V1.69151C328.251 1.92552 327.898 2.15526 327.477 2.37927C327.399 2.27281 327.337 2.16635 327.306 2.0599C327.331 1.5843 327.592 1.11067 328.083 0.647202C327.671 0.871949 327.267 1.0967 326.886 1.32313C326.487 1.55628 326.195 1.7974 326.015 2.043V1.50056L325.058 2.4418C325.058 2.43166 325.058 2.42152 325.058 2.41138L324.28 1.86388C323.931 1.49672 323.811 1.12103 323.923 0.746902C323.697 0.932783 323.464 1.11697 323.285 1.30792C323.231 1.36031 323.184 1.41607 323.145 1.47691C323.145 1.42452 323.083 1.37214 323.06 1.31975C322.873 1.52253 322.733 1.72869 322.601 1.93485L321.387 2.77976C321.253 2.32634 321.234 1.87163 321.333 1.41776C321.038 1.61885 320.773 1.82332 320.555 2.02779C320.415 1.75911 320.252 1.49211 320.034 1.2285C319.87 1.72745 319.558 2.22359 319.101 2.71386L318.323 1.32313L317.102 3.21235L317.367 0.939542L315.718 2.68006C315.765 2.56684 315.819 2.45531 315.858 2.3421C316.014 1.83515 315.983 1.34341 315.975 0.846602C315.547 1.33496 315.143 1.82332 314.575 2.29647C314.085 2.69189 313.517 3.089 312.973 3.4878C312.99 3.09386 313.252 2.70223 313.751 2.32351C314.048 2.06645 314.274 1.80575 314.427 1.54281C314.567 1.27848 314.477 1.01081 314.163 0.753661C314.238 1.01083 314.09 1.26878 313.727 1.51408C313.369 1.75936 312.943 1.99974 312.452 2.23395C312.156 2.38265 311.869 2.53474 311.589 2.68851V1.88077L310.204 2.83552C309.839 2.27224 309.792 1.70133 310.064 1.13556C309.661 1.42252 309.344 1.71492 309.116 2.01089C309.008 1.77849 308.837 1.54769 308.602 1.31975C308.584 1.5868 308.483 1.85326 308.299 2.11735C308.192 1.84913 308.005 1.5827 307.739 1.31975C307.691 1.91247 307.235 2.50029 306.386 3.06365V1.88077L305.305 2.62768C305.569 1.75235 305.982 0.875329 306.565 0.00168982C305.492 0.77056 304.551 1.55126 303.726 2.33872C303.73 2.32633 303.73 2.31392 303.726 2.30154C303.563 2.06834 303.33 1.8436 303.128 1.62561C302.925 1.40762 302.731 1.17443 302.552 0.949681C302.552 1.1795 302.482 1.411 302.474 1.64082C302.466 1.87063 302.474 2.10214 302.428 2.31675C302.388 2.46124 302.31 2.60512 302.194 2.74765C302.085 2.21198 302.07 1.67124 302.194 1.13049C301.86 1.40762 301.572 1.68982 301.308 1.9754C301.043 1.6932 300.756 1.411 300.421 1.13049C300.538 1.67124 300.522 2.21198 300.421 2.74765C300.305 2.60512 300.227 2.46124 300.188 2.31675C300.133 2.09369 300.149 1.86219 300.141 1.64082C300.133 1.41945 300.141 1.1795 300.063 0.949681C299.885 1.17612 299.698 1.40255 299.488 1.62561C299.278 1.84867 299.052 2.0751 298.889 2.30154C298.886 2.31392 298.886 2.32633 298.889 2.33872C297.995 1.55126 297.054 0.77056 295.981 0.00168982C296.556 0.875329 296.976 1.75235 297.241 2.62768L296.16 1.88077V3.06365C295.308 2.50037 294.849 1.91256 294.799 1.31975C294.533 1.5827 294.346 1.84913 294.239 2.11735C294.058 1.85323 293.959 1.58676 293.943 1.31975C293.709 1.54769 293.537 1.77849 293.43 2.01089C293.198 1.71509 292.881 1.42274 292.481 1.13556C292.754 1.70133 292.707 2.27224 292.341 2.83552L290.957 1.88077V2.68851C290.677 2.53474 290.389 2.38265 290.094 2.23395C289.596 2.00261 289.163 1.76505 288.795 1.52253C288.432 1.27722 288.284 1.01927 288.359 0.762111C288.062 1.01999 287.994 1.2878 288.157 1.55126C288.311 1.8142 288.537 2.0749 288.834 2.33196C289.329 2.71086 289.591 3.10238 289.611 3.49625C289.067 3.09745 288.499 2.70034 288.009 2.31337C287.442 1.84022 287.037 1.35186 286.61 0.8635C286.61 1.36031 286.61 1.85543 286.726 2.35899C286.726 2.4739 286.82 2.58543 286.866 2.69696L285.171 0.941232L285.428 3.21235L284.339 1.31637L283.561 2.7071C283.104 2.21683 282.792 1.72069 282.628 1.22174C282.41 1.48535 282.247 1.75235 282.107 2.02103C281.866 1.81656 281.601 1.61209 281.329 1.411C281.428 1.86487 281.41 2.31958 281.275 2.773L280.062 1.92809C279.929 1.72193 279.789 1.51577 279.603 1.31299C279.603 1.36538 279.541 1.41776 279.517 1.47015C279.517 1.41607 279.432 1.36031 279.377 1.30116C279.198 1.11021 278.965 0.926023 278.74 0.740143C278.851 1.11427 278.731 1.48996 278.382 1.85712L277.604 2.40462C277.604 2.41476 277.604 2.4249 277.565 2.43504L276.585 1.50563V2.04807C276.401 1.80264 276.109 1.5616 275.714 1.3282C275.333 1.09839 274.937 0.873639 274.517 0.652272C275.012 1.11559 275.273 1.58931 275.294 2.06496C275.267 2.17199 275.212 2.27861 275.131 2.38434C274.696 2.15888 274.33 1.92744 274.035 1.69151V1.80811L273.591 1.50225L273.552 3.02309C272.779 2.50612 272.465 1.96191 272.627 1.41945C271.967 1.80423 271.551 2.20671 271.39 2.61585C270.929 2.31562 270.611 2.00588 270.442 1.69151C270.273 1.92295 270.182 2.15677 270.169 2.3911L269.703 2.93353L268.692 2.19846C268.65 2.00189 268.663 1.80495 268.731 1.60871C268.567 1.70503 268.427 1.80473 268.295 1.90443L267.766 1.51577V2.24578C267.171 1.66562 267.058 1.06703 267.432 0.47822C267.124 0.661298 266.864 0.848045 266.654 1.03755L266.545 0.846602L266.242 1.43973C266.096 1.62372 265.998 1.80932 265.947 1.99568L264.741 0.47484V2.06158C264.447 1.62076 264.024 1.18446 263.474 0.755351C263.474 1.06459 263.474 1.37045 263.341 1.67462L262.641 1.13218L263.03 2.34041C262.96 2.44011 262.883 2.53812 262.805 2.63781C262.287 2.142 261.931 1.63888 261.739 1.13218C261.529 1.43804 261.397 1.74897 261.304 2.0599C261.125 1.81656 260.969 1.56985 260.868 1.32144C260.5 1.85955 260.323 2.40303 260.34 2.94705L258.388 1.69151L258.481 2.24578C258.248 2.03286 258.022 1.81825 257.843 1.60195C257.695 1.97033 257.633 2.34548 257.649 2.72062C257.075 2.35317 256.605 1.97846 256.241 1.59857C256.241 1.76756 256.241 1.92302 256.241 2.08693L255.65 1.67799V1.59857L255.603 1.63237L255.417 1.50394V1.78445L254.795 2.27112L253.683 1.50394V2.32858L252.368 1.03417L252.166 2.08017L251.948 1.60195L251.318 2.27788L250.393 1.31975L250.307 1.55802L249.771 1.03248L249.654 2.36744L248.635 1.60195L248.425 2.58205C247.848 2.16562 247.465 1.73763 247.282 1.30454C247.282 1.18288 247.282 1.05952 247.36 0.937852C247.306 0.971649 247.259 1.00882 247.205 1.04431C247.205 0.978408 247.205 0.914195 247.205 0.849981C247.103 0.981788 247.026 1.11528 246.956 1.25047C246.303 1.80315 246.229 2.38055 246.738 2.94029H246.652C245.937 2.34435 245.299 1.74333 244.739 1.13725C244.739 1.06628 244.739 0.996996 244.794 0.927713C244.739 0.9632 244.693 1.00038 244.638 1.03586C244.382 0.750282 244.133 0.464702 243.907 0.177431C243.907 0.613406 244.001 1.04938 244.094 1.48536C244.094 1.52084 244.047 1.55802 244.016 1.59519C243.837 1.37383 243.674 1.15415 243.542 0.931093C243.15 1.64534 243.02 2.36521 243.153 3.08393C241.957 2.49356 241.625 1.83752 242.204 1.20484C241.612 1.47278 241.19 1.75705 240.952 2.04976C240.672 1.73883 240.408 1.4279 240.174 1.11528C240.065 1.71686 240.081 2.32351 240.174 2.92846C238.829 2.30841 238.402 1.61285 238.953 0.937852C238.341 1.24909 237.943 1.57818 237.771 1.91457L237.53 1.80811L237.476 1.77769V1.78614L237.375 1.74221L237.025 1.30454L236.581 2.43673C236.27 2.03077 236.119 1.61977 236.13 1.20822C235.506 1.70511 235.123 2.21484 234.987 2.72907L233.113 1.03586L233.206 3.05182L231.783 1.31806L231.293 2.56515C231.122 2.46207 230.959 2.35561 230.803 2.25085L230.026 1.31806L229.94 1.54281C229.722 1.31299 229.551 1.08149 229.435 0.846602C229.226 1.37352 229.278 1.90377 229.59 2.42828L229.396 2.89974L228.081 0.939542L227.941 1.59012L227.413 0.941232L227.063 1.91795L226.573 1.31806L226.005 2.78145L224.636 0.753661L224.442 1.65603L224.24 0.753661L222.879 2.78145L222.303 1.31806L221.821 1.91795L221.44 0.941232L220.911 1.59012L220.771 0.939542L219.457 2.89974L219.286 2.42828C219.594 1.90371 219.646 1.37355 219.441 0.846602C219.325 1.08149 219.154 1.31299 218.936 1.54281L218.85 1.31806L218.073 2.25085C217.917 2.35674 217.754 2.46151 217.583 2.56515L217.093 1.31806L215.685 3.05182L215.771 1.03586L213.935 2.74765C213.801 2.23327 213.415 1.72346 212.784 1.22681C212.802 1.63834 212.654 2.04941 212.341 2.45531L211.898 1.32313L211.509 1.75573L211.416 1.79966V1.79121L211.361 1.82163L211.12 1.92809C210.953 1.59187 210.56 1.2628 209.954 0.951371C210.509 1.62635 210.082 2.32218 208.733 2.94198C208.849 2.33703 208.873 1.73038 208.733 1.1288C208.515 1.44142 208.251 1.75235 207.955 2.06327C207.713 1.77076 207.292 1.48659 206.703 1.21836C207.278 1.85107 206.947 2.50688 205.754 3.09745H205.715C205.844 2.37873 205.714 1.65893 205.326 0.944611C205.194 1.16767 205.031 1.38735 204.844 1.60871C204.844 1.57154 204.798 1.53436 204.767 1.49887C204.868 1.0629 204.938 0.626925 204.961 0.19095C204.735 0.47822 204.487 0.7638 204.23 1.04938C204.175 1.01389 204.129 0.976718 204.067 0.941232C204.105 1.01051 204.113 1.0798 204.129 1.15077C203.569 1.75742 202.923 2.3573 202.216 2.95381H202.122C202.639 2.39421 202.565 1.81643 201.905 1.26399C201.842 1.1288 201.765 0.995306 201.664 0.8635C201.664 0.927713 201.664 0.991927 201.617 1.05783C201.573 1.0218 201.521 0.98627 201.461 0.951371C201.518 1.0732 201.544 1.19561 201.539 1.31806C201.362 1.7516 200.984 2.18017 200.411 2.59726L200.202 1.61716L199.229 2.36744L199.105 1.03079L198.553 1.55633L198.467 1.31806L197.635 2.27788L197.013 1.60195L196.795 2.08017L196.593 1.03417L195.279 2.32858V1.50394L194.167 2.27112L193.545 1.78445V1.50394L193.358 1.63237L193.319 1.59857V1.67799L192.728 2.08693C192.728 1.91795 192.728 1.7608 192.681 1.59857C192.324 1.97861 191.856 2.35337 191.282 2.72062C191.282 2.34548 191.235 1.97033 191.087 1.60195C190.9 1.81825 190.683 2.03286 190.442 2.24578L190.512 1.69151L188.536 2.94367C188.55 2.39961 188.371 1.85613 188 1.31806C187.906 1.56647 187.751 1.81318 187.572 2.05652C187.479 1.74559 187.346 1.43466 187.129 1.1288C186.943 1.63555 186.59 2.13873 186.071 2.63444C185.993 2.53474 185.908 2.43673 185.846 2.33703L186.234 1.1288L185.534 1.67124C185.433 1.36707 185.379 1.06121 185.402 0.751972C184.853 1.18125 184.428 1.61749 184.127 2.05821L184.166 0.471461L182.953 1.9923C182.902 1.80594 182.803 1.62034 182.657 1.43635L182.338 0.846602L182.245 1.03079C182.035 0.841286 181.775 0.654538 181.467 0.471461C181.839 1.06037 181.723 1.65896 181.125 2.23902V1.50901L180.596 1.89767C180.464 1.79797 180.324 1.69827 180.161 1.60195C180.228 1.79819 180.241 1.99513 180.2 2.1917L179.181 2.93691L178.714 2.39448C178.709 2.16016 178.62 1.92628 178.45 1.69489C178.279 2.00812 177.961 2.31672 177.501 2.61585C177.344 2.20422 176.926 1.79931 176.257 1.41269C176.417 1.95502 176.106 2.49907 175.339 3.01634L175.3 1.50394L174.857 1.8098C174.857 1.77094 174.857 1.73207 174.857 1.6932C174.576 1.92717 174.225 2.15692 173.807 2.38096C173.729 2.2745 173.667 2.16804 173.636 2.06158C173.661 1.58599 173.922 1.11236 174.414 0.648892C174.001 0.873639 173.589 1.09839 173.216 1.32482C172.817 1.55797 172.526 1.79909 172.345 2.04469V1.50225L171.388 2.44349C171.388 2.43335 171.388 2.42321 171.35 2.41307L170.572 1.86557C170.223 1.49841 170.102 1.12272 170.214 0.748592C169.981 0.934473 169.755 1.11866 169.569 1.30961C169.522 1.362 169.475 1.41776 169.436 1.4786C169.436 1.42621 169.374 1.37383 169.351 1.32144C169.164 1.52422 169.017 1.73038 168.892 1.93654L167.679 2.78145C167.54 2.32806 167.522 1.8733 167.624 1.41945C167.329 1.62054 167.065 1.82501 166.847 2.02948C166.715 1.7608 166.551 1.4938 166.334 1.23019C166.147 1.72604 165.814 2.21878 165.338 2.70541L164.56 1.31468L163.448 3.21235L163.713 0.939542L162.048 2.68006C162.095 2.56684 162.15 2.45531 162.188 2.3421C162.336 1.83515 162.313 1.34341 162.305 0.846602C161.877 1.33496 161.473 1.82332 160.905 2.29647C160.415 2.69189 159.848 3.089 159.296 3.4878C159.317 3.09393 159.578 2.70242 160.073 2.32351C160.37 2.06645 160.596 1.80575 160.75 1.54281C160.906 1.27929 160.837 1.01179 160.548 0.753661C160.623 1.01083 160.475 1.26878 160.112 1.51408C159.754 1.75936 159.328 1.99974 158.837 2.23395C158.541 2.38265 158.253 2.53474 157.973 2.68851V1.88077L156.589 2.83552C156.219 2.2723 156.172 1.7013 156.449 1.13556C156.045 1.42252 155.728 1.71492 155.5 2.01089C155.393 1.77849 155.222 1.54769 154.987 1.31975C154.969 1.5868 154.867 1.85326 154.684 2.11735C154.578 1.84899 154.388 1.58251 154.116 1.31975C154.082 1.9122 153.637 2.50014 152.794 3.06365V1.88077L151.628 2.62768C151.892 1.75235 152.304 0.875329 152.887 0.00168982C151.814 0.77056 150.873 1.55126 150.049 2.33872V2.30154C149.878 2.06834 149.652 1.8436 149.442 1.62561C149.232 1.40762 149.053 1.17443 148.875 0.949681C148.836 1.1795 148.805 1.411 148.797 1.64082C148.789 1.87063 148.797 2.10214 148.75 2.31675C148.707 2.46117 148.629 2.605 148.517 2.74765C148.408 2.21198 148.392 1.67124 148.517 1.13049C148.19 1.40762 147.903 1.68982 147.638 1.9754C147.366 1.6932 147.078 1.411 146.752 1.13049C146.868 1.67124 146.853 2.21198 146.752 2.74765C146.635 2.60512 146.558 2.46124 146.518 2.31675C146.464 2.09369 146.479 1.86219 146.464 1.64082C146.448 1.41945 146.464 1.1795 146.394 0.949681C146.215 1.17612 146.028 1.40255 145.818 1.62561C145.608 1.84867 145.383 2.0751 145.212 2.30154C145.212 2.31506 145.212 2.32689 145.212 2.33872C144.341 1.55126 143.4 0.77056 142.295 0.00168982C142.871 0.875329 143.291 1.75235 143.555 2.62768L142.474 1.88077V3.06365C141.629 2.50022 141.181 1.91229 141.144 1.31975C140.875 1.58255 140.688 1.84903 140.585 2.11735C140.402 1.8532 140.298 1.58679 140.273 1.31975C140.043 1.54785 139.871 1.77859 139.76 2.01089C139.531 1.71512 139.217 1.42277 138.819 1.13556C139.093 1.70137 139.044 2.27237 138.671 2.83552L137.295 1.88077V2.68851C137.023 2.53474 136.727 2.38265 136.439 2.23395C135.942 2.00261 135.508 1.76505 135.141 1.52253C134.778 1.27722 134.63 1.01927 134.705 0.762111C134.422 1.01762 134.359 1.2823 134.519 1.54281C134.68 1.80549 134.905 2.06609 135.195 2.32351C135.694 2.70225 135.956 3.09387 135.973 3.4878C135.421 3.089 134.853 2.69189 134.371 2.30492C133.741 1.82163 133.352 1.33327 132.963 0.846602C132.963 1.34341 132.924 1.83853 133.072 2.3421C133.111 2.457 133.165 2.56853 133.212 2.68006L131.509 0.941232L131.773 3.21235L130.685 1.31637L129.853 2.70541C129.395 2.21514 129.084 1.719 128.919 1.22005C128.702 1.48367 128.538 1.75066 128.398 2.01934C128.149 1.81487 127.893 1.6104 127.621 1.40931C127.715 1.86319 127.697 2.31786 127.566 2.77131L126.353 1.9264C126.221 1.72024 126.073 1.51408 125.886 1.3113C125.886 1.36369 125.832 1.41607 125.809 1.46846C125.77 1.41438 125.723 1.35862 125.669 1.29947C125.482 1.10852 125.256 0.924334 125.031 0.738453C125.143 1.11258 125.022 1.48827 124.673 1.85543L123.896 2.40293C123.896 2.41307 123.896 2.42321 123.857 2.43335L122.931 1.50563V2.04807C122.754 1.8023 122.462 1.5611 122.06 1.3282C121.687 1.09839 121.283 0.873639 120.87 0.652272C121.366 1.11559 121.627 1.58931 121.648 2.06496C121.648 2.17142 121.555 2.27788 121.477 2.38434C121.045 2.1586 120.679 1.9272 120.38 1.69151C120.38 1.73038 120.38 1.76925 120.38 1.80811L119.937 1.50225V3.02309C119.144 2.50465 118.814 1.95805 118.965 1.41269C118.303 1.79978 117.885 2.20447 117.721 2.61585C117.268 2.31529 116.956 2.00563 116.788 1.69151C116.618 1.92295 116.527 2.15677 116.515 2.3911L116.049 2.93353L115.077 2.19846C115.021 1.99981 115.021 1.80061 115.077 1.60195C114.913 1.69827 114.773 1.79797 114.641 1.89767L114.112 1.50901V2.23902C113.517 1.65886 113.404 1.06027 113.778 0.471461C113.466 0.654283 113.207 0.841076 113 1.03079L112.891 0.846602L112.588 1.43973C112.44 1.62368 112.338 1.80929 112.285 1.99568L111.079 0.47484V2.06158C110.786 1.62058 110.36 1.18423 109.804 0.755351C109.804 1.06459 109.804 1.37045 109.68 1.67462L108.98 1.13218L109.368 2.34041C109.298 2.44011 109.221 2.53812 109.143 2.63781C108.625 2.14089 108.269 1.63663 108.077 1.1288C107.868 1.43466 107.735 1.74559 107.642 2.05652C107.463 1.81318 107.308 1.56647 107.206 1.31806C106.834 1.85608 106.657 2.39963 106.678 2.94367L104.733 1.69151L104.827 2.24578C104.593 2.03286 104.368 1.81825 104.189 1.60195C104.034 1.97385 103.97 2.34725 103.995 2.72062C103.421 2.35317 102.951 1.97846 102.587 1.59857C102.587 1.76756 102.54 1.92302 102.54 2.08693L101.957 1.67799V1.59857L101.91 1.63237L101.724 1.50394V1.78445L101.078 2.27112L99.9663 1.50394V2.32858L98.6598 1.03417L98.4576 2.08017L98.2398 1.60195L97.6099 2.27788L96.7545 1.31975L96.6767 1.55802L96.1168 1.03248L95.9923 2.36744L94.9813 1.60195L94.7636 2.58205C94.1948 2.16476 93.8171 1.73628 93.6359 1.30285C93.6359 1.18119 93.6359 1.05783 93.7137 0.936162C93.6593 0.969959 93.6126 1.00713 93.5582 1.04262C93.5582 0.976718 93.5193 0.912505 93.5193 0.848292C93.4182 0.980098 93.3326 1.11359 93.2704 1.24878C92.6181 1.80146 92.5437 2.37886 93.0527 2.9386H92.9671C92.2517 2.34266 91.6114 1.74165 91.0463 1.13556C91.0463 1.06459 91.0463 0.995306 91.1085 0.926023C91.0541 0.96151 91.0074 0.998686 90.953 1.03417C90.6885 0.749155 90.4449 0.463012 90.2219 0.175742C90.2219 0.611716 90.3152 1.04769 90.4086 1.48367C90.4086 1.51915 90.3619 1.55633 90.3308 1.5935C90.1519 1.37214 89.9886 1.15246 89.8564 0.929403C89.4613 1.64359 89.3313 2.36352 89.4676 3.08224H89.4131C88.2243 2.49145 87.8933 1.8359 88.4644 1.20315C87.8778 1.47145 87.4593 1.75562 87.2201 2.04807C86.9401 1.73714 86.6757 1.42621 86.4424 1.11359C86.3335 1.71517 86.3491 2.32182 86.4424 2.92677C85.0966 2.30672 84.67 1.61116 85.2214 0.936162C84.6094 1.2474 84.2111 1.57649 84.0394 1.91288L83.7983 1.80642L83.7439 1.776V1.78445L83.6427 1.74052L83.2928 1.30285L82.8495 2.43504C82.5436 2.03409 82.3979 1.62815 82.414 1.22174C81.7859 1.71845 81.4027 2.22826 81.2708 2.74258L79.4588 1.03586L79.5522 3.05182L78.1523 1.31806L77.6624 2.56515C77.4913 2.46207 77.3202 2.35561 77.1725 2.25085L76.3948 1.31806L76.3015 1.54281C76.0837 1.31299 75.9126 1.08149 75.7959 0.846602C75.5942 1.37361 75.649 1.90377 75.9593 2.42828L75.7726 2.89974L74.4583 0.939542L74.3106 1.59012L73.7896 0.941232L73.4085 1.91795L72.9185 1.31806L72.343 2.78145L70.9821 0.753661L70.7877 1.65603L70.5855 0.753661L69.2246 2.78145L68.6491 1.31806L68.1669 1.91795L67.7858 0.941232L67.257 1.59012L67.117 0.939542L65.795 2.89974L65.6161 2.42828C65.9238 1.90371 65.976 1.37355 65.7717 0.846602C65.655 1.08149 65.4839 1.31299 65.2662 1.54281L65.1806 1.31806L64.4029 2.25085C64.2474 2.3573 64.0841 2.46207 63.9052 2.56515L63.4153 1.31806L62.0155 3.05182L62.101 1.03586L60.2657 2.74765C60.1312 2.23327 59.7454 1.72346 59.1147 1.22681C59.1323 1.63834 58.984 2.04941 58.6714 2.45531L58.2281 1.32313L57.8704 1.7608L57.7771 1.80473V1.79628L57.7227 1.8267L57.4816 1.93316C57.3072 1.59668 56.9063 1.2676 56.2917 0.95644C56.8432 1.63144 56.4165 2.32699 55.0708 2.94705C55.1874 2.3421 55.2108 1.73545 55.0708 1.13387C54.8478 1.44705 54.5886 1.75854 54.2931 2.06834C54.0574 1.77571 53.6387 1.49144 53.0488 1.22343C53.6239 1.85614 53.2927 2.51195 52.1 3.10252H52.0845C52.213 2.3838 52.083 1.664 51.6956 0.949681C51.5634 1.17274 51.3924 1.39241 51.2135 1.61378C51.2135 1.57661 51.1668 1.53943 51.1357 1.50394C51.2368 1.06797 51.3068 0.631994 51.3301 0.19602C51.0968 0.48329 50.8531 0.769433 50.5991 1.05445C50.5447 1.01896 50.498 0.981788 50.4358 0.946301C50.4358 1.01558 50.4824 1.08487 50.498 1.15584C49.9381 1.76249 49.2926 2.36237 48.5849 2.95888H48.4916C49.0043 2.39921 48.9299 1.82162 48.2738 1.26906C48.2116 1.13387 48.1339 1.00038 48.0328 0.868569C48.0328 0.932783 48.0328 0.996996 47.9861 1.0629C47.9317 1.02741 47.8928 0.990237 47.8306 0.95644C47.8875 1.07827 47.9135 1.20068 47.9083 1.32313C47.731 1.75667 47.3532 2.18523 46.7807 2.60233L46.5707 1.62223L45.5753 2.36744L45.4509 1.03079L44.8909 1.55633L44.8132 1.31806L43.981 2.27788L43.3589 1.60195L43.1411 2.08017L42.9389 1.03417L41.6247 2.32858V1.50394L40.5204 2.27112L39.8982 1.78445V1.50394L39.7116 1.63237L39.6727 1.59857V1.67799L39.0817 2.08693C39.0817 1.91795 39.0817 1.7608 39.035 1.59857C38.6712 1.97846 38.2011 2.35317 37.6274 2.72062C37.6512 2.34729 37.5889 1.97393 37.4408 1.60195C37.2541 1.81825 37.0364 2.03286 36.7953 2.24578L36.8419 1.69151L34.8589 2.94367C34.879 2.39963 34.7022 1.85608 34.33 1.31806C34.2367 1.56647 34.0812 1.81318 33.8945 2.05652C33.809 1.74559 33.6768 1.43466 33.459 1.1288C33.2709 1.63559 32.9148 2.13877 32.3936 2.63444C32.3236 2.53474 32.2381 2.43673 32.1759 2.33703L32.5569 1.1288L31.8648 1.67124C31.7637 1.36707 31.7092 1.06121 31.7326 0.751972C31.18 1.18105 30.7541 1.61734 30.4572 2.05821L30.4961 0.471461L29.2829 1.9923C29.228 1.80601 29.1293 1.62045 28.9874 1.43635L28.6841 0.846602L28.5907 1.03079C28.3807 0.841286 28.121 0.654538 27.8131 0.471461C28.1844 1.06037 28.0685 1.65896 27.4709 2.23902V1.50901L26.9421 1.89767C26.8099 1.79797 26.6621 1.69827 26.5066 1.60195C26.5738 1.79819 26.5868 1.99513 26.5455 2.1917L25.5267 2.93691L25.0601 2.39448C25.0449 2.15907 24.9539 1.92417 24.7879 1.69151C24.6137 2.0046 24.2958 2.31312 23.8391 2.61247C23.6787 2.20097 23.26 1.79617 22.5948 1.40931C22.7554 1.95164 22.4441 2.49569 21.6772 3.01296L21.6383 1.50056L21.195 1.80642C21.195 1.76756 21.195 1.72869 21.195 1.68982C20.9107 1.92357 20.5601 2.15326 20.1451 2.37758C20.0674 2.27112 20.0052 2.16466 19.974 2.05821C20.003 1.58266 20.2637 1.10912 20.7517 0.645513C20.3473 0.870259 19.9352 1.09501 19.5619 1.32144C19.1418 1.55615 18.8342 1.79964 18.6442 2.04807V1.50563L17.6799 2.44686C17.6799 2.43673 17.6799 2.42659 17.6799 2.41645L16.9022 1.86895C16.5459 1.50201 16.4255 1.1261 16.5445 0.751972C16.3112 0.937852 16.0856 1.12204 15.899 1.31299L15.759 1.48198C15.759 1.42959 15.7046 1.37721 15.6813 1.32482C15.4946 1.5276 15.3469 1.73376 15.2224 1.93992L14.0092 2.78483C13.8803 2.32794 13.87 1.86984 13.9781 1.41269C13.6904 1.61378 13.426 1.81825 13.2005 2.02272C13.0682 1.75404 12.9049 1.48704 12.6872 1.22343C12.4991 1.72158 12.164 2.21659 11.684 2.70541L10.9063 1.31468L9.7942 3.21235L10.0897 0.941232L8.42549 2.68006C8.47215 2.56684 8.52658 2.45531 8.56546 2.3421C8.71322 1.83515 8.68213 1.34341 8.68213 0.846602C8.2544 1.33496 7.85001 1.82332 7.2823 2.29647C6.79236 2.69189 6.22465 3.089 5.6725 3.4878C5.69359 3.09393 5.9551 2.70242 6.45018 2.32351C6.74735 2.06645 6.97329 1.80575 7.12677 1.54281C7.28264 1.27929 7.21409 1.01179 6.92456 0.753661C6.98322 1.01435 6.81707 1.27512 6.43463 1.52253C6.07606 1.76781 5.65017 2.00819 5.15924 2.2424C4.86372 2.3911 4.57597 2.54318 4.29601 2.69696V1.88922L2.91951 2.84397C2.54588 2.28082 2.49887 1.70971 2.77954 1.14401C2.37563 1.43097 2.05869 1.72337 1.83076 2.01934C1.72353 1.78693 1.55212 1.55614 1.31749 1.3282C1.30018 1.59533 1.19624 1.86185 1.00642 2.1258C0.903264 1.85748 0.716182 1.591 0.446487 1.3282C0.409999 1.92074 -0.0383407 2.50867 -0.883347 3.0721V1.88922L-1.96432 2.63613C-1.69991 1.7608 -1.28774 0.883778 -0.704483 0.0101389C-1.78546 0.779009 -2.71866 1.55971 -3.55078 2.34717C-3.55078 2.33534 -3.55078 2.32351 -3.55078 2.30999C-3.72187 2.07679 -3.94742 1.85205 -4.15739 1.63406C-4.36737 1.41607 -4.54623 1.18288 -4.7251 0.95813C-4.76398 1.18795 -4.79508 1.41945 -4.80286 1.64927C-4.81063 1.87908 -4.80286 2.11059 -4.84952 2.3252C-4.89271 2.46962 -4.97057 2.61345 -5.08281 2.7561C-5.19946 2.22043 -5.20724 1.67968 -5.08281 1.13894C-5.40944 1.41607 -5.69718 1.69827 -5.96159 1.98385C-6.23378 1.70165 -6.52153 1.41945 -6.84816 1.13894C-6.73151 1.67968 -6.74706 2.22043 -6.84816 2.7561C-6.9604 2.61345 -7.03827 2.46962 -7.08147 2.3252C-7.12813 2.10214 -7.08147 1.87063 -7.12813 1.64927C-7.17479 1.4279 -7.12812 1.18795 -7.20589 0.95813C-7.37698 1.18457 -7.56362 1.411 -7.77359 1.63406C-7.98356 1.85712 -8.2091 2.08355 -8.38019 2.30999C-8.38019 2.32351 -8.38019 2.33534 -8.38019 2.34717C-9.20453 1.55971 -10.1455 0.779009 -11.2265 0.0101389C-10.6432 0.883778 -10.2311 1.7608 -9.96664 2.63613L-11.0399 1.88922V3.0721C-11.9363 2.50758 -12.4319 1.91669 -12.5097 1.31975C-12.7794 1.58255 -12.9664 1.84903 -13.0696 2.11735C-13.2594 1.8534 -13.3634 1.58688 -13.3807 1.31975C-13.6115 1.54785 -13.7829 1.77859 -13.8939 2.01089C-14.1219 1.71492 -14.4388 1.42252 -14.8427 1.13556C-14.562 1.70126 -14.6091 2.27237 -14.9827 2.83552L-16.3514 1.88077V2.68851C-16.6236 2.53474 -16.9191 2.38265 -17.2146 2.23395C-17.7114 2.00234 -18.1476 1.76482 -18.5211 1.52253C-18.8804 1.27704 -19.028 1.01925 -18.9566 0.762111C-19.2462 1.02024 -19.3147 1.28774 -19.1588 1.55126C-19.0016 1.81407 -18.7757 2.07472 -18.4823 2.33196C-17.9872 2.71087 -17.7257 3.10238 -17.7046 3.49625C-18.2567 3.09745 -18.8244 2.70034 -19.3066 2.31337C-19.8743 1.84022 -20.2865 1.35186 -20.7064 0.8635C-20.7064 1.36031 -20.7453 1.85543 -20.5975 2.35899C-20.5587 2.4739 -20.5042 2.58543 -20.4576 2.69696L-22.1451 0.941232L-21.8807 3.21235L-22.9695 1.31637L-23.7471 2.7071C-24.2082 2.21698 -24.5199 1.72078 -24.6804 1.22174C-24.9059 1.48535 -25.0614 1.75235 -25.2014 2.02103C-25.4503 1.81656 -25.7147 1.61209 -25.9791 1.411C-25.8843 1.86488 -25.9025 2.31955 -26.0335 2.773L-27.2545 1.92809C-27.3789 1.72193 -27.5267 1.51577 -27.7133 1.31299C-27.7133 1.36538 -27.7678 1.41776 -27.7911 1.47015C-27.7911 1.41607 -27.8766 1.36031 -27.9311 1.30116C-28.1177 1.11021 -28.3433 0.926023 -28.5688 0.740143C-28.4556 1.11435 -28.5786 1.49016 -28.9343 1.85712L-29.712 2.40462C-29.712 2.41476 -29.712 2.4249 -29.7508 2.43504L-30.7229 1.50563V2.04807C-30.8999 1.8023 -31.1918 1.5611 -31.594 1.3282C-31.9673 1.09839 -32.3716 0.873639 -32.7838 0.652272C-32.2881 1.11559 -32.0273 1.58931 -32.0061 2.06496C-32.0061 2.17142 -32.0994 2.27788 -32.1772 2.38434C-32.6089 2.1586 -32.9751 1.9272 -33.2737 1.69151C-33.2737 1.73038 -33.2737 1.76925 -33.2737 1.80811L-33.717 1.50225V3.02309C-34.4839 2.50583 -34.7953 1.96178 -34.6347 1.41945C-35.2999 1.80631 -35.7185 2.21111 -35.879 2.62261C-36.3508 2.3201 -36.6842 2.00823 -36.8744 1.69151C-37.0371 1.92309 -37.1254 2.15685 -37.1388 2.3911L-37.6054 2.93353L-38.6164 2.19846C-38.6707 2.00205 -38.6707 1.80512 -38.6164 1.60871C-38.7797 1.70503 -38.9197 1.80473 -39.0597 1.90443L-39.5885 1.51577V2.24578C-40.1874 1.66573 -40.3007 1.06699 -39.9229 0.47822C-40.2344 0.661043 -40.4941 0.847836 -40.7006 1.03755L-40.7706 0.846602L-41.0739 1.43973C-41.2159 1.62383 -41.3145 1.80939 -41.3694 1.99568L-42.5826 0.47484V2.06158C-42.8794 1.62072 -43.3054 1.18443 -43.858 0.755351C-43.858 1.06459 -43.858 1.37045 -43.9902 1.67462L-44.6823 1.13218L-44.3013 2.34041C-44.3635 2.44011 -44.4412 2.53812 -44.519 2.63781C-45.0402 2.14215 -45.3963 1.63897 -45.5844 1.13218C-45.7944 1.43804 -45.9266 1.74897 -46.0199 2.0599C-46.1988 1.81656 -46.3543 1.56985 -46.4554 1.32144C-46.8276 1.85946 -47.0044 2.40301 -46.9843 2.94705L-48.9285 1.69151L-48.8273 2.24578C-49.0684 2.03286 -49.2862 1.81825 -49.465 1.60195C-49.6197 1.97385 -49.6846 2.34725 -49.6595 2.72062C-50.2332 2.35317 -50.7033 1.97846 -51.0671 1.59857C-51.106 1.76756 -51.1137 1.92302 -51.1137 2.08693L-51.7048 1.67799V1.59857L-51.7514 1.63237L-51.9381 1.50394V1.78445L-52.5602 2.27112L-53.6801 1.50394V2.32858L-54.9944 1.03417L-55.2354 2.08017L-55.461 1.60195L-56.0831 2.27788L-56.8997 1.31975L-56.9774 1.55802L-57.5685 1.03248L-57.6618 2.36744L-58.6728 1.60195L-58.8905 2.58205C-59.4631 2.16496 -59.8408 1.7364 -60.0182 1.30285C-60.0233 1.18041 -59.9974 1.05799 -59.9404 0.936162C-59.9949 0.969959 -60.0415 1.00713 -60.0959 1.04262C-60.0959 0.976718 -60.1348 0.912505 -60.1348 0.848292C-60.2359 0.980098 -60.3215 1.11359 -60.3837 1.24878C-61.036 1.80146 -61.1104 2.37886 -60.6014 2.9386H-60.687C-61.4024 2.34266 -62.0427 1.74165 -62.6079 1.13556C-62.6079 1.06459 -62.6079 0.995306 -62.5456 0.926023C-62.6079 0.96151 -62.6467 0.998686 -62.7012 1.03417C-62.9656 0.749155 -63.2093 0.463012 -63.4322 0.175742C-63.4322 0.611716 -63.3467 1.04769 -63.2456 1.48367C-63.2456 1.51915 -63.2922 1.55633 -63.3233 1.5935C-63.5022 1.37214 -63.6655 1.15246 -63.7977 0.929403C-64.1928 1.64359 -64.3228 2.36352 -64.1865 3.08224H-64.2332C-65.422 2.49145 -65.753 1.8359 -65.182 1.20315C-65.7685 1.47145 -66.187 1.75562 -66.4263 2.04807C-66.7062 1.73714 -66.9706 1.42621 -67.2039 1.11359C-67.305 1.71517 -67.2895 2.32182 -67.2039 2.92677C-68.5497 2.30672 -68.9763 1.61116 -68.4249 0.936162C-69.0369 1.2474 -69.4352 1.57649 -69.607 1.91288L-69.8481 1.80642L-69.9025 1.776V1.78445L-70.0036 1.74052L-70.3536 1.30285L-70.8046 2.43504C-71.1171 2.02913 -71.2655 1.61806 -71.2479 1.20653C-71.876 1.70324 -72.2592 2.21306 -72.3911 2.72738L-74.1953 1.03586L-74.1097 3.05182L-75.5096 1.31806L-75.9995 2.56515C-76.1706 2.46207 -76.3417 2.35561 -76.4895 2.25085L-77.2671 1.31806L-77.3605 1.54281C-77.5782 1.31299 -77.7493 1.08149 -77.8659 0.846602C-78.0677 1.37361 -78.0129 1.90377 -77.7026 2.42828L-77.8893 2.89974L-79.2036 0.939542L-79.3435 1.59012L-79.8646 0.941232L-80.2534 1.91795L-80.7356 1.31806L-81.3111 2.78145L-82.672 0.753661L-82.8664 1.65603L-83.0686 0.753661L-84.4296 2.78145L-85.0051 1.31806L-85.4872 1.91795L-85.8761 0.941232L-86.3971 1.59012L-86.5449 0.939542L-87.8591 2.89974L-88.0458 2.42828C-87.7407 1.90365 -87.6911 1.37349 -87.898 0.846602C-88.0147 1.08149 -88.1858 1.31299 -88.4035 1.54281L-88.4968 1.31806L-89.2745 2.25085C-89.4197 2.35674 -89.583 2.46151 -89.7645 2.56515L-90.2311 1.31806L-91.6309 3.05182L-91.5453 1.03586L-93.3885 2.74765C-93.5203 2.23333 -93.9036 1.72352 -94.5316 1.22681C-94.5141 1.63834 -94.6624 2.04941 -94.9749 2.45531L-95.426 1.32313L-95.7759 1.7608L-95.877 1.80473V1.79628L-95.9237 1.8267L-96.1725 1.93316C-96.3406 1.59661 -96.739 1.26741 -97.3546 0.95644C-96.8081 1.6298 -97.2347 2.32342 -98.5756 2.94198C-98.4589 2.33703 -98.4356 1.73038 -98.5756 1.1288C-98.8011 1.44142 -99.0655 1.75235 -99.3533 2.06327C-99.589 1.77064 -100.008 1.48637 -100.598 1.21836C-100.016 1.84971 -100.333 2.50458 -101.507 3.09576C-101.378 2.377 -101.51 1.65713 -101.904 0.942922C-102.036 1.16598 -102.2 1.38566 -102.378 1.60702C-102.378 1.56985 -102.425 1.53267 -102.456 1.49718C-102.355 1.06121 -102.285 0.625235 -102.262 0.18926C-102.495 0.47653 -102.736 0.762111 -103.039 1.04769C-103.094 1.0122 -103.133 0.975028 -103.195 0.939542C-103.195 1.00882 -103.148 1.07811 -103.133 1.14908C-103.698 1.75516 -104.323 2.35561 -105.007 2.95043H-105.1C-104.591 2.39069 -104.666 1.81328 -105.318 1.26061C-105.38 1.12542 -105.458 0.991927 -105.559 0.86012C-105.559 0.924334 -105.559 0.988547 -105.606 1.05445C-105.66 1.01896 -105.699 0.981788 -105.761 0.947991C-105.704 1.06982 -105.678 1.19223 -105.684 1.31468C-105.861 1.74822 -106.239 2.17679 -106.811 2.59388L-107.029 1.61378L-108.079 2.36744L-108.203 1.03248L-108.763 1.55802L-108.841 1.31975L-109.673 2.27957L-110.295 1.60364L-110.521 2.08186L-110.715 1.03586L-112.006 2.32858V1.50394L-113.11 2.27112L-113.733 1.78445V1.50394L-113.919 1.63237L-113.966 1.59857V1.67799L-114.557 2.08693C-114.557 1.91795 -114.557 1.7608 -114.604 1.59857C-114.967 1.97846 -115.437 2.35317 -116.011 2.72062C-115.986 2.34725 -116.051 1.97385 -116.206 1.60195C-116.384 1.81825 -116.602 2.03286 -116.843 2.24578L-116.812 1.69151L-118.795 2.94367C-118.775 2.39963 -118.952 1.85608 -119.324 1.31806C-119.425 1.56647 -119.581 1.81318 -119.76 2.05652C-119.853 1.74559 -119.985 1.43466 -120.195 1.1288C-120.383 1.63559 -120.739 2.13877 -121.261 2.63444C-121.338 2.53474 -121.416 2.43673 -121.478 2.33703L-121.097 1.1288L-121.789 1.67124C-121.89 1.36707 -121.945 1.06121 -121.922 0.751972C-122.474 1.18105 -122.9 1.61734 -123.197 2.05821V0.471461L-124.41 1.9923C-124.465 1.80601 -124.564 1.62045 -124.706 1.43635L-124.97 0.846602L-125.071 1.03079C-125.278 0.841076 -125.537 0.654283 -125.849 0.471461C-125.471 1.06023 -125.584 1.65897 -126.183 2.23902V1.50901L-126.712 1.89767C-126.844 1.79797 -126.992 1.69827 -127.155 1.60195C-127.089 1.80047 -127.079 1.99967 -127.124 2.19846L-128.135 2.94367L-128.602 2.40124C-128.613 2.16361 -128.701 1.92644 -128.866 1.69151C-129.044 2.00446 -129.362 2.3129 -129.815 2.61247C-129.975 2.20097 -130.394 1.79617 -131.059 1.40931C-130.899 1.95164 -131.21 2.49569 -131.977 3.01296V1.50056L-132.459 1.8098C-132.459 1.77094 -132.459 1.73207 -132.459 1.6932C-132.743 1.92695 -133.094 2.15664 -133.509 2.38096C-133.587 2.2745 -133.649 2.16804 -133.68 2.06158C-133.655 1.58599 -133.394 1.11236 -132.902 0.648892C-133.307 0.873639 -133.719 1.09839 -134.092 1.32482C-134.494 1.55772 -134.786 1.79892 -134.963 2.04469V1.50225L-135.92 2.44349C-135.92 2.43335 -135.92 2.42321 -135.92 2.41307L-136.697 1.86557C-137.053 1.49861 -137.176 1.1228 -137.063 0.748592C-137.289 0.934473 -137.514 1.11866 -137.701 1.30961C-137.755 1.362 -137.794 1.41776 -137.841 1.4786C-137.841 1.42621 -137.903 1.37383 -137.918 1.32144C-138.105 1.52422 -138.253 1.73038 -138.377 1.93654L-139.59 2.78145C-139.728 2.32806 -139.749 1.87335 -139.653 1.41945C-139.94 1.62054 -140.205 1.82501 -140.43 2.02948C-140.563 1.7608 -140.726 1.4938 -140.951 1.23019C-141.142 1.72624 -141.482 2.21904 -141.97 2.70541L-142.748 1.31468L-143.891 3.21235L-143.627 0.939542L-145.26 2.68006C-145.213 2.56684 -145.159 2.45531 -145.12 2.3421C-144.972 1.83515 -145.003 1.34341 -145.011 0.846602C-145.431 1.33496 -145.843 1.82332 -146.411 2.29647C-146.893 2.69189 -147.461 3.089 -148.013 3.4878C-147.992 3.09393 -147.73 2.70242 -147.235 2.32351C-146.942 2.06627 -146.716 1.80562 -146.558 1.54281C-146.403 1.27929 -146.471 1.01179 -146.761 0.753661C-146.692 1.01392 -146.848 1.27468 -147.22 1.52253C-147.578 1.76781 -148.004 2.00819 -148.495 2.2424C-148.79 2.3911 -149.086 2.54318 -149.358 2.69696V1.88922L-150.735 2.84397C-151.117 2.27819 -151.169 1.70419 -150.89 1.13556C-151.294 1.42252 -151.611 1.71492 -151.839 2.01089C-151.95 1.77859 -152.121 1.54785 -152.352 1.31975C-152.37 1.58688 -152.473 1.8534 -152.663 2.11735C-152.766 1.84903 -152.953 1.58255 -153.223 1.31975C-153.262 1.91237 -153.713 2.50031 -154.561 3.06365V1.88077L-155.665 2.62768C-155.401 1.75235 -154.989 0.875329 -154.405 0.00168982C-155.486 0.77056 -156.419 1.55126 -157.252 2.33872C-157.252 2.32689 -157.252 2.31506 -157.252 2.30154C-157.423 2.06834 -157.656 1.8436 -157.858 1.62561C-158.06 1.40762 -158.255 1.17443 -158.426 0.949681C-158.426 1.1795 -158.496 1.411 -158.504 1.64082C-158.511 1.87063 -158.504 2.10214 -158.55 2.31675C-158.611 2.51601 -158.733 2.71417 -158.916 2.90988C-159.351 2.3083 -159.896 1.71348 -160.58 1.13049C-160.448 1.77094 -160.704 2.9893 -160.868 3.66523H-161V18.0051H1279V3.6534C1279 3.6534 1277.83 2.29478 1277.24 1.60195ZM1205.05 2.91157H1205.17L1205 3.04168L1205.05 2.91157ZM487.749 2.91157H487.866C487.819 2.9555 487.764 2.99944 487.71 3.04168L487.749 2.91157Z" fill="#65B6C1"/>
</g>
<defs>
<clipPath id="clip0_77_405">
<rect width="153" height="4" fill="white"/>
</clipPath>
</defs>
</svg>
