<svg width="118" height="87" viewBox="0 0 118 87" fill="none" xmlns="http://www.w3.org/2000/svg">
<path fill-rule="evenodd" clip-rule="evenodd" d="M43.4723 29.3601C43.8108 29.7181 44.0887 30.1288 44.2951 30.5762C46.4479 35.2648 49.2373 39.4669 53.4032 42.6392C56.9326 45.3303 60.1308 45.4907 63.7533 42.986C67.8934 40.1397 70.6931 36.1653 72.8977 31.7147C73.4135 30.6776 74.0343 29.6961 74.7503 28.7856C75.9268 27.3773 76.6835 25.6665 76.9342 23.8486C76.9808 22.3996 76.722 21.5664 75.9923 20.8367C75.6939 20.4553 75.5139 19.9947 75.4748 19.5119C75.3497 18.6544 75.2545 17.7905 75.1593 16.927C74.9827 15.3255 74.8063 13.7252 74.4398 12.1685C73.4876 7.99224 71.4176 4.46803 67.5881 2.191C64.0897 0.120979 60.255 -0.28785 56.3168 0.167555C50.8778 0.798912 46.9034 3.58309 44.5332 8.56667C42.872 12.0598 42.3079 15.7755 42.2199 19.5999C42.2384 20.017 42.102 20.4262 41.837 20.7488C41.4283 21.0997 41.118 21.551 40.9366 22.0582C40.7551 22.5654 40.7087 23.1111 40.802 23.6416C41.0284 25.7925 41.9685 27.8056 43.4723 29.3601ZM91.9263 51.5869C91.2639 48.6113 89.4423 47.0484 86.565 46.4947C80.2514 45.2837 73.9413 44.0659 67.6346 42.8411L67.5363 42.9705C67.9514 43.2453 68.3658 43.5214 68.7801 43.7974C69.8636 44.5192 70.9469 45.2409 72.0437 45.941C72.1732 45.9966 72.2898 46.078 72.3867 46.1803C72.4835 46.2826 72.5584 46.4036 72.6069 46.5359C72.6553 46.6681 72.6763 46.8089 72.6684 46.9495C72.6606 47.0901 72.6241 47.2277 72.5613 47.3537C72.3171 47.9788 72.1206 48.6197 71.9244 49.2595L71.9241 49.2606C71.8459 49.5157 71.7678 49.7705 71.6867 50.0241L65.0057 70.8951C64.7918 71.5848 64.5688 72.2562 64.3458 72.9276L64.3456 72.9283C64.234 73.2641 64.1225 73.5999 64.0121 73.938H63.7637L58.9664 54.1383L58.7697 54.1641L57.4025 59.8061L57.4011 59.8115L57.3998 59.817L57.3887 59.863C56.2406 64.6006 55.0835 69.3756 53.8948 74.2744C53.8181 74.1127 53.758 73.9974 53.7102 73.9058C53.6387 73.7687 53.5946 73.6843 53.5636 73.5758C52.3947 69.9071 51.2286 66.2366 50.0625 62.5662L50.0617 62.5635L50.0608 62.5608L50.06 62.5582L50.059 62.555C48.4694 57.5516 46.8799 52.5484 45.2835 47.5504C45.0299 46.769 45.1386 46.3498 45.8373 45.9203C47.307 44.968 48.7456 43.9848 50.1998 42.9808C48.6418 43.1306 47.1609 43.425 45.7012 43.7151L45.7012 43.7152L45.5423 43.7467C43.9889 44.0464 42.4345 44.341 40.8801 44.6356L40.8768 44.6362C37.466 45.2826 34.055 45.9291 30.6536 46.6292C29.4648 46.8199 28.3654 47.3773 27.5089 48.2235C26.6525 49.0698 26.0819 50.1625 25.8771 51.3489C25.1 54.8117 24.3094 58.2722 23.5187 61.7335C23.1088 63.5278 22.6989 65.3222 22.2907 67.1173C21.994 68.4185 21.6982 69.7188 21.4014 71.0237L21.3992 71.0333C20.9978 72.7975 20.5946 74.5702 20.1845 76.3651C21.1409 76.6976 22.0884 77.0257 23.0296 77.3515C24.5787 77.8879 26.1107 78.4183 27.6366 78.9527C27.9736 79.0738 28.3218 79.1822 28.6709 79.2909C29.6191 79.5861 30.5737 79.8832 31.3264 80.4431C33.0648 81.7651 34.9812 82.8348 37.019 83.6206C40.9501 85.0537 45.0437 85.9941 49.2062 86.4203C58.7128 87.4811 68.1469 87.1758 77.4362 84.7539C80.417 83.9776 83.3098 82.9012 85.8042 80.9761C86.4598 80.4698 87.1826 80.057 87.9519 79.7496C88.9621 79.3511 89.9911 79.0069 91.02 78.6628C91.5143 78.4975 92.0086 78.3322 92.5008 78.1609L97.5102 76.391C97.489 76.2462 97.4721 76.1117 97.456 75.9846C97.425 75.739 97.3975 75.5208 97.3498 75.3094C96.7452 72.6648 96.1343 70.0253 95.5237 67.3876L95.5225 67.3821C94.3043 62.1194 93.0878 56.8635 91.9263 51.5869ZM116.715 59.0547C117.056 60.5568 117.397 62.0592 117.74 63.562C117.752 63.6226 117.76 63.6856 117.77 63.7673C117.78 63.8531 117.793 63.9595 117.817 64.1054C117.201 64.3195 116.588 64.5251 115.978 64.7292C114.527 65.2159 113.098 65.6947 111.705 66.2634C111.053 66.5298 110.45 66.914 109.847 67.2987C109.408 67.5791 108.968 67.8598 108.507 68.0954C105.573 69.5961 102.385 70.1499 99.0265 70.6053C98.8127 69.6583 98.598 68.7209 98.3848 67.7896L98.3845 67.7881C98.056 66.3535 97.7308 64.9335 97.4171 63.5154C97.3296 63.1269 97.2423 62.7383 97.1551 62.3498L97.0115 61.7101C96.1559 57.8981 95.301 54.0892 94.3535 50.3035C93.4582 46.7172 90.969 44.73 87.4344 43.9641C85.9249 43.681 84.4322 43.3147 82.9631 42.867L88.1796 41.6663C87.8283 41.1969 87.472 40.7302 87.1154 40.2631C86.2691 39.1546 85.4211 38.0439 84.6347 36.8898C83.6376 35.4321 82.722 33.9204 81.8919 32.3616L81.8648 32.3108C81.1221 30.9181 80.3366 29.4454 81.8091 27.9524C81.8958 27.8557 81.9052 27.6752 81.9147 27.4912C81.9199 27.3897 81.9253 27.2871 81.9437 27.1969C82.0738 26.5251 82.1766 25.8432 82.2793 25.1615C82.5073 23.6482 82.7353 22.1354 83.2633 20.7332C84.9452 16.2672 88.9093 14.1609 94.0067 14.6422C98.4262 15.0303 101.567 17.6075 102.727 21.8873C103.076 23.2819 103.336 24.6976 103.503 26.1257C103.543 27.0117 103.793 27.8755 104.233 28.6459C104.999 29.8362 104.466 31.2179 103.715 32.227C102.927 33.275 102.279 34.4207 101.626 35.5751L101.626 35.5751C100.408 37.727 99.1735 39.9086 96.9876 41.5421L97.2895 41.6142C98.4068 41.881 99.3196 42.0989 100.232 42.3081C101.44 42.584 102.647 42.8577 103.855 43.1314C106.27 43.6788 108.685 44.2262 111.1 44.7921C111.835 44.9184 112.515 45.2619 113.053 45.7785C113.591 46.295 113.961 46.9609 114.117 47.6901C114.995 51.4769 115.855 55.2638 116.715 59.0525L116.715 59.0547ZM32.3667 43.5278L32.3667 43.5278C32.8906 43.4313 33.4148 43.3347 33.9346 43.224C34.1282 43.184 34.3197 43.1267 34.5688 43.0522C34.7058 43.0112 34.8603 42.965 35.0421 42.9135L29.5876 41.625C29.9668 41.1209 30.3456 40.6315 30.7191 40.1487C31.5231 39.1097 32.3033 38.1015 33.0135 37.045C34.0536 35.4977 35.0473 33.8417 35.9632 32.1857C36.5791 31.0678 37.2156 29.7637 36.4135 28.5631C35.9825 27.8678 35.7499 27.0679 35.7407 26.2499L35.7386 26.2296C35.641 25.3047 35.5428 24.375 35.3733 23.4605C34.4418 18.4252 31.3316 15.2063 26.7568 14.6629C23.3775 14.2593 20.1897 14.725 17.6435 17.2867C15.3148 19.631 14.5385 22.6273 14.2642 25.7841C14.2475 25.9603 14.2368 26.1362 14.2262 26.3111V26.3111C14.1774 27.1124 14.1298 27.8942 13.5138 28.5993C13.3653 28.8379 13.2715 29.1065 13.2393 29.3857C13.207 29.6649 13.2372 29.9478 13.3275 30.214C13.7857 31.3139 14.3128 32.3839 14.9059 33.4173C14.9764 33.5533 15.0776 33.6757 15.1785 33.7977C15.2927 33.9357 15.4065 34.0733 15.4752 34.2298C16.6647 36.9659 18.3991 39.4311 20.5726 41.4749C20.4011 41.5258 20.2427 41.5767 20.092 41.625L20.0917 41.6251C19.8288 41.7096 19.5896 41.7864 19.3461 41.8423C16.9074 42.4021 14.4651 42.9565 12.0234 43.5108C10.289 43.9046 8.55486 44.2983 6.8225 44.6938C5.14578 45.0767 3.98139 45.9979 3.58808 47.7367C3.39724 48.5811 3.20668 49.4256 3.01616 50.2698L3.01615 50.2698C2.0391 54.5993 1.0634 58.9228 0.0586956 63.2101C-0.086206 63.8311 0.0121201 64.0951 0.638302 64.3021C0.853395 64.3745 1.06846 64.4466 1.28339 64.5186L1.28345 64.5186C3.96955 65.4187 6.6351 66.3119 9.07882 67.8884C11.4958 69.4425 14.3703 69.8847 17.1891 70.3184L17.4055 70.3517C18.7102 70.558 18.7148 70.5381 19.0169 69.2271L19.0201 69.2132C20.4277 63.0031 21.8388 56.8051 23.2533 50.6192C23.5506 49.1197 24.2572 47.7318 25.2949 46.6092C26.3325 45.4866 27.6606 44.6732 29.1322 44.2591C30.1816 43.9302 31.2736 43.7291 32.3667 43.5278ZM55.4406 46.8165C56.5446 46.4121 57.5714 46.0359 58.6042 45.6718C58.7604 45.6201 58.9292 45.6201 59.0855 45.6718C59.765 45.906 60.4433 46.1501 61.1357 46.3994C61.8512 46.657 62.5818 46.92 63.3445 47.183C62.9516 47.7522 62.5652 48.3131 62.1814 48.8704C61.0892 50.4561 60.0169 52.0128 58.8681 53.6518C58.3681 52.9298 57.8825 52.2238 57.4011 51.5238C56.4124 50.0865 55.4409 48.6741 54.3969 47.1985C54.7537 47.0682 55.1008 46.941 55.4406 46.8165Z" fill="white"/>
</svg>
