<svg width="23" height="22" viewBox="0 0 23 22" fill="none" xmlns="http://www.w3.org/2000/svg">
<g clip-path="url(#clip0_1_473)">
<path d="M0 10.3991C0 9.42103 0 8.44295 0 7.46362C0.0115746 6.64668 0.437262 6.16201 1.13431 6.14952C1.85193 6.13702 2.30977 6.64917 2.3162 7.4861C2.32521 8.5891 2.3162 9.69335 2.3162 10.7963C2.3162 12.0692 2.64672 12.3953 3.93408 12.3965C5.06967 12.3965 6.20527 12.3965 7.34086 12.3965C8.26426 12.3965 8.68352 12.8 8.68609 13.6894C8.69209 15.7505 8.69209 17.8116 8.68609 19.8727C8.68609 20.6746 8.23211 21.158 7.52863 21.153C6.82515 21.148 6.38017 20.6534 6.37117 19.8502C6.36345 18.5598 6.37117 17.2694 6.37117 15.9778C6.37117 15.0447 5.95963 14.6487 5.0028 14.6437C3.8029 14.6437 2.60171 14.6437 1.40181 14.6437C0.407683 14.6437 0.0102885 14.249 0.00257213 13.2697C0 12.3141 0 11.3572 0 10.3991Z" fill="white"/>
<path d="M14.3049 16.751C14.3049 15.7105 14.2972 14.6699 14.3049 13.6282C14.3135 12.8154 14.7392 12.4052 15.582 12.3977C16.6751 12.3878 17.7683 12.3977 18.8614 12.3977C20.4124 12.3977 20.6709 12.1479 20.6735 10.6102C20.6735 9.63213 20.6735 8.65405 20.6735 7.67597C20.6684 7.5302 20.6709 7.38428 20.6812 7.23877C20.7494 6.57672 21.2227 6.14201 21.8554 6.14951C22.4881 6.157 22.973 6.6042 22.9794 7.27374C22.9983 9.35566 22.9983 11.4376 22.9794 13.5195C22.9717 14.2402 22.5023 14.6325 21.7191 14.6437C20.4755 14.6562 19.2331 14.6437 17.9895 14.65C17.0314 14.65 16.6237 15.0497 16.6198 15.9816C16.6198 17.2519 16.6198 18.5211 16.6198 19.7915C16.6198 20.6459 16.1851 21.1505 15.4624 21.1568C14.7396 21.163 14.3049 20.6696 14.3049 19.8139C14.3011 18.7921 14.3049 17.7716 14.3049 16.751Z" fill="white"/>
<path d="M16.3626 9.29738H14.6907C14.6907 8.60535 14.7074 7.94206 14.6779 7.28126C14.6702 7.13511 14.4978 6.99645 14.4027 6.85405L14.2059 6.94773V9.29238H9.07962C9.07962 8.61035 9.09248 7.96829 9.06933 7.32747C9.06933 7.18007 8.94073 7.03642 8.86356 6.89027C8.78126 7.02893 8.63464 7.16384 8.6295 7.30499C8.60378 7.94705 8.61664 8.59036 8.61664 9.28614H6.92418C6.92418 8.23061 6.81743 7.16259 6.95247 6.13204C7.10937 4.94035 7.91188 4.39822 9.1465 4.39697H14.0336C15.3968 4.39697 16.2559 5.11898 16.3485 6.45432C16.4153 7.38244 16.3626 8.32055 16.3626 9.29738Z" fill="white"/>
<path d="M17.3169 9.92444V11.7582H12.3462V22.0012H10.8994V11.7819H5.91589V9.92444H17.3169Z" fill="white"/>
<path d="M11.6093 4.02971C11.3363 4.03089 11.0657 3.97927 10.8134 3.87787C10.5611 3.77647 10.3321 3.62731 10.1397 3.43908C9.94738 3.25085 9.79552 3.02732 9.693 2.78151C9.59048 2.5357 9.53935 2.27253 9.5426 2.00734C9.55735 1.48147 9.78314 0.982034 10.1718 0.615621C10.5604 0.249208 11.0811 0.0448446 11.6227 0.0461488C12.1643 0.0474529 12.6839 0.254321 13.0707 0.622601C13.4574 0.990881 13.6807 1.4914 13.6927 2.01733C13.6931 2.28264 13.6393 2.5454 13.5346 2.79044C13.4299 3.03548 13.2763 3.25795 13.0826 3.44503C12.8889 3.63211 12.659 3.78009 12.4061 3.88044C12.1533 3.98079 11.8824 4.03153 11.6093 4.02971Z" fill="white"/>
<path d="M21.1236 5.68361C20.7488 5.68782 20.3812 5.58358 20.0677 5.38416C19.7541 5.18474 19.5087 4.89918 19.3628 4.56384C19.2169 4.2285 19.177 3.85856 19.2483 3.50115C19.3196 3.14374 19.4989 2.81503 19.7632 2.5569C20.0275 2.29876 20.3649 2.12289 20.7325 2.05167C21.1001 1.98045 21.4811 2.01711 21.8272 2.15699C22.1732 2.29686 22.4686 2.53362 22.6756 2.8371C22.8826 3.14059 22.992 3.49706 22.9897 3.86111C22.9904 4.09979 22.9427 4.33626 22.8492 4.55702C22.7558 4.77778 22.6186 4.97851 22.4453 5.14775C22.272 5.31698 22.0661 5.45141 21.8393 5.54335C21.6126 5.6353 21.3694 5.68296 21.1236 5.68361Z" fill="white"/>
<path d="M1.89696 5.68229C1.64546 5.68699 1.3956 5.64194 1.16259 5.54989C0.929572 5.45783 0.718275 5.3207 0.541549 5.14683C0.364823 4.97295 0.226363 4.76598 0.134592 4.53849C0.0428215 4.311 -0.000341245 4.06776 0.00772978 3.82355C0.00924264 3.58445 0.0593147 3.34798 0.155077 3.12771C0.250839 2.90743 0.39041 2.70768 0.565791 2.53988C0.741172 2.37209 0.948917 2.23956 1.17712 2.14988C1.40533 2.0602 1.64951 2.01514 1.89567 2.01728C2.39605 2.01728 2.87593 2.21035 3.22974 2.55401C3.58356 2.89767 3.78233 3.36378 3.78233 3.84978C3.78233 4.33579 3.58356 4.8019 3.22974 5.14556C2.87593 5.48922 2.39605 5.68229 1.89567 5.68229H1.89696Z" fill="white"/>
</g>
<defs>
<clipPath id="clip0_1_473">
<rect width="23" height="22" fill="white"/>
</clipPath>
</defs>
</svg>
