<svg width="77" height="87" viewBox="0 0 77 87" fill="none" xmlns="http://www.w3.org/2000/svg">
<path fill-rule="evenodd" clip-rule="evenodd" d="M21.326 10.4486V10.4482C21.326 8.25228 21.326 6.05976 21.2992 3.86389C21.3025 3.37171 21.2231 2.88247 21.0641 2.41665C20.2952 0.338145 18.1999 -0.40394 15.9938 0.207189C15.2322 0.420492 14.5639 0.882499 14.0954 1.51962C13.6268 2.15674 13.3849 2.93233 13.4082 3.72286C13.3948 5.21646 13.3993 6.71155 13.4037 8.20415V8.20419V8.20423V8.20427V8.20431V8.20435V8.20439V8.20443V8.20447V8.20451V8.20455V8.20459C13.406 8.95003 13.4082 9.69485 13.4082 10.4386C14.1134 10.4386 14.8185 10.4469 15.5237 10.4553C16.2288 10.4637 16.934 10.4721 17.6391 10.4721C18.6322 10.4804 19.6387 10.4684 20.6477 10.4565C20.8737 10.4538 21.0999 10.4511 21.326 10.4486ZM76.529 17.7419C76.529 13.5748 73.507 10.5225 69.3197 10.4957H64.152C64.0504 10.4957 63.9473 10.5048 63.8335 10.5148C63.7781 10.5197 63.72 10.5248 63.6584 10.5292V11.2008V16.7983V17.8527C63.6584 20.2032 62.1541 21.7243 59.817 21.7377C57.2785 21.7377 55.7876 20.2737 55.7876 17.752V11.0564C55.7876 10.8997 55.7734 10.743 55.7592 10.5863C55.7551 10.5415 55.751 10.4968 55.7473 10.452C55.6801 10.4583 55.613 10.4662 55.5458 10.4742C55.3981 10.4916 55.2503 10.5091 55.1026 10.5091H21.9438C21.7424 10.5091 21.5409 10.5091 21.3394 10.4822C21.3394 11.4157 21.3314 12.3504 21.3234 13.2855V13.2856V13.2857V13.2858V13.2859V13.286V13.2861V13.2861V13.2862V13.2863V13.2864V13.2865C21.3177 13.9555 21.312 14.6248 21.3092 15.294V18.118C21.3088 19.0209 20.9688 19.8907 20.3566 20.5545C19.7445 21.2182 18.905 21.6274 18.0051 21.7008C17.4181 21.758 16.8261 21.7343 16.2456 21.6303C15.426 21.4542 14.694 20.9968 14.1763 20.3375C13.6587 19.6782 13.3881 18.8585 13.4115 18.0206V11.0833V11.0833C13.4115 10.8818 13.4115 10.6803 13.3847 10.4822C13.2902 10.4822 13.1958 10.489 13.1018 10.4957H13.1018H13.1017H13.1017H13.1017H13.1017H13.1017H13.1017H13.1016H13.1016H13.1016H13.1016C13.0085 10.5024 12.9158 10.5091 12.8239 10.5091C12.1802 10.5091 11.5369 10.5068 10.8936 10.5046C9.60759 10.5001 8.32203 10.4957 7.03498 10.5091C6.10673 10.5064 5.18718 10.6879 4.32961 11.0432C3.47205 11.3985 2.69354 11.9205 2.0392 12.5789C1.38485 13.2373 0.867699 14.0191 0.517706 14.8788C0.167714 15.7385 -0.00815622 16.6592 0.000290436 17.5874V27.5367V79.7278C0.000290436 83.9486 3.07944 86.9975 7.2969 86.9975H53.0744C53.2768 87.0098 53.4793 86.977 53.6675 86.9015C53.8556 86.826 54.0246 86.7097 54.1624 86.561C61.5049 79.0864 68.8563 71.623 76.2167 64.1709C76.3274 64.07 76.4147 63.9463 76.4727 63.8083C76.5307 63.6703 76.5579 63.5213 76.5525 63.3717C76.5346 48.1629 76.5268 32.9529 76.529 17.7419ZM72.5298 64.2044C68.4019 64.1686 64.2729 64.1496 60.1427 64.1474C59.4097 64.1297 58.6764 64.1713 57.95 64.2716C56.7129 64.4437 55.57 65.0284 54.7065 65.9309C53.843 66.8335 53.3093 68.001 53.192 69.2446C53.1187 69.8933 53.0873 70.5461 53.098 71.1988C53.1159 75.1074 53.1405 79.0137 53.1718 82.9177V83.5289C53.0621 83.5289 52.9627 83.5354 52.8686 83.5415C52.7841 83.5471 52.7039 83.5524 52.6245 83.5524H7.13572C6.65865 83.5589 6.18263 83.5059 5.71871 83.3945C4.98432 83.2416 4.32898 82.8307 3.87133 82.2363C3.41369 81.6419 3.18399 80.9033 3.22383 80.1542V69.4863V25.9585V25.4246C3.22383 25.0663 3.22383 24.8901 3.31193 24.8034C3.39722 24.7195 3.56507 24.7195 3.89539 24.7195H17.441H72.2578H73.1242V25.3206V63.6C73.1342 64.0567 73.0301 64.2112 72.5298 64.2044ZM63.6148 10.452C63.5034 10.4676 63.3914 10.4777 63.279 10.4822H56.1637C56.0257 10.4736 55.8887 10.4534 55.7541 10.4218C55.7787 8.75403 55.791 7.08742 55.791 5.42193V3.65234C55.7906 2.78284 56.1043 1.94246 56.6744 1.28595C57.2445 0.62945 58.0327 0.201031 58.8936 0.0795925C59.6972 -0.0690701 60.5257 -0.00659141 61.2979 0.260916C61.9775 0.507757 62.5662 0.955214 62.986 1.54404C63.4057 2.13287 63.6367 2.8353 63.6484 3.55832C63.6596 5.02098 63.6558 6.48512 63.6521 7.94976V7.95014V7.95051V7.95088V7.95126V7.95163V7.952V7.95238V7.95275V7.95312V7.9535C63.6502 8.68663 63.6484 9.41988 63.6484 10.1531C63.6423 10.2533 63.6311 10.353 63.6148 10.452ZM21.3093 32.9093C17.5328 32.9227 13.7563 32.9227 9.97988 32.9093C9.60044 32.9093 9.4527 32.9899 9.45606 33.4063C9.46949 37.1984 9.46949 40.9905 9.45606 44.7826C9.45606 45.1554 9.56015 45.2695 9.94294 45.2695C13.7351 45.2561 17.5272 45.2561 21.3193 45.2695C21.7324 45.2695 21.8197 45.1319 21.8163 44.7491V39.1079V33.4197C21.8264 33.0268 21.7088 32.9093 21.3093 32.9093ZM21.8263 48.5435V54.2316C21.8263 54.8133 21.8238 55.3952 21.8212 55.9769V55.9774V55.9779V55.9784V55.979V55.9795V55.98V55.9805V55.981C21.8155 57.2919 21.8098 58.6015 21.833 59.9031C21.8364 60.2825 21.7222 60.3899 21.3462 60.3899H9.96977C9.61048 60.3933 9.47281 60.3127 9.47281 59.9165C9.48624 56.1109 9.48624 52.3054 9.47281 48.4998C9.47281 48.1405 9.58361 48.0431 9.93619 48.0431C13.7417 48.061 17.5473 48.061 21.3529 48.0431C21.7525 48.0431 21.8263 48.1875 21.8263 48.5435ZM54.7333 45.058H66.9961V32.7783H54.7333V45.058ZM51.9194 59.856H39.6229V47.5697H51.9194V59.856ZM54.7333 60.1717H67.0129V47.9088H54.7333V60.1717ZM24.2004 63.4388C24.2004 63.1198 24.2272 62.9452 24.6268 62.9452C27.1874 62.9542 29.7495 62.9542 32.3101 62.9542C33.5909 62.9542 34.8713 62.9542 36.1509 62.9553C36.2007 62.9553 36.2505 62.9625 36.3039 62.9702C36.3659 62.9792 36.4327 62.9889 36.5102 62.9889V75.2551H24.2306C24.2269 75.1904 24.2217 75.1285 24.2168 75.0685L24.2168 75.0682L24.2167 75.068C24.2083 74.9662 24.2004 74.8699 24.2004 74.7749V63.4388ZM51.916 32.4661H39.6397V44.7256H51.916V32.4661ZM24.5865 32.6138H36.8158V44.8901H24.5865V32.6138ZM24.5966 60.0139H36.8326V47.7308H24.5966V60.0139ZM9.68099 63.2676C13.444 63.281 17.2071 63.281 20.9701 63.2676C21.3462 63.2676 21.4603 63.3751 21.4469 63.7478V75.1309C21.4469 75.1449 21.447 75.1588 21.447 75.1725C21.4482 75.4193 21.4491 75.6211 21.0675 75.6211H9.44594C9.39315 75.6211 9.34035 75.6149 9.26181 75.6055C9.22546 75.6012 9.18359 75.5962 9.13366 75.5909V75.0772V63.8384C9.13031 63.4154 9.22432 63.2676 9.68099 63.2676Z" fill="white"/>
</svg>
