<svg width="79" height="87" viewBox="0 0 79 87" fill="none" xmlns="http://www.w3.org/2000/svg">
<path fill-rule="evenodd" clip-rule="evenodd" d="M24.1657 65.7111C23.6358 67.6416 24.0551 69.3422 25.479 70.7603C30.2856 75.5513 35.0931 80.3287 39.9016 85.0926C40.0363 85.2273 40.1892 85.3468 40.3409 85.4654C40.4088 85.5185 40.4765 85.5714 40.5422 85.6255C40.5189 85.6779 40.4927 85.7303 40.4665 85.7798C40.4201 85.7832 40.3751 85.787 40.3311 85.7908C40.2232 85.8001 40.1206 85.8089 40.0151 85.8089C28.7675 85.838 17.514 85.838 6.25473 85.8089C4.15235 85.8089 2.3033 85.0868 1.01334 83.3076C0.434304 82.4763 0.0975965 81.5004 0.0407664 80.4889C0.00582377 80.1307 0.00582377 79.7667 0.00582377 79.4028C-0.00582377 59.1749 0 38.945 0.0232951 18.7132C0.0123574 17.7598 0.159963 16.8112 0.460078 15.9062C1.21134 13.798 2.91771 12.8137 5.02591 12.4206C5.52961 12.3322 6.04037 12.2903 6.55174 12.2954C7.80579 12.2954 9.05985 12.2935 10.3139 12.2915C12.822 12.2877 15.3301 12.2838 17.8382 12.2954C18.2808 12.2954 18.4031 12.1586 18.4701 11.7276C19.1282 7.49664 21.4373 4.36928 25.0742 2.23778C30.6825 -1.06139 38.6291 -0.671196 43.7453 3.13464C46.663 5.31273 48.4858 8.18385 49.0099 11.8295C49.0245 11.9256 49.0391 12.0217 49.0595 12.1207C49.0627 12.1372 49.0698 12.1536 49.0826 12.1838C49.0925 12.2069 49.1058 12.2382 49.1235 12.2838H49.6651C50.6102 12.2838 51.5548 12.2827 52.4991 12.2816C55.3315 12.2783 58.1622 12.2751 61.0011 12.3013C61.8255 12.3078 62.6446 12.4343 63.4325 12.6769C65.8523 13.4427 67.1918 15.1287 67.4131 17.6737C67.4567 18.1162 67.4567 18.5617 67.4567 19.0071V19.0073C67.4451 27.9526 67.4451 36.896 67.4567 45.8374C67.4634 46.0236 67.4317 46.2091 67.3636 46.3824C67.2954 46.5557 67.1923 46.7132 67.0607 46.845C61.2117 53.1269 55.3753 59.4146 49.5516 65.7082C49.439 65.845 49.334 65.9879 49.2371 66.1362L46.2815 62.9127C45.7512 62.3394 45.2282 61.7627 44.7061 61.1869C43.9209 60.3211 43.1375 59.4572 42.333 58.609C40.957 57.0927 39.1574 56.0245 37.1673 55.5428C34.9397 55.0477 32.849 55.3564 31.1543 57.1443C30.2108 58.1363 29.2312 59.0998 28.2515 60.0633C27.7616 60.545 27.2718 61.0268 26.7864 61.5121C25.5897 62.7118 24.62 64.0542 24.1657 65.7111ZM55.1016 49.0434C56.5721 49.0405 57.7136 48.2601 58.0921 47.043L58.0979 47.0488C58.7386 44.9784 57.6146 43.2226 55.486 42.9605C55.2568 42.9357 55.0262 42.927 54.7959 42.9343H28.0065H27.5115C25.7469 43.0246 24.5996 44.1282 24.521 45.8083C24.4424 47.5555 25.447 48.7668 27.1941 49.0114C27.4405 49.0396 27.6887 49.0503 27.9366 49.0434H47.2395C48.1131 49.0434 48.9867 49.045 49.8602 49.0467C51.6074 49.0499 53.3545 49.0531 55.1016 49.0434ZM55.4889 36.764C56.6944 36.5864 57.6582 36.0681 58.0717 34.8393L58.0776 34.8451C58.7997 32.6903 57.4981 30.7859 55.221 30.6636H54.6765H28.0997H27.5173C25.7585 30.7655 24.6258 31.8371 24.5239 33.4881C24.4191 35.2353 25.3392 36.4291 27.0485 36.7291C27.3374 36.774 27.6297 36.7935 27.9221 36.7873H41.3837H54.7959C55.0271 36.7971 55.2588 36.7893 55.4889 36.764ZM9.37918 34.8742C9.76355 36.1088 10.7711 36.6272 11.9795 36.7611L11.9853 36.7669C12.5757 36.8041 13.1678 36.808 13.7587 36.7786C13.9461 36.7786 14.1335 36.7815 14.3209 36.7844C14.6952 36.7902 15.0691 36.796 15.4417 36.7786C16.9122 36.7116 18.0129 35.8468 18.3041 34.5539C18.7875 32.4078 17.483 30.7131 15.2758 30.6607C14.2886 30.6403 13.2957 30.6403 12.3085 30.6607C11.4715 30.6394 10.6593 30.9467 10.046 31.5168C9.088 32.4777 8.99481 33.6396 9.37918 34.8742ZM15.3806 49.0434C16.7463 48.9968 17.8411 48.2456 18.2197 47.107L18.2255 47.1129C18.9593 44.9202 17.6053 42.978 15.2874 42.9285C14.2828 42.9023 13.2753 42.9052 12.2707 42.9285C11.4694 42.9208 10.6932 43.2078 10.0897 43.7351C9.23359 44.5038 8.93949 45.951 9.37918 47.1769C9.76938 48.263 10.841 48.9939 12.1659 49.0434C12.5284 49.0532 12.8989 49.0499 13.2631 49.0466C13.443 49.045 13.6213 49.0434 13.7965 49.0434C13.9734 49.0434 14.1499 49.0454 14.3263 49.0473C14.6783 49.0512 15.0294 49.0551 15.3806 49.0434ZM10.2964 18.6608C7.85918 19.2665 5.88201 22.1114 6.1994 24.4846L61.3214 24.4991C61.1321 22.4608 60.5235 20.6962 58.8463 19.4703C57.6874 18.623 56.3421 18.4162 54.9473 18.4162H42.9678C42.9639 18.3358 42.9596 18.2639 42.9557 18.1978C42.948 18.0676 42.9416 17.9594 42.9416 17.8513C42.796 15.0501 42.1117 12.4177 40.548 10.0475C37.4731 5.38844 30.1788 5.40591 27.1242 9.75627C26.0777 11.2612 25.354 12.9665 24.9985 14.7647C24.816 15.6082 24.6939 16.4653 24.5681 17.349C24.5192 17.6918 24.4699 18.0385 24.4162 18.39H23.8338C22.8967 18.39 21.9599 18.3891 21.0232 18.3882C18.2136 18.3855 15.4052 18.3827 12.5968 18.4046C11.8226 18.3991 11.0505 18.4851 10.2964 18.6608ZM74.8642 50.321C75.8861 51.158 76.909 51.9957 77.8492 52.9162C79.3721 54.4129 79.3692 55.1758 77.9249 56.7424C75.0654 59.8353 72.1868 62.9053 69.3123 65.971C68.6361 66.692 67.9602 67.4129 67.2849 68.1337C61.6901 74.1283 56.0945 80.12 50.4978 86.1088C49.5369 87.1425 48.4508 87.1483 47.519 86.1088L30.7814 67.4727C30.3631 67.0402 30.1301 66.4613 30.1321 65.8595C30.1374 65.326 30.3517 64.8158 30.729 64.4385C30.9978 64.1681 31.266 63.8966 31.5342 63.625C32.2395 62.9108 32.9457 62.1958 33.6671 61.4975C33.8561 61.3048 34.0829 61.1532 34.3332 61.0522C34.5836 60.9512 34.8521 60.903 35.1219 60.9107C35.3918 60.9183 35.6571 60.9817 35.9013 61.0967C36.1456 61.2117 36.3634 61.3759 36.5412 61.5791C39.7889 64.9316 43.0366 68.2851 46.2843 71.6396C46.4063 71.7659 46.5275 71.8927 46.6486 72.0194C46.9381 72.3221 47.2271 72.6244 47.5248 72.918C48.4042 73.7915 49.5631 73.7711 50.4017 72.8568C52.4498 70.6166 54.4968 68.3754 56.5429 66.1333C61.4213 60.7812 66.3035 55.4321 71.1897 50.0859C72.1215 49.0638 73.2251 48.9793 74.2938 49.8529C74.4835 50.0093 74.6738 50.1651 74.8642 50.321Z" fill="white"/>
</svg>
