<svg width="281" height="112" viewBox="0 0 281 112" fill="none" xmlns="http://www.w3.org/2000/svg">
<path d="M148.981 25.8456C148.754 25.4109 146.315 26.4957 146.315 26.4957C145.329 26.869 144.29 27.0821 143.237 27.1266C145.015 25.8687 143.676 25.6648 143.676 25.6648C143.561 26.0841 142.33 26.8189 142.33 26.8189C140.572 26.6111 140.118 29.1809 139.825 30.0927C138.921 32.9279 136.909 36.7288 135.913 37.956C135.913 37.956 133.012 37.5713 126.988 33.4819L126.819 33.3703C126.439 32.8885 125.953 32.5013 125.399 32.2393C125.334 32.2047 125.267 32.1738 125.199 32.147L125.084 32.097C124.958 32.0459 124.829 32.0022 124.699 31.9662C124.314 31.8623 123.929 31.7738 123.622 31.6815H123.575C122.591 31.3968 121.906 31.0429 121.36 29.9503C121.36 29.9503 121.36 29.9119 121.333 29.8811C121.319 29.8433 121.307 29.8048 121.298 29.7657C121.298 29.7234 121.275 29.6695 121.26 29.6157C121.26 29.558 121.233 29.4926 121.217 29.4272C121.217 29.3579 121.186 29.2887 121.167 29.2117C121.167 29.1348 121.133 29.0578 121.113 28.9732C121.113 28.8886 121.079 28.8001 121.063 28.7155C121.063 28.6847 121.063 28.6539 121.063 28.6231C122.141 28.3038 122.948 27.5691 123.783 26.7804C123.902 26.6689 124.018 26.5496 124.126 26.4303L124.233 26.3034C124.306 26.2226 124.376 26.1418 124.445 26.0572L124.56 25.8995C124.618 25.8225 124.68 25.7417 124.733 25.6609C124.787 25.5802 124.81 25.5455 124.849 25.4878L125.003 25.2493C125.037 25.1878 125.076 25.1262 125.11 25.0608C125.145 24.9954 125.203 24.9031 125.245 24.8184C125.287 24.7338 125.311 24.6876 125.345 24.6223C125.38 24.5569 125.426 24.4607 125.464 24.376C125.503 24.2914 125.526 24.2414 125.557 24.1722C125.587 24.1029 125.63 24.0067 125.664 23.9221C125.699 23.8375 125.722 23.7836 125.749 23.7144C125.776 23.6451 125.772 23.6567 125.78 23.6297C125.891 23.6297 125.999 23.6297 126.111 23.6297C129.1 23.6297 131.523 21.6062 131.523 19.1095C131.523 16.909 129.638 15.0778 127.142 14.6739C126.742 13.5437 125.983 12.5759 124.98 11.9195C124.994 11.8599 125.004 11.7995 125.01 11.7386C125.01 11.704 125.01 11.6656 125.01 11.6309C125.01 11.504 125.033 11.377 125.033 11.2462C125.031 11.1176 125.023 10.9892 125.007 10.8615C125.001 10.8176 124.993 10.7739 124.983 10.7307C124.983 10.6423 124.953 10.5538 124.933 10.4691L124.887 10.3153C124.866 10.2383 124.84 10.1625 124.81 10.0883C124.81 10.0344 124.768 9.98442 124.745 9.93056C124.722 9.8767 124.683 9.79207 124.649 9.72667L124.556 9.56509C124.522 9.50007 124.483 9.43713 124.441 9.37659L124.333 9.21886C124.291 9.16116 124.245 9.10345 124.199 9.04959C124.153 8.99574 124.114 8.94573 124.068 8.89571C124.021 8.8416 123.971 8.79023 123.918 8.74183C123.871 8.69024 123.821 8.64142 123.768 8.59565C123.718 8.54564 123.66 8.50332 123.606 8.45716C123.552 8.41099 123.495 8.36098 123.437 8.31867L123.264 8.19556C123.202 8.1494 123.137 8.10708 123.072 8.06476L122.898 7.96474L122.679 7.83779L122.525 7.7647C122.208 7.60893 121.879 7.48024 121.54 7.38L121.387 7.33768L121.094 7.27613L120.906 7.23766C120.809 7.21842 120.713 7.20688 120.617 7.19534L120.467 7.17611C120.236 7.15302 120.002 7.13379 119.763 7.13379C116.862 7.13379 114.508 8.9765 114.508 11.2462C114.51 11.4634 114.533 11.6799 114.577 11.8925C114.577 11.9156 114.577 11.9387 114.577 11.9656C113.51 12.5981 112.717 13.6044 112.35 14.7893C109.949 15.2317 108.153 17.0167 108.153 19.1518C108.161 20.0147 108.451 20.8511 108.98 21.5331C108.922 21.6216 108.868 21.7139 108.815 21.8024C108.711 21.9755 108.614 22.1409 108.534 22.3025L108.503 22.3256C108.503 22.3256 103.048 31.9816 101.451 39.2409C101.451 39.2409 100.297 41.2567 110.723 38.1868C110.723 38.2291 110.723 38.2676 110.723 38.3099C110.723 38.3522 110.7 38.4638 110.692 38.5407C110.684 38.6176 110.692 38.7869 110.665 38.9254C110.638 39.0639 110.665 39.0562 110.665 39.1216C110.665 39.3024 110.665 39.4832 110.665 39.6602C110.665 39.7333 110.665 39.8064 110.688 39.8756C110.711 39.9449 110.711 40.0987 110.73 40.2103C110.75 40.3219 110.761 40.3796 110.776 40.4604C110.792 40.5411 110.815 40.6565 110.842 40.7527C110.869 40.8489 110.888 40.9258 110.915 41.0105C110.942 41.0951 110.973 41.1951 111.004 41.2836C111.034 41.3721 111.069 41.4567 111.104 41.5452C111.138 41.6337 111.18 41.7183 111.223 41.8068C111.265 41.8953 111.3 41.9799 111.346 42.0645L111.492 42.3223C111.542 42.4031 111.588 42.4877 111.642 42.5685C111.696 42.6493 111.777 42.757 111.846 42.8532C111.915 42.9494 112.034 43.1032 112.138 43.2379C112.242 43.3725 112.281 43.4072 112.358 43.4918C112.709 43.8645 113.095 44.2021 113.512 44.4997C114.06 44.9518 114.536 45.485 114.924 46.0808L115.031 46.1077C115.978 47.5965 116.636 49.9778 114.085 52.6476L114.008 52.7284C113.881 52.8592 113.746 52.9862 113.623 53.1131L113.523 53.2016C113.373 53.3363 113.219 53.4709 113.05 53.6055C112.853 53.778 112.675 53.9715 112.519 54.1826C112.438 54.2903 112.35 54.4134 112.254 54.5673L112.119 54.7827L112.096 54.8174L111.95 55.0636C111.904 55.1444 111.858 55.2328 111.808 55.3252L111.784 55.3675C111.738 55.4636 111.688 55.5598 111.638 55.6598L111.611 55.7214C111.561 55.8253 111.511 55.933 111.465 56.0445V56.0753C111.465 56.1099 111.438 56.1407 111.427 56.1753L111.33 56.41C111.323 56.4337 111.314 56.4568 111.304 56.4793C111.257 56.5985 111.211 56.7255 111.165 56.864C111.165 56.8947 111.165 56.9255 111.134 56.9524C111.088 57.0858 111.042 57.2243 110.996 57.3679V57.4102C110.95 57.5449 110.911 57.6872 110.869 57.8296C110.869 57.8603 110.85 57.8911 110.842 57.9257C110.8 58.0758 110.757 58.2335 110.719 58.3912C110.719 58.4297 110.719 58.4682 110.692 58.5066C110.65 58.6759 110.611 58.8452 110.573 59.0221V59.076C110.538 59.2414 110.503 59.4145 110.473 59.5915L110.45 59.7107C110.415 59.8992 110.384 60.0954 110.357 60.2839L110.334 60.4224C110.303 60.6263 110.276 60.8341 110.249 61.0495C110.249 61.0495 110.249 61.088 110.249 61.1072C110.223 61.3111 110.203 61.5227 110.18 61.7381V61.8804C110.18 62.1074 110.142 62.3344 110.126 62.5691V62.7345C110.126 62.9768 110.099 63.2269 110.092 63.4846C110.092 63.5039 110.092 63.5231 110.092 63.5424C110.092 63.7886 110.092 64.0425 110.092 64.3118C110.092 64.3656 110.092 64.4233 110.092 64.4772C110.092 64.7426 110.092 65.0158 110.092 65.2966V65.4774C110.092 65.7659 110.092 66.0621 110.115 66.366C110.117 66.3827 110.117 66.3994 110.115 66.4161C110.115 66.7123 110.142 67.0123 110.161 67.3201V67.5048C110.161 67.8202 110.203 68.1357 110.23 68.4627C110.23 68.5281 110.23 68.5973 110.249 68.6627C110.276 69.0051 110.311 69.3475 110.349 69.7014V69.736C110.384 70.0823 110.426 70.44 110.473 70.8016C110.473 70.8709 110.473 70.9401 110.5 71.0132C110.546 71.371 110.596 71.7403 110.653 72.1135L110.688 72.3404C110.746 72.7251 110.807 73.1291 110.877 73.5368C110.942 73.9215 111.019 74.3563 111.096 74.7756L111.142 75.0141C111.219 75.4257 111.304 75.8412 111.392 76.2682C111.392 76.3529 111.427 76.4375 111.442 76.5221C111.538 76.9684 111.634 77.4185 111.738 77.8801C111.765 77.9955 111.788 78.1148 111.815 78.2379C111.815 78.2648 111.815 78.2956 111.815 78.3225C111.815 78.4225 111.858 78.5264 111.877 78.6303V78.6957C111.9 78.8149 111.923 78.9342 111.95 79.0573V79.0842C111.977 79.2227 112 79.3651 112.027 79.5074V79.5266C112.027 79.5997 112.054 79.6728 112.065 79.7498C112.077 79.8267 112.088 79.8767 112.1 79.946C112.111 80.0152 112.123 80.0998 112.138 80.1768C112.154 80.2537 112.138 80.3076 112.169 80.373C112.2 80.4384 112.196 80.5384 112.211 80.6192C112.227 80.7 112.211 80.7615 112.242 80.8308C112.273 80.9 112.269 80.9923 112.281 81.0731L112.315 81.3001C112.315 81.3809 112.338 81.4617 112.354 81.5463C112.369 81.6309 112.354 81.6963 112.385 81.7733C112.415 81.8502 112.411 81.9426 112.423 82.031L112.458 82.2695L112.492 82.5234L112.527 82.7735L112.562 83.0236L112.596 83.289L112.631 83.5468L112.665 83.816L112.7 84.0622L112.735 84.3546C112.735 84.4354 112.758 84.5123 112.765 84.5893C112.773 84.6662 112.792 84.797 112.804 84.9009C112.815 85.0048 112.804 85.0394 112.831 85.1125C112.858 85.1856 112.858 85.3433 112.873 85.4587C112.873 85.5126 112.873 85.5664 112.892 85.6203L112.939 86.005V86.0819C113.066 87.1591 113.189 88.267 113.323 89.3942C113.473 90.8099 113.612 92.2448 113.746 93.6567C113.746 93.7721 113.769 93.8875 113.777 94.0029C114.162 98.2115 114.477 102.128 114.654 104.478C114.654 104.609 114.654 104.732 114.685 104.863L114.566 104.813L114.5 104.782C114.43 104.746 114.363 104.704 114.3 104.655C114.158 105.34 113.783 105.954 113.239 106.394C113.094 106.523 112.941 106.641 112.781 106.748C112.658 106.836 112.527 106.913 112.396 106.99C112.192 107.108 111.981 107.215 111.765 107.31L111.457 107.444L111.034 107.602L110.65 107.729L110.311 107.825L110.092 107.879H110.065L109.726 107.956H109.699L109.588 107.975L109.484 107.994C109.288 108.021 109.099 108.052 108.934 108.087C106.379 108.591 106.16 109.706 106.21 110.23C106.206 110.261 106.206 110.294 106.21 110.326C106.175 110.503 106.299 110.78 107.28 110.887C108.731 111.086 110.202 111.086 111.654 110.887C112.377 110.78 113.084 110.577 113.754 110.283C114.4 109.991 114.974 109.514 115.735 109.433C116.343 109.376 116.993 109.433 117.605 109.433C117.766 109.433 117.855 109.433 117.936 109.299C118.017 109.164 117.832 108.879 117.793 108.733C117.783 108.702 117.774 108.669 117.767 108.637C117.601 107.925 117.72 107.098 117.713 106.379C117.713 105.913 117.713 105.448 117.693 104.986C117.586 105.021 117.47 105.048 117.347 105.075L118.232 63.3654L118.494 63.4231L118.624 63.4539L118.717 63.4769L118.955 63.5346L119.125 63.5731H119.151L119.305 63.6039H119.328L119.49 63.627C119.853 63.6625 120.219 63.6391 120.575 63.5577L120.698 63.5346L120.806 63.5116L120.933 63.4846L121.079 63.45L121.19 63.4231L121.487 63.35L122.106 93.1681L122.344 104.64V105.09C122.166 105.063 121.99 105.023 121.817 104.971C121.817 105.432 121.817 105.898 121.817 106.363C121.817 107.071 121.925 107.902 121.764 108.595C121.765 108.603 121.765 108.613 121.764 108.621L121.74 108.718C121.698 108.864 121.502 109.129 121.594 109.283C121.687 109.437 121.764 109.414 121.925 109.418C122.541 109.418 123.187 109.376 123.795 109.418C124.564 109.491 125.13 109.976 125.78 110.268C126.449 110.562 127.154 110.765 127.876 110.872C129.329 111.07 130.802 111.07 132.254 110.872C133.235 110.764 133.355 110.487 133.324 110.31V110.214C133.374 109.691 133.151 108.575 130.6 108.071C130.427 108.037 130.246 108.006 130.054 107.979L129.946 107.96L129.838 107.941H129.808L129.469 107.867H129.442L129.227 107.814L128.884 107.717L128.5 107.59C128.361 107.544 128.223 107.49 128.076 107.433C127.976 107.394 127.873 107.348 127.773 107.302C127.555 107.207 127.343 107.101 127.138 106.983C127.007 106.906 126.876 106.829 126.753 106.74C126.594 106.632 126.441 106.515 126.295 106.39C125.713 105.962 125.301 105.342 125.13 104.64C125.075 104.681 125.017 104.718 124.957 104.751C124.957 104.598 124.983 104.444 124.995 104.274C124.995 104.167 125.014 104.055 125.026 103.94L125.049 103.651V103.509C125.049 103.44 125.049 103.37 125.049 103.297C125.049 103.224 125.049 103.147 125.049 103.074V102.901C125.049 102.797 125.049 102.689 125.076 102.582V102.439C125.076 102.359 125.076 102.278 125.076 102.193C125.076 102.109 125.076 102.001 125.103 101.905C125.13 101.808 125.103 101.766 125.103 101.697C125.103 101.628 125.103 101.547 125.103 101.474L125.137 101.089V100.958C125.137 100.835 125.157 100.708 125.168 100.574V100.416C125.199 100.058 125.234 99.6888 125.268 99.3118V99.2617C125.303 98.877 125.337 98.4923 125.372 98.1077V98.0999C125.372 97.9307 125.407 97.7537 125.422 97.5806V97.4152C125.422 97.2613 125.449 97.1036 125.464 96.9458V96.8343C125.464 96.6612 125.499 96.4881 125.514 96.3111V96.2111C125.514 96.0303 125.549 95.8456 125.568 95.6609V95.5763C125.568 95.3917 125.603 95.1916 125.622 95.0223V94.93C125.664 94.503 125.703 94.0721 125.745 93.6413V93.5759L125.803 92.9834V92.8219C125.861 92.264 125.914 91.7024 125.972 91.1407C125.972 91.0907 125.972 91.0407 125.972 90.9945C126.03 90.4252 126.088 89.8404 126.149 89.2903C126.149 89.2326 126.149 89.1788 126.149 89.121C126.149 89.0633 126.149 88.9518 126.176 88.871L126.211 88.544L126.245 88.2401C126.245 88.1478 126.245 88.0516 126.272 87.9631L126.307 87.6515C126.307 87.5592 126.307 87.463 126.338 87.3668L126.372 87.0398C126.372 86.959 126.372 86.8744 126.403 86.7898L126.438 86.4705C126.438 86.382 126.438 86.2897 126.465 86.205C126.465 86.0627 126.499 85.9242 126.515 85.7857C126.515 85.7395 126.515 85.6895 126.515 85.6434C126.538 85.451 126.557 85.2587 126.58 85.074V84.9817C126.58 84.8278 126.615 84.6701 126.634 84.5123C126.634 84.4585 126.634 84.4046 126.634 84.3508L126.68 83.9661L126.703 83.7853C126.703 83.6699 126.73 83.5506 126.745 83.439C126.761 83.3275 126.745 83.2852 126.772 83.2082C126.799 83.1313 126.795 83.0043 126.811 82.9043C126.826 82.8043 126.811 82.7581 126.838 82.685C126.865 82.6119 126.861 82.4811 126.876 82.3849C126.892 82.2888 126.876 82.2426 126.903 82.1695L126.938 81.8772C126.938 81.8079 126.938 81.7348 126.969 81.6656L127.003 81.3809C127.003 81.3116 127.003 81.2424 127.03 81.1731C127.057 81.1039 127.057 80.9885 127.069 80.9C127.08 80.8115 127.088 80.7654 127.095 80.7C127.103 80.6346 127.122 80.5192 127.134 80.4307C127.145 80.3422 127.134 80.2999 127.161 80.2345L127.196 79.9844C127.196 79.9152 127.195 79.8498 127.226 79.7844L127.261 79.5497C127.261 79.4843 127.28 79.4189 127.288 79.3535C127.296 79.2881 127.315 79.1958 127.326 79.1189C127.338 79.0419 127.326 79.0034 127.353 78.9457L127.388 78.7111C127.388 78.6572 127.388 78.6033 127.415 78.5495C127.442 78.4956 127.438 78.3956 127.453 78.3187L127.476 78.1725C127.476 78.0879 127.507 78.0032 127.519 77.9186C127.53 77.834 127.519 77.8493 127.519 77.8186C127.519 77.6993 127.561 77.5877 127.58 77.48C127.634 77.1877 127.684 76.903 127.734 76.6222C127.734 76.5298 127.765 76.4375 127.784 76.3413L128.207 75.7873C128.207 75.6796 128.242 75.5758 128.261 75.4681L128.342 74.9679C128.342 74.8602 128.377 74.7487 128.392 74.641C128.407 74.5332 128.442 74.3216 128.465 74.1678L128.511 73.8408C128.534 73.6869 128.557 73.533 128.577 73.3791C128.596 73.2253 128.607 73.1675 128.619 73.0637C128.63 72.9598 128.661 72.7559 128.68 72.6059C128.7 72.4558 128.704 72.4097 128.719 72.3097L128.777 71.8249C128.777 71.7442 128.777 71.6595 128.804 71.5749C128.827 71.3787 128.85 71.1902 128.869 70.9863C128.869 70.944 128.869 70.9017 128.869 70.8593L128.938 70.1592C128.938 70.1015 128.938 70.0476 128.938 69.9938C128.938 69.8207 128.969 69.6475 128.981 69.4783C128.981 69.4013 128.981 69.3244 128.981 69.2474L129.015 68.8127C129.015 68.7319 129.015 68.6473 129.015 68.5665C129.015 68.4857 129.015 68.2972 129.042 68.1818C129.069 68.0664 129.042 68.0164 129.042 67.9318C129.042 67.8471 129.042 67.674 129.061 67.5471V67.3047C129.061 67.1778 129.061 67.0547 129.061 66.92C129.061 66.7854 129.061 66.7661 129.061 66.693C129.061 66.5622 129.061 66.4314 129.061 66.3083C129.061 66.2429 129.061 66.1737 129.061 66.1083C129.061 65.9544 129.061 65.8044 129.061 65.6582V65.5389C129.061 65.3504 129.061 65.1542 129.061 64.9734V64.9504C129.061 64.7772 129.061 64.608 129.061 64.4387C129.061 64.3848 129.061 64.3348 129.061 64.281C129.061 64.1579 129.061 64.0348 129.061 63.9155C129.061 63.854 129.061 63.7963 129.061 63.7347V63.4077C129.061 63.3462 129.061 63.2846 129.061 63.2269C129.061 63.1692 129.061 63.0153 129.061 62.9114C129.061 62.8076 129.061 62.7922 129.061 62.7345C129.061 62.6768 129.061 62.5306 129.042 62.4267V62.2613L129.019 61.9497V61.8074C129.019 61.6958 128.996 61.5842 128.988 61.4727V61.3649C128.957 61.0764 128.927 60.7917 128.892 60.5225V60.4378C128.892 60.334 128.865 60.2262 128.85 60.1262C128.834 60.0262 128.85 60.0454 128.85 60.007C128.85 59.9685 128.823 59.83 128.811 59.7415L128.788 59.6146C128.788 59.5338 128.761 59.453 128.75 59.3722L128.727 59.2452C128.727 59.1683 128.696 59.0875 128.684 59.0144L128.661 58.8913L128.615 58.6644L128.592 58.5528C128.592 58.4759 128.557 58.3951 128.538 58.3181C128.534 58.2883 128.527 58.2587 128.519 58.2296C128.496 58.1335 128.477 58.0411 128.453 57.9488V57.9219C128.427 57.818 128.403 57.7141 128.377 57.618V57.5795C128.353 57.4949 128.33 57.4141 128.311 57.3333C128.3 57.307 128.291 57.28 128.284 57.2525C128.284 57.1871 128.25 57.1217 128.23 57.0602C128.211 56.9986 128.23 56.9986 128.203 56.9717C128.176 56.9447 128.165 56.8563 128.15 56.7986L128.119 56.7062C128.119 56.6562 128.084 56.6024 128.065 56.5523C128.056 56.521 128.046 56.4902 128.034 56.46L127.984 56.31L127.953 56.2292C127.953 56.1753 127.915 56.1292 127.896 56.0792C127.888 56.0542 127.879 56.0298 127.869 56.0061C127.869 55.9522 127.826 55.9022 127.807 55.8484C127.806 55.8317 127.806 55.815 127.807 55.7983L127.723 55.5983V55.5714L127.653 55.4136L127.623 55.3482C127.607 55.31 127.589 55.2727 127.569 55.2367C127.56 55.2129 127.55 55.1898 127.538 55.1674L127.492 55.0713C127.48 55.0461 127.468 55.0217 127.453 54.9982C127.453 54.9712 127.426 54.9443 127.411 54.9135L127.376 54.8481C127.376 54.8212 127.349 54.7943 127.334 54.7712C127.323 54.7473 127.31 54.7242 127.296 54.7019L127.261 54.6365L127.222 54.5711L127.188 54.5134L127.149 54.448L127.126 54.4096C127.072 54.3211 127.019 54.2403 126.969 54.1672V54.1441L126.926 54.0826V54.0556L126.884 53.9979V53.9787L126.842 53.9249L126.803 53.871L126.657 53.7017L126.607 53.6517L126.576 53.6209C126.407 53.4863 126.249 53.3517 126.095 53.2132L125.972 53.1016L125.514 52.7053L125.422 52.613C125.291 52.4784 125.168 52.3437 125.037 52.2283C125.037 52.2052 124.999 52.1783 124.976 52.1552C124.887 52.0475 124.799 51.9398 124.718 51.8282L124.637 51.7167C124.553 51.6064 124.476 51.4948 124.406 51.382L124.372 51.3281C124.295 51.2012 124.222 51.0742 124.156 50.9434C124.156 50.9126 124.122 50.878 124.106 50.8472C124.056 50.7472 124.014 50.6511 123.972 50.5549L123.929 50.4549C123.879 50.329 123.835 50.2006 123.799 50.0702V50.0355C123.764 49.924 123.737 49.8163 123.714 49.7085L123.691 49.6085C123.691 49.5123 123.656 49.4162 123.641 49.3238C123.643 49.2995 123.643 49.2751 123.641 49.2507C123.626 49.1384 123.617 49.0254 123.614 48.9122C123.616 48.8866 123.616 48.8609 123.614 48.8353C123.614 48.7468 123.614 48.6583 123.614 48.5737C123.614 48.489 123.614 48.5121 123.614 48.4813C123.614 48.3813 123.614 48.2775 123.641 48.1813C123.642 48.1749 123.642 48.1684 123.641 48.162C123.641 48.0582 123.672 47.9582 123.695 47.8543C123.693 47.8261 123.693 47.7978 123.695 47.7696C123.71 47.6927 123.729 47.6158 123.752 47.5388C123.752 47.5157 123.752 47.4888 123.752 47.4619L123.845 47.1811L123.868 47.1272C123.895 47.0503 123.926 46.9772 123.956 46.9079L123.991 46.8233C124.022 46.754 124.056 46.6848 124.091 46.6155L124.114 46.5617L124.241 46.3309L124.437 46.0077L124.487 45.9308L124.66 45.6846L124.707 45.6192L124.922 45.3499C125.064 45.1806 125.199 45.0306 125.307 44.9075C125.414 44.7844 125.634 44.592 125.722 44.5228L125.807 44.4535C126.128 44.2194 126.431 43.9622 126.715 43.6841C127.18 43.2384 127.58 42.7295 127.903 42.1723C127.904 42.1633 127.904 42.1543 127.903 42.1453C128.292 41.4594 128.538 40.7016 128.627 39.9179C128.686 39.3605 128.67 38.7977 128.58 38.2445C131.058 40.0141 134.286 41.8991 136.274 41.4144V41.4837C136.465 41.4197 136.645 41.329 136.809 41.2144C136.987 41.1119 137.148 40.9821 137.286 40.8297C138.998 39.1793 140.148 35.2207 140.491 34.0705C140.645 33.5473 141.772 29.8388 142.207 29.8888C143.482 29.9592 144.746 29.6238 145.819 28.9309C146.271 28.5734 146.776 28.288 147.315 28.0846C149.7 27.7729 148.123 27.3459 148.123 27.3459C151.37 26.8612 149.458 26.3496 149.458 26.3496C151.089 25.9418 148.981 25.8456 148.981 25.8456ZM109.742 24.049C109.853 24.0191 109.958 23.971 110.053 23.9067C110.189 23.8201 110.318 23.7223 110.438 23.6143C110.646 23.4335 110.853 23.2527 111.065 23.0758C111.83 23.3974 112.651 23.5622 113.481 23.5605H113.673L113.708 23.6567L113.777 23.8413C113.816 23.9375 113.854 24.0337 113.896 24.1298L113.977 24.3222L114.104 24.5953C114.135 24.6569 114.166 24.7223 114.2 24.7877C114.235 24.8531 114.289 24.9608 114.339 25.0454L114.443 25.2301L114.597 25.4801L114.712 25.6571C114.77 25.7417 114.827 25.8225 114.889 25.9033L115.008 26.0649C115.074 26.1534 115.147 26.238 115.22 26.3188C115.293 26.3996 115.289 26.4073 115.328 26.4496C115.439 26.5727 115.555 26.6919 115.678 26.8073L116.062 27.1497C116.189 27.2613 116.316 27.369 116.447 27.469C117.031 27.9501 117.704 28.3109 118.428 28.5308C118.303 29.1433 118.127 29.7443 117.901 30.3274C117.516 30.9006 116.747 31.2276 115.939 31.5122V31.4815C115.554 31.6161 115.17 31.7354 114.82 31.8662L114.539 31.9739H114.493C114.412 32.0046 114.335 32.0393 114.262 32.0739L114.193 32.1047L114.058 32.1739L113.908 31.9777C114.07 32.1931 106.626 35.2823 105.86 35.7132C105.872 35.7362 106.606 28.7078 109.765 24.049H109.742Z" fill="#65B6C1"/>
<path d="M21.8337 13.0539L25.296 10.4494C25.3254 10.4298 25.3458 10.3995 25.353 10.365C25.3602 10.3304 25.3536 10.2945 25.3345 10.2648L24.1996 8.41823L27.5042 7.07178L23.9996 8.28743C23.987 8.29072 23.9754 8.29673 23.9654 8.30503C23.9554 8.31333 23.9474 8.32372 23.9419 8.33547C23.9364 8.34721 23.9335 8.36003 23.9335 8.373C23.9335 8.38597 23.9364 8.39878 23.9419 8.41053L24.9229 10.2763L21.3759 12.6268C21.346 12.6483 21.3211 12.676 21.3031 12.7082C21.2851 12.7404 21.2744 12.7761 21.2719 12.8129C21.2693 12.8496 21.2749 12.8865 21.2882 12.9208C21.3015 12.9552 21.3223 12.9862 21.349 13.0115C21.4126 13.0734 21.4955 13.1114 21.5838 13.1191C21.6722 13.1268 21.7604 13.1037 21.8337 13.0539Z" fill="#65B6C1"/>
<path d="M23.1417 14.3351C23.1019 14.336 23.0628 14.345 23.0266 14.3616C22.9904 14.3782 22.958 14.402 22.9314 14.4315C22.9047 14.461 22.8844 14.4957 22.8716 14.5334C22.8588 14.571 22.8538 14.6109 22.857 14.6506C22.878 14.7323 22.9297 14.8027 23.0014 14.8471C23.0731 14.8916 23.1592 14.9066 23.2417 14.8891L27.9158 14.3313C27.9487 14.3283 27.9804 14.3178 28.0084 14.3004C28.0365 14.283 28.0601 14.2593 28.0774 14.2312L28.9545 12.6463L35.8791 14.6121L28.9083 12.3308C28.8712 12.3189 28.8313 12.3188 28.794 12.3305C28.7568 12.3422 28.7242 12.3652 28.7006 12.3962L27.7234 13.9658L23.1417 14.3351Z" fill="#65B6C1"/>
<path d="M27.5849 17.4474L23.1609 16.3895H23.1378C23.0585 16.3735 22.9761 16.3865 22.9055 16.426C22.835 16.4655 22.7809 16.529 22.7531 16.6049C22.7465 16.6438 22.7482 16.6836 22.7578 16.7218C22.7675 16.7601 22.785 16.7959 22.8093 16.827C22.8335 16.8581 22.8639 16.8838 22.8986 16.9025C22.9333 16.9212 22.9715 16.9326 23.0108 16.9357L27.4156 17.7244L29.2237 21.8791L27.7234 17.5474C27.7106 17.5204 27.6912 17.4971 27.667 17.4796C27.6428 17.4621 27.6146 17.451 27.5849 17.4474Z" fill="#65B6C1"/>
<path d="M33.8749 39.7791C33.9127 39.7667 33.9442 39.7401 33.9629 39.705C33.9815 39.6698 33.9859 39.6288 33.9749 39.5906L31.282 31.0156L33.5364 39.5329L27.4158 41.8642C27.3775 41.8753 27.3423 41.8952 27.313 41.9223C27.2837 41.9493 27.261 41.9828 27.2469 42.0201C27.2327 42.0574 27.2274 42.0975 27.2313 42.1372C27.2353 42.1769 27.2484 42.2151 27.2696 42.2489C27.3208 42.3159 27.3925 42.3642 27.4739 42.3864C27.5552 42.4087 27.6415 42.4036 27.7197 42.372L33.8749 39.7868V39.7791Z" fill="#65B6C1"/>
<path d="M24.3651 108.102C24.1958 108.067 24.0111 108.036 23.8188 108.01L23.7111 107.99L23.6034 107.971H23.5764C23.4841 107.971 23.3687 107.929 23.2379 107.898H23.2071L22.9917 107.844L22.6531 107.748L22.2684 107.621C22.1299 107.575 21.9876 107.525 21.8453 107.467L21.5375 107.332C21.3215 107.238 21.1109 107.131 20.9066 107.013C20.7758 106.936 20.645 106.859 20.5219 106.771C20.3636 106.662 20.2108 106.545 20.0641 106.421C19.5223 105.978 19.1478 105.363 19.0023 104.678C18.9473 104.719 18.8894 104.756 18.8292 104.79C18.8292 104.636 18.8561 104.482 18.8715 104.313C18.8715 104.205 18.8715 104.093 18.8985 103.978C18.8985 103.751 18.9408 103.512 18.96 103.262V103.132V102.916C18.96 102.839 18.96 102.762 18.9793 102.681C18.9985 102.601 18.9793 102.497 19.0062 102.404V102.266C19.0062 102.154 19.0062 102.039 19.0369 101.924V101.824L19.0716 101.439V101.277C19.0716 101.162 19.0908 101.05 19.1024 100.935V100.816C19.1293 100.519 19.1562 100.219 19.1831 99.9078C19.1831 99.8078 19.1831 99.7077 19.2101 99.6077L19.2678 98.9845V98.8114L19.3024 98.4498V98.2382L19.337 97.8535V97.665C19.337 97.5226 19.3639 97.3765 19.3793 97.2303V97.0918C19.3793 96.9417 19.4063 96.7917 19.4216 96.6417V96.4955C19.4216 96.3532 19.4486 96.207 19.4601 96.0646L19.4832 95.8454L19.5178 95.4799L19.5409 95.2144C19.5409 95.0836 19.5678 94.9528 19.5794 94.8297V94.6913C19.5794 94.5258 19.614 94.3643 19.6294 94.1988V94.145L19.6756 93.6679C19.6756 93.5064 19.7102 93.341 19.7256 93.1755V93.0794C19.7256 92.9947 19.7448 92.9101 19.7525 92.8255C19.8064 92.2676 19.8641 91.706 19.9179 91.1443V90.9981C19.9756 90.4288 20.0372 89.844 20.0949 89.2939L20.1141 89.1246C20.1141 89.04 20.1141 88.9554 20.1411 88.8746L20.1757 88.5437C20.1757 88.4553 20.1757 88.3629 20.2026 88.2745L20.2372 87.9475C20.2372 87.8628 20.2564 87.782 20.2641 87.6974C20.2718 87.6128 20.2911 87.4666 20.3026 87.3512L20.3257 87.1588C20.3257 87.028 20.3526 86.8934 20.368 86.7741C20.368 86.728 20.368 86.6818 20.368 86.6356L20.4142 86.2048V86.1009C20.4719 85.5854 20.5334 85.0738 20.5911 84.5621V84.5352L20.6373 84.1312C20.6373 84.0851 20.6373 84.0351 20.6373 83.9889C20.6373 83.8773 20.6642 83.7696 20.6796 83.6619C20.695 83.5542 20.6796 83.5157 20.7066 83.4426L20.7412 83.1387C20.7412 83.0656 20.7412 82.9925 20.7681 82.9194C20.795 82.8463 20.795 82.7232 20.8066 82.6271C20.8181 82.5309 20.8258 82.4732 20.8335 82.3962C20.8412 82.3193 20.8566 82.2116 20.872 82.1193C20.8874 82.0269 20.8912 81.9692 20.8989 81.8923C20.9066 81.8153 20.922 81.7038 20.9374 81.6115C20.9527 81.5191 20.9374 81.473 20.9643 81.4037L20.9989 81.1344C20.9989 81.0613 21.0182 80.9882 21.0297 80.9151C21.0413 80.842 21.0528 80.7497 21.0605 80.6689L21.0951 80.4458C21.0951 80.365 21.1143 80.2881 21.1259 80.2073C21.1374 80.1265 21.1259 80.0688 21.1566 79.9996L21.1913 79.7649C21.1913 79.6918 21.2105 79.6226 21.2221 79.5533C21.2336 79.4841 21.222 79.4148 21.2528 79.3456L21.2875 79.1263C21.2875 79.0609 21.3067 78.9955 21.3144 78.9301L21.349 78.7185C21.349 78.657 21.3682 78.5993 21.3759 78.5415C21.3836 78.4838 21.4029 78.3915 21.4144 78.3146C21.426 78.2376 21.4144 78.2145 21.4413 78.1645C21.4682 78.1145 21.4683 78.0068 21.4798 77.9299L21.5029 77.8068C21.5208 77.6914 21.5401 77.5798 21.5606 77.4721C21.6145 77.1797 21.6683 76.895 21.7145 76.6142C21.7145 76.5219 21.7491 76.4295 21.7645 76.3334C21.7953 76.1487 21.8299 75.9487 21.8607 75.7756C21.8607 75.6678 21.8953 75.564 21.9107 75.4563C21.9414 75.287 21.9684 75.1216 21.9915 74.9561C21.9915 74.8484 22.0261 74.7369 22.0453 74.6292C22.0645 74.5214 22.0915 74.3098 22.1145 74.156C22.1376 74.0021 22.1492 73.9367 22.1646 73.829C22.1799 73.7213 22.2069 73.5212 22.2261 73.3673L22.2723 73.0519L22.33 72.5941C22.33 72.4941 22.3569 72.3979 22.3685 72.2979L22.4262 71.8131C22.4262 71.7324 22.4262 71.6477 22.4569 71.5631C22.48 71.3669 22.4993 71.1784 22.5223 70.9745V70.8475C22.5493 70.6129 22.5724 70.3782 22.5916 70.1474C22.5916 70.0897 22.5916 70.0358 22.5916 69.982L22.6378 69.4665C22.6378 69.3895 22.6378 69.3126 22.6378 69.2357C22.6378 69.0895 22.6608 68.9471 22.6685 68.8009C22.6685 68.7202 22.6685 68.6355 22.6685 68.5547L22.6916 68.1508C22.6916 68.07 22.6916 67.9892 22.6916 67.9084L22.7147 67.5237V67.2891C22.7147 67.1583 22.7147 67.0313 22.7147 66.9044C22.7147 66.7774 22.7147 66.7543 22.7147 66.6812V66.2965C22.7147 66.2311 22.7147 66.1657 22.7147 66.1004C22.7147 65.9465 22.7147 65.7964 22.7147 65.6464C22.7147 65.6079 22.7147 65.5695 22.7147 65.531V64.9424C22.7147 64.7693 22.7147 64.5962 22.7147 64.4269C22.7147 64.3807 22.7147 64.3307 22.7147 64.2846C22.7147 64.1576 22.7147 64.0307 22.7147 63.8999C22.7147 63.8422 22.7147 63.7883 22.7147 63.7306V63.3921C22.7147 63.3344 22.7147 63.2767 22.7147 63.2151C22.7147 63.1535 22.7147 63.0035 22.7147 62.8958V62.7227C22.7147 62.6188 22.7147 62.5149 22.7147 62.4111V62.2534L22.6916 61.9341V61.7956C22.6916 61.6801 22.6916 61.5609 22.6608 61.4455C22.6588 61.416 22.6588 61.3865 22.6608 61.357C22.6301 61.0646 22.5993 60.7799 22.5608 60.5068C22.5629 60.4863 22.5629 60.4657 22.5608 60.4453C22.5454 60.3298 22.53 60.2183 22.5146 60.1106C22.5168 60.0747 22.5168 60.0387 22.5146 60.0029C22.5146 59.9105 22.4877 59.8182 22.4723 59.7259C22.4569 59.6335 22.4723 59.6489 22.4531 59.6066C22.4338 59.5643 22.4262 59.4373 22.4108 59.3527C22.3954 59.2681 22.4108 59.2758 22.3915 59.2373L22.3454 58.9949L22.3223 58.8872C22.3223 58.8026 22.2915 58.7218 22.2723 58.641C22.2678 58.6099 22.2613 58.579 22.2531 58.5487C22.2531 58.4602 22.2184 58.3756 22.1992 58.2948C22.18 58.214 22.1992 58.2448 22.1992 58.2217C22.1492 58.0063 22.0992 57.7985 22.0453 57.6023C22.0184 57.51 21.9915 57.4138 21.9684 57.3215V57.2638L21.9068 57.0522L21.8837 56.9753L21.826 56.7906C21.826 56.7637 21.8068 56.7368 21.7991 56.7137L21.7414 56.5367L21.7183 56.4636C21.6952 56.4059 21.676 56.3482 21.6568 56.2943L21.6337 56.2328C21.6106 56.1712 21.5914 56.1135 21.5683 56.0558V56.0097C21.5452 55.9404 21.5183 55.875 21.4913 55.8135L21.3221 55.4288V55.398L21.2528 55.2518C21.2535 55.2377 21.2535 55.2236 21.2528 55.2095C21.2297 55.1672 21.2105 55.1249 21.1913 55.0864L21.1682 55.0364L21.1105 54.9287L21.0874 54.8786C21.0874 54.844 21.0489 54.8133 21.0335 54.7786L21.0066 54.7363C21.0066 54.7017 20.972 54.6709 20.9528 54.6363V54.6017L20.8912 54.5016V54.4786C20.8412 54.3978 20.795 54.3208 20.7489 54.2554C20.7489 54.2285 20.7143 54.2016 20.695 54.1785V54.1477L20.6527 54.09L20.6296 54.0592L20.595 54.0092L20.5719 53.9823C20.5639 53.9667 20.5535 53.9524 20.5411 53.94L20.5181 53.9131L20.4911 53.8784V53.8515L20.4642 53.8246V53.7976L20.3988 53.7245L20.3526 53.6745L20.3257 53.6438C20.1564 53.5091 19.9987 53.3745 19.8487 53.2398L19.7217 53.1244L19.3947 52.809L19.2986 52.7089C19.1716 52.5781 19.0485 52.4473 18.9369 52.3242L18.8715 52.2512L18.6176 51.928L18.533 51.8126C18.4522 51.701 18.3753 51.5895 18.306 51.4779C18.2931 51.4608 18.2816 51.4428 18.2714 51.424C18.1893 51.2984 18.1162 51.1701 18.0521 51.0393L18.0059 50.9432C17.9559 50.8431 17.9098 50.747 17.8675 50.6508C17.8675 50.6162 17.8405 50.5854 17.8252 50.5508C17.779 50.4277 17.7328 50.3046 17.6943 50.1661V50.1276C17.6636 50.016 17.6328 49.9122 17.6097 49.8045L17.5866 49.7044C17.5674 49.6083 17.552 49.5121 17.5405 49.4198V49.3467C17.5405 49.2351 17.5174 49.1197 17.5135 49.0081V48.8581C17.5135 48.7696 17.5135 48.6811 17.5135 48.5965C17.5135 48.5119 17.5135 48.535 17.5135 48.5042C17.5166 48.4024 17.5256 48.301 17.5405 48.2003C17.5405 48.0925 17.5751 47.9925 17.5943 47.8887C17.5961 47.8605 17.5961 47.8322 17.5943 47.804L17.652 47.577L17.6751 47.4963C17.702 47.4039 17.7328 47.3078 17.7674 47.2154C17.7674 47.1962 17.7674 47.177 17.7674 47.1577C17.7674 47.1385 17.8252 47.0115 17.8559 46.9423C17.8664 46.9131 17.8793 46.8848 17.8944 46.8577C17.9252 46.7884 17.9559 46.7192 17.9906 46.6499L18.0175 46.5961C18.056 46.5191 18.0983 46.4422 18.1445 46.3652C18.206 46.2537 18.2714 46.1421 18.3406 46.0382L18.3906 45.9652L18.5638 45.7189L18.6099 45.6574C18.6792 45.5612 18.7523 45.4689 18.8215 45.3843C18.9639 45.215 19.1023 45.065 19.2062 44.9418C19.3101 44.8187 19.3447 44.8034 19.4063 44.7495L19.5486 44.6187L19.6217 44.5533L19.7102 44.4841C19.864 44.3725 20.0141 44.2532 20.1564 44.134L20.3026 44.007C20.3988 43.9224 20.495 43.8378 20.5834 43.7493C21.3938 42.9966 21.9944 42.046 22.3261 40.991L22.3838 40.7948C22.4575 40.5183 22.5102 40.2367 22.5416 39.9523C22.5416 39.7984 22.5723 39.6407 22.5762 39.483C22.587 39.1643 22.5728 38.8453 22.5339 38.5289C22.5339 38.475 22.5339 38.425 22.5108 38.3712C26 39.4483 27.9812 39.406 29.0507 38.8713L29.2123 38.7866C29.4447 38.6518 29.6496 38.4743 29.8162 38.2635C29.9627 38.0714 30.0747 37.8553 30.1471 37.6249C30.1768 37.534 30.2012 37.4415 30.2202 37.3479C30.2552 37.1653 30.2733 36.9798 30.274 36.7939C30.2819 36.6568 30.2819 36.5194 30.274 36.3823C30.2475 36.1308 30.2038 35.8815 30.1433 35.636C30.124 35.5629 30.1048 35.4898 30.0855 35.4244C30.0285 35.2186 29.9578 35.0168 29.874 34.8204C29.7816 34.5011 29.6855 34.1856 29.5893 33.8702L29.5239 33.6663C29.4277 33.3662 29.3315 33.0662 29.2277 32.7738L29.2046 32.7007C29.093 32.3814 28.9815 32.0698 28.866 31.7582C28.8541 31.7306 28.8439 31.7023 28.8353 31.6735C28.7199 31.3619 28.6006 31.058 28.4813 30.7541C28.4649 30.7178 28.4508 30.6806 28.439 30.6426C28.3351 30.3848 28.2313 30.1271 28.1236 29.8732C28.1236 29.8501 28.1043 29.827 28.0966 29.8078C27.9889 29.5539 27.8812 29.3115 27.7735 29.0691C27.7466 29.0037 27.7158 28.9383 27.685 28.8729C27.5735 28.619 27.458 28.3728 27.3465 28.1343C27.3465 28.0881 27.3041 28.0458 27.2849 28.0035L27.031 27.3534C27.0041 27.3034 26.981 27.2495 26.9541 27.1995C26.8464 26.9802 26.7386 26.7686 26.6348 26.5609C26.604 26.507 26.5771 26.4532 26.5501 26.3993C26.4501 26.1993 26.3462 26.0146 26.2501 25.8261V25.7953C26.1462 25.603 26.05 25.4106 25.95 25.2414L25.8808 25.1106C25.7846 24.9336 25.6884 24.7643 25.5961 24.5989L25.5499 24.522C25.4653 24.3681 25.3807 24.2258 25.2999 24.0873L25.2614 24.0219L24.9921 23.5756L24.9729 23.541C24.4497 22.6831 24.1111 22.1984 24.1111 22.1984L24.0765 22.1753C23.988 22.0214 23.8842 21.856 23.7688 21.6906C23.1859 20.8587 22.543 20.0706 21.8453 19.3324C21.5798 19.0785 21.2605 18.7553 20.9066 18.4322C20.9835 17.9244 21.0489 17.3627 21.099 16.8626C21.1374 16.4779 21.1682 16.1432 21.1836 15.8855C21.1836 15.8008 21.1836 15.7277 21.1836 15.6623C21.1876 15.5957 21.1876 15.5289 21.1836 15.4623C21.1042 14.8288 20.889 14.2199 20.5527 13.6773C20.2004 13.1165 19.7556 12.6196 19.237 12.2077H19.2139C19.0947 12.1116 18.9716 12.0231 18.8292 11.9346C18.8292 11.8769 18.8523 11.8153 18.86 11.7538C18.8677 11.6922 18.86 11.6807 18.86 11.6461C18.8755 11.5184 18.8832 11.39 18.8831 11.2614C18.8823 11.1328 18.8746 11.0044 18.86 10.8767C18.86 10.8344 18.86 10.7882 18.8331 10.7459C18.8223 10.6576 18.8056 10.5702 18.7831 10.4843C18.7831 10.4304 18.7523 10.3804 18.7369 10.3304C18.7215 10.2804 18.6907 10.1765 18.6638 10.1034C18.6369 10.0303 18.6176 9.99955 18.5946 9.94569C18.5715 9.89184 18.533 9.8072 18.4984 9.73796C18.4638 9.66871 18.4407 9.63409 18.4099 9.58023L18.2945 9.39173C18.2599 9.33787 18.2214 9.28786 18.1829 9.234C18.1414 9.17501 18.0964 9.11849 18.0483 9.06473L17.9213 8.91085L17.7713 8.75697L17.6213 8.61079C17.5674 8.56077 17.5135 8.51846 17.4558 8.47229C17.4021 8.42292 17.3456 8.37668 17.2866 8.3338L17.1173 8.2107L16.9211 8.0799L16.748 7.97988L16.5326 7.85293L16.3748 7.77983C16.0583 7.62343 15.7288 7.49472 15.39 7.39513L15.24 7.35282L14.9476 7.29127L14.7591 7.25279C14.6629 7.23356 14.5668 7.22202 14.4667 7.21048L14.3167 7.19124C14.0842 7.16542 13.8505 7.15129 13.6165 7.14893C10.712 7.14893 8.35769 8.99164 8.35769 11.2614C8.36046 11.4787 8.38495 11.6952 8.43078 11.9077C8.43586 11.9324 8.44228 11.9568 8.45001 11.9808C6.59576 13.1656 5.08772 15.343 6.73039 19.2901V19.4939C6.73039 19.544 6.73039 19.5978 6.73039 19.6478C6.49751 19.514 6.22231 19.4741 5.96099 19.5363C5.36086 19.7055 5.14158 20.5173 5.47627 21.3482C5.81096 22.1792 6.56882 22.7216 7.16896 22.5523H7.19204C7.21127 22.6254 7.22667 22.6985 7.2459 22.7677L7.26898 22.837C7.30745 22.9793 7.34977 23.1178 7.39209 23.2563C7.39209 23.3063 7.42671 23.3563 7.4421 23.4063C7.48057 23.5141 7.51519 23.6256 7.55751 23.7372L7.62675 23.9142C7.66137 24.0142 7.70369 24.1103 7.74216 24.2104L7.8268 24.3989C7.86527 24.4874 7.90757 24.5797 7.95374 24.672L8.04608 24.8605L8.18457 25.1221C8.21919 25.1837 8.2538 25.2452 8.29227 25.3068C8.33074 25.3683 8.39231 25.476 8.44616 25.5607L8.55772 25.7338C8.61542 25.8184 8.67698 25.8992 8.73469 25.98L8.85394 26.1416C8.92319 26.23 8.99628 26.3147 9.06553 26.3993L9.1771 26.5263C9.28867 26.6494 9.40407 26.7686 9.52717 26.884C9.65027 26.9994 9.77338 27.1149 9.91187 27.2264C10.0388 27.338 10.1696 27.4457 10.2966 27.5496C10.8796 28.0321 11.5532 28.3931 12.2778 28.6113C12.1519 29.2241 11.9743 29.8251 11.7469 30.4079C11.3622 30.9811 10.5928 31.3081 9.78876 31.5928V31.562C9.40406 31.6966 9.01937 31.8159 8.66545 31.9467L8.38462 32.0544H8.33461L8.10763 32.1544L8.03453 32.1852L7.83448 32.2891H7.79987C7.83834 32.2506 7.87296 32.2083 7.91528 32.1698C7.84082 32.1899 7.7676 32.2143 7.69599 32.2429L7.59982 32.2852H7.56521L7.49211 32.3275L7.44978 32.3506L7.36516 32.4045L7.32285 32.4314L7.21512 32.5045L7.18819 32.5276C7.13892 32.561 7.09141 32.597 7.04585 32.6353L6.99969 32.6738L6.88813 32.7661L6.83042 32.82L6.72271 32.9161L6.6573 32.9777L6.53804 33.0931L6.4842 33.1508C6.42265 33.2085 6.36493 33.2701 6.30338 33.3355L6.24952 33.397L6.11488 33.547L6.03794 33.6355C5.99562 33.6817 5.95715 33.7317 5.91483 33.7817L5.87252 33.8548C5.8302 33.9087 5.78403 33.9625 5.74171 34.0202L5.66479 34.1164L5.46474 34.3857C3.99134 36.4169 2.17171 40.0446 0.848338 46.1075C0.848338 46.1075 0.517499 49.4582 7.19974 53.2937L6.89198 53.5553C6.6939 53.7283 6.51466 53.9217 6.35724 54.1323C6.27261 54.2401 6.18413 54.3632 6.08795 54.517C6.04179 54.5824 5.99563 54.6555 5.94946 54.7325L5.92638 54.7671L5.78019 55.0133C5.73018 55.0941 5.68402 55.1826 5.63786 55.2749L5.61478 55.3172C5.56477 55.4095 5.5186 55.5096 5.46859 55.6096L5.43781 55.6711L5.29162 55.9981V56.0251C5.24545 56.1328 5.1993 56.2443 5.15313 56.3597C5.1425 56.3821 5.1335 56.4053 5.1262 56.429C5.07619 56.5482 5.03003 56.6752 4.98386 56.8137C4.97594 56.8439 4.96564 56.8735 4.95308 56.9022C4.90692 57.0355 4.86076 57.174 4.81459 57.3176V57.36C4.77228 57.4946 4.72995 57.637 4.68764 57.7793C4.68045 57.8118 4.67146 57.8439 4.6607 57.8755C4.61839 58.0255 4.57994 58.1832 4.53762 58.3409C4.53762 58.3794 4.53762 58.4179 4.51069 58.4564C4.47222 58.6218 4.42988 58.7949 4.39526 58.9719V59.0257C4.36064 59.1911 4.32603 59.3643 4.29141 59.5412C4.29141 59.5797 4.29141 59.622 4.27218 59.6605C4.23755 59.849 4.20678 60.0452 4.176 60.2337C4.176 60.2798 4.176 60.326 4.176 60.3722C4.14523 60.5761 4.11829 60.7838 4.09136 60.9992C4.09136 60.9992 4.09136 61.0377 4.09136 61.0569C4.06827 61.2608 4.0452 61.4724 4.02596 61.6878C4.02596 61.7379 4.02596 61.784 4.02596 61.834C4.02596 62.0572 3.99134 62.2841 3.97595 62.5188V62.6804C3.97595 62.9266 3.94901 63.1766 3.93747 63.4498V63.5036C3.93747 63.7498 3.93747 64.0037 3.93747 64.273V64.4384C3.93747 64.7039 3.93747 64.977 3.93747 65.254C3.93747 65.3156 3.93747 65.3771 3.93747 65.4387C3.93747 65.731 3.93749 66.0234 3.96057 66.3273V66.3735C3.96057 66.6697 3.99135 66.9698 4.00673 67.2775V67.4699C4.00673 67.7815 4.0529 68.1008 4.07983 68.4239C4.07983 68.4893 4.07983 68.5586 4.07983 68.624C4.1106 68.9664 4.14136 69.3087 4.17983 69.6627V69.6973C4.2183 70.0435 4.26062 70.4013 4.30679 70.7629L4.32987 70.9745C4.37988 71.3323 4.4299 71.7016 4.48376 72.0747L4.51837 72.3017C4.57607 72.6864 4.64147 73.0903 4.70687 73.4943V73.5135C4.77611 73.8982 4.84921 74.3291 4.93 74.7484C4.93 74.8292 4.95692 74.9061 4.97231 74.9869C5.0531 75.3985 5.13389 75.814 5.22237 76.241C5.22237 76.3257 5.257 76.4103 5.27624 76.4949C5.36857 76.9412 5.46475 77.3913 5.56861 77.8529L5.64939 78.2145V78.2799L5.71863 78.6069V78.657C5.74556 78.7801 5.76864 78.907 5.79172 79.0417C5.81865 79.184 5.84559 79.3302 5.86867 79.4802V79.5071C5.86867 79.5764 5.89176 79.6418 5.9033 79.7149C5.91484 79.788 5.92637 79.8534 5.94176 79.9226L5.9764 80.1419L6.01101 80.3535C6.01101 80.4304 6.03795 80.5074 6.04949 80.5843L6.0841 80.8113L6.11873 81.0382C6.11873 81.1152 6.14565 81.1921 6.15719 81.2729L6.19183 81.5076L6.22644 81.7576L6.26107 81.9846C6.26107 82.0692 6.28799 82.1577 6.29953 82.2462C6.31107 82.3347 6.31877 82.4039 6.33031 82.4809C6.34185 82.5578 6.35723 82.6578 6.36877 82.7502C6.38031 82.8425 6.39186 82.9079 6.39956 82.9848C6.40725 83.0618 6.42648 83.1733 6.43802 83.2695C6.44956 83.3657 6.45726 83.4118 6.4688 83.4849C6.48034 83.558 6.49574 83.6965 6.50728 83.8004C6.51882 83.9043 6.50726 83.935 6.53419 84.0004C6.56112 84.0658 6.56499 84.2236 6.57653 84.3351L6.59961 84.5236L6.64577 84.8776C6.64577 84.9314 6.64577 84.9891 6.64577 85.043C6.64577 85.1738 6.67655 85.3046 6.69578 85.4277C6.69578 85.4585 6.69578 85.4892 6.69578 85.5162C6.84582 86.7587 6.98815 88.0513 7.12665 89.3632C7.28437 90.902 7.43825 92.4408 7.58059 93.9796C7.96529 98.3036 8.29613 102.324 8.47309 104.647V104.824L8.35384 104.774L8.29227 104.743C8.22128 104.708 8.15423 104.666 8.09225 104.617C7.946 105.3 7.57155 105.913 7.03047 106.355C6.88483 106.482 6.73198 106.6 6.57268 106.709C6.44572 106.798 6.31877 106.875 6.18798 106.952C5.98193 107.069 5.77007 107.175 5.55321 107.271L5.24546 107.406C5.10312 107.463 4.96079 107.513 4.82615 107.559L4.44145 107.686L4.10674 107.783L3.88748 107.836H3.86055L3.51816 107.913H3.49508L3.38352 107.933L3.27579 107.952C3.08344 107.979 2.8911 108.01 2.72953 108.044C0.175118 108.548 -0.0441673 109.664 0.0058437 110.187V110.283C-0.0287793 110.46 0.094336 110.737 1.07532 110.845C2.52659 111.043 3.99809 111.043 5.44936 110.845C6.17332 110.738 6.87973 110.535 7.54981 110.241C8.19995 109.948 8.76931 109.471 9.53102 109.391C10.1427 109.333 10.789 109.391 11.4045 109.391C11.5661 109.391 11.6507 109.391 11.7353 109.256C11.82 109.121 11.6315 108.837 11.5892 108.69L11.5661 108.594C11.5661 108.594 11.5661 108.575 11.5661 108.567C11.4083 107.863 11.5276 107.029 11.5161 106.336C11.5161 105.871 11.5161 105.405 11.5161 104.944C11.4083 104.978 11.2891 105.005 11.166 105.032L12.0547 63.3228L12.3124 63.3805L12.4432 63.4113L12.5394 63.4344L12.774 63.4921L12.9433 63.5306H12.9741L13.1241 63.5613H13.1472C13.201 63.5613 13.2549 63.5806 13.3088 63.5844C13.7165 63.6215 14.1276 63.589 14.5244 63.4882H14.6244L14.7206 63.4767L14.863 63.4459L14.9745 63.419L15.2707 63.3459V63.3767L15.8286 90.2595V90.5596L15.8709 92.6523V93.164L16.1209 105.09C15.9415 105.062 15.7641 105.022 15.59 104.97C15.59 105.432 15.59 105.898 15.59 106.363C15.59 107.079 15.7016 107.902 15.5362 108.621L15.5092 108.717C15.4669 108.864 15.2707 109.129 15.3631 109.283C15.4554 109.437 15.5362 109.414 15.6977 109.418C16.3094 109.418 16.9596 109.375 17.5674 109.418C18.3368 109.491 18.8985 109.975 19.5486 110.268C20.2188 110.561 20.9252 110.765 21.6491 110.872C23.1003 111.07 24.5718 111.07 26.0231 110.872C27.0041 110.764 27.1272 110.487 27.0926 110.31V110.214C27.1387 109.71 26.9195 108.594 24.3651 108.102ZM5.41858 42.4028L5.50705 42.5452C5.5686 42.6375 5.63786 42.7298 5.7071 42.8222C5.77635 42.9145 5.90329 43.0837 6.01486 43.2069C6.12642 43.33 6.1495 43.3723 6.22644 43.4531C6.57759 43.8256 6.96411 44.1632 7.38054 44.461C7.92814 44.9127 8.40304 45.446 8.78855 46.0421L8.90011 46.069C9.41374 46.8076 9.70235 47.6792 9.73102 48.5783C9.7597 49.4775 9.52721 50.3657 9.06167 51.1355C6.80733 49.3659 4.25293 47.2308 3.72589 46.246C4.18867 44.9226 4.75465 43.6376 5.41858 42.4028ZM22.9032 23.9603C26.3655 28.4767 28.0505 36.3323 28.0505 36.3323C27.6042 36.1091 24.8267 34.8627 22.5069 33.774L22.3569 33.7048L22.1761 33.6201L22.0107 33.5393L21.8376 33.4701L21.676 33.3932L21.5029 33.3124L21.3528 33.2393L21.172 33.1508L20.9912 33.0662L20.7758 32.9584C20.7336 32.9403 20.6925 32.9197 20.6527 32.8969L20.5027 32.8238L20.3796 32.7623L20.2526 32.7007L20.1372 32.6391L20.0179 32.5776L19.9179 32.5276L19.7448 32.4353L19.6602 32.3891L19.5832 32.3429L19.5063 32.3006L19.4486 32.266L19.387 32.2275L19.3486 32.2006L19.3024 32.1698C19.2867 32.1589 19.2724 32.146 19.2601 32.1313C19.2601 32.1313 19.237 32.1044 19.2601 32.0967L19.1947 32.1929C19.1598 32.1752 19.1238 32.1598 19.087 32.1467L18.9715 32.0967C18.8464 32.0446 18.7179 32.0009 18.5869 31.9659C18.2022 31.862 17.8175 31.7736 17.5097 31.6812H17.4635C16.4787 31.3966 15.7939 31.0426 15.2477 29.9501C15.2477 29.9501 15.2477 29.9116 15.2246 29.8808L15.1938 29.7693C15.1938 29.7231 15.1669 29.6731 15.1515 29.6154C15.1515 29.5577 15.1207 29.4923 15.1053 29.4231C15.1053 29.3538 15.0707 29.2769 15.0553 29.1999C15.0168 29.0153 14.9745 28.8152 14.9361 28.5998C16.0132 28.2805 16.8172 27.5457 17.6559 26.7571C17.7751 26.6455 17.8867 26.5263 17.9983 26.407L18.106 26.2801C18.1752 26.1993 18.2483 26.1185 18.3137 26.0338L18.433 25.8761L18.6061 25.6376L18.7215 25.4645L18.8715 25.226C18.91 25.1644 18.9446 25.099 18.9793 25.0375C19.0139 24.9759 19.0716 24.8797 19.1139 24.7951C19.1562 24.7105 19.1831 24.6643 19.2178 24.5989C19.2524 24.5335 19.2985 24.4373 19.337 24.3527L19.4293 24.1488C19.464 24.0642 19.5024 23.9834 19.5371 23.8988L19.6178 23.691C19.6525 23.6025 19.6832 23.5179 19.714 23.4333C19.7448 23.3486 19.764 23.2909 19.7871 23.2217C19.8102 23.1524 19.8487 23.0447 19.8756 22.9562C19.9025 22.8678 19.9179 22.8178 19.941 22.7485C19.9641 22.6793 19.991 22.5715 20.0141 22.4831C20.052 22.5049 20.0919 22.5229 20.1334 22.5369C20.326 22.5846 20.5286 22.5726 20.7143 22.5023C21.2272 22.8562 21.7311 23.2268 22.2261 23.6141C22.4251 23.7756 22.6558 23.8936 22.9032 23.9603Z" fill="#65B6C1"/>
<path d="M84.9283 13.4043L84.986 13.3043C85.0476 13.1889 85.1053 13.0735 85.1553 12.9542C85.2072 12.8289 85.2509 12.7004 85.2861 12.5695C85.2861 12.5272 85.3053 12.481 85.3169 12.4387C85.3284 12.3964 85.3554 12.2656 85.3707 12.1771C85.3861 12.0886 85.3707 12.0732 85.3707 12.0194C85.3707 11.9655 85.3707 11.8655 85.3707 11.7886C85.3707 11.7116 85.3707 11.6731 85.3707 11.6154C85.3707 11.5577 85.3707 11.4693 85.3707 11.3962L85.3477 11.223C85.3477 11.15 85.3246 11.0807 85.3092 11.0153C85.2938 10.9499 85.2822 10.8922 85.2669 10.8345L85.2091 10.6383C85.1861 10.5767 85.1668 10.5152 85.1438 10.4575L85.063 10.269C85.0366 10.2085 85.007 10.1494 84.9745 10.092C84.9437 10.0305 84.9129 9.97277 84.8783 9.91507C84.8437 9.85736 84.8091 9.79581 84.7706 9.7381L84.6552 9.57653C84.6129 9.51882 84.5706 9.45727 84.5244 9.39957L84.3974 9.25723L84.2397 9.08027L84.1205 8.9687C83.8838 8.74103 83.6262 8.53623 83.3511 8.35703L83.2203 8.2724C83.1395 8.22239 83.0548 8.18007 82.9702 8.1339C82.8856 8.08774 82.8625 8.07235 82.8048 8.04542C82.7471 8.01849 82.6355 7.96848 82.5509 7.93001L82.4124 7.86846C82.1997 7.7806 81.9827 7.70357 81.7622 7.63764C79.0155 6.86824 76.0764 7.95694 75.1954 10.1074C75.1128 10.3096 75.0509 10.5197 75.0107 10.7345C75.0107 10.7576 75.0107 10.7845 75.0107 10.8076C72.8103 11.4346 70.5251 13.0811 70.5405 17.2782L70.4636 17.4706H70.5021C70.4828 17.5167 70.4713 17.5667 70.4521 17.6168C70.3667 17.5223 70.263 17.4463 70.1472 17.3934C70.0315 17.3405 69.9061 17.3118 69.7788 17.309C69.1479 17.309 68.6247 18.013 68.6247 18.8901C68.6247 19.7672 69.1248 20.4828 69.7788 20.4866H69.8058C69.8058 20.5597 69.7827 20.6328 69.775 20.7059C69.7673 20.779 69.775 20.7521 69.775 20.7751L69.7288 21.206C69.7288 21.256 69.7288 21.3099 69.7288 21.3599L69.7057 21.7061C69.7057 21.7677 69.7057 21.8292 69.7057 21.8908C69.7057 21.9523 69.7057 22.0985 69.7057 22.2024C69.7057 22.3063 69.7057 22.337 69.7057 22.4024C69.7057 22.4678 69.7057 22.5986 69.7057 22.6948C69.7057 22.791 69.7057 22.8333 69.7057 22.9025C69.7057 22.9718 69.7057 23.091 69.7365 23.1872C69.7673 23.2834 69.7558 23.3219 69.7635 23.3911C69.7712 23.4604 69.7942 23.5758 69.8135 23.6681C69.8327 23.7604 69.8365 23.8027 69.8519 23.8681C69.8673 23.9335 69.8981 24.0566 69.925 24.149C69.952 24.2413 69.9558 24.2721 69.975 24.3298C69.9943 24.3875 70.0404 24.5337 70.0751 24.6298C70.1097 24.726 70.1097 24.7337 70.1289 24.7799C70.1851 24.9282 70.2493 25.0733 70.3213 25.2146C70.3905 25.3608 70.4674 25.4993 70.5444 25.6416C70.6213 25.7801 70.7021 25.9186 70.7867 26.0494C71.0676 26.5164 71.4208 26.9358 71.8331 27.292C71.8062 27.315 71.7831 27.342 71.7485 27.3689C71.655 27.4272 71.576 27.5062 71.5177 27.5997C71.5075 27.6165 71.5021 27.6358 71.5021 27.6555C71.5021 27.6752 71.5075 27.6945 71.5177 27.7113C71.5331 27.7294 71.5513 27.745 71.5716 27.7575H71.5985C71.5559 27.8095 71.5096 27.8583 71.46 27.9036C70.8685 28.2787 70.183 28.4787 69.4826 28.4807C69.4557 28.3845 69.4211 28.2999 69.3941 28.1999C69.2954 28.2081 69.1989 28.2341 69.1095 28.2768C68.7478 28.2768 68.3824 28.2999 68.0285 28.3191L67.7207 28.3422H67.6668L67.4091 28.373H67.3321L67.0975 28.4114H67.0205C66.9244 28.432 66.8293 28.4577 66.7359 28.4884C66.1025 28.7124 65.5167 29.053 65.0085 29.4925C63.8759 29.8886 62.7696 30.3563 61.6963 30.8928C58.511 32.4662 54.3485 35.1514 49.4936 39.7409C47.6894 41.4528 51.8018 45.446 56.2836 48.562C54.7047 50.9709 53.8086 53.7629 53.6907 56.6407C53.6907 56.8177 53.683 56.9947 53.6676 57.1716V57.3216C53.6676 57.8795 53.6676 58.4757 53.6945 59.0682C53.6945 59.1028 53.6945 59.1413 53.6945 59.1759L53.7292 59.6568C53.7292 59.7106 53.7292 59.7645 53.7292 59.8145C53.7292 59.9415 53.7522 60.0684 53.7676 60.1992C53.7695 60.2235 53.7695 60.248 53.7676 60.2723C53.7676 60.3262 53.7676 60.3762 53.7869 60.43C53.8099 60.6185 53.833 60.8147 53.8638 61.0032C53.8638 61.0032 53.8638 61.034 53.8638 61.0532C53.8984 61.2648 53.9331 61.4803 53.9715 61.6957C53.9715 61.7457 53.9715 61.7996 53.9984 61.8496C54.0292 62.0111 54.06 62.1766 54.0946 62.342C54.0946 62.4112 54.1216 62.4805 54.1369 62.5536C54.1523 62.6267 54.1369 62.6113 54.1369 62.642C54.1639 62.7613 54.1908 62.8844 54.2216 63.0267C54.2523 63.1691 54.2562 63.1845 54.2754 63.2614C54.2947 63.3384 54.3062 63.3961 54.3254 63.4615V63.4768C54.3447 63.5615 54.3716 63.6461 54.3908 63.7346L54.4486 63.9423C54.4755 64.0424 54.5024 64.1462 54.5332 64.2462L54.5793 64.4155C54.5793 64.4886 54.6178 64.5579 54.6409 64.6309L54.6678 64.7156C54.7294 64.9195 54.7948 65.1272 54.8602 65.3388L54.941 65.5773C54.9948 65.7389 55.0487 65.9005 55.1064 66.062L55.1372 66.1544C55.1564 66.2121 55.1795 66.2736 55.2025 66.3313C55.2603 66.489 55.318 66.6506 55.3834 66.8122C55.4103 66.8891 55.4411 66.9661 55.468 67.0469C55.4806 67.0715 55.4909 67.0973 55.4988 67.1238L55.7142 67.6508C55.7373 67.7124 55.7642 67.7701 55.7873 67.8317L55.8527 67.9817L55.9373 68.1779L56.1181 68.5934L56.2105 68.7972L56.2566 68.8934C56.2874 68.9665 56.322 69.0396 56.3566 69.1127C56.3913 69.1858 56.4374 69.2897 56.4798 69.3781L56.6182 69.659C56.6721 69.7744 56.726 69.8898 56.7837 70.0052C56.8106 70.0552 56.8375 70.1052 56.8606 70.1552V70.186L57.0106 70.4784L57.2492 70.9362L57.3607 71.1401L57.4454 71.2978C57.5915 71.5709 57.7454 71.8479 57.9032 72.1249L61.4616 79.8612L59.2535 86.8281C59.3458 86.8935 59.4342 86.9512 59.5266 87.0089L55.2333 103.101L55.1718 103.32L54.991 103.236L54.6063 104.594C54.4101 105.29 54.3139 106.132 53.9638 106.786C53.9495 106.817 53.9327 106.847 53.9138 106.875C53.8369 107.009 53.5753 107.236 53.6291 107.402C53.683 107.567 53.7599 107.56 53.9177 107.59C54.5139 107.71 55.1602 107.779 55.7373 107.948C56.4644 108.156 56.8914 108.718 57.4531 109.137C58.0352 109.547 58.6724 109.874 59.3458 110.106C60.7246 110.568 62.1599 110.84 63.6121 110.914C64.5969 110.983 64.7893 110.737 64.8008 110.556C64.8159 110.528 64.8288 110.498 64.8393 110.468C65.024 109.96 65.097 108.833 62.735 107.883C62.5773 107.817 62.408 107.752 62.2272 107.69L62.1233 107.652L62.0271 107.613H62.0002C61.9156 107.583 61.8117 107.537 61.6886 107.483H61.6617L61.4655 107.39L61.1615 107.236C61.05 107.179 60.9307 107.113 60.8115 107.04C60.6922 106.967 60.5653 106.89 60.4268 106.809L60.1613 106.625C59.9754 106.492 59.7968 106.35 59.6266 106.198C59.5189 106.098 59.4112 105.998 59.3111 105.89C59.1838 105.756 59.0656 105.613 58.9572 105.463C58.5401 104.925 58.3323 104.254 58.3725 103.574C58.2992 103.608 58.2233 103.637 58.1455 103.659L58.0724 103.678L57.9493 103.709C59.0303 101.485 61.5963 96.0956 63.6929 90.8406C65.1932 87.082 66.4512 83.3928 66.7474 80.9807V80.9576C66.7474 80.8384 66.7782 80.7191 66.7859 80.6037C66.9821 78.2955 65.7741 72.6789 64.8239 68.7472C64.4123 67.0161 64.0314 65.5273 63.7968 64.6232L64.6585 66.2582L71.9293 80.0189L66.3204 102.028L66.2742 102.205L66.178 102.143L65.5279 103.424C65.2388 104.139 64.8834 104.826 64.4661 105.475V105.498L64.3969 105.578C64.293 105.702 63.9891 105.886 64.0122 106.055C64.0353 106.225 64.1084 106.232 64.2584 106.282C64.8239 106.482 65.4433 106.644 65.978 106.894C66.6512 107.202 66.959 107.833 67.4283 108.31C67.9196 108.798 68.481 109.211 69.0941 109.533C70.3703 110.185 71.731 110.657 73.1373 110.933C74.0913 111.145 74.3298 110.933 74.3799 110.749C74.6722 110.337 75.1493 109.175 72.8872 107.821C72.7449 107.737 72.591 107.648 72.4256 107.563L72.3371 107.513L72.2371 107.456L71.9524 107.275H71.9293L71.7523 107.156L71.4869 106.959C71.3869 106.886 71.283 106.802 71.1753 106.717C71.0714 106.632 70.9637 106.536 70.856 106.436C70.7791 106.367 70.706 106.294 70.6329 106.221C70.4764 106.062 70.3287 105.895 70.1905 105.721C70.1058 105.609 70.0212 105.498 69.9443 105.378C69.8481 105.226 69.7608 105.068 69.6827 104.905C69.3768 104.303 69.3082 103.609 69.4903 102.959C69.4108 102.982 69.3298 103 69.2479 103.012H69.1749H69.0364C70.8522 99.1655 74.3337 91.383 75.961 85.3547V85.297C76.0879 84.8354 76.1995 84.3853 76.2995 83.9467C76.2995 83.9121 76.3187 83.8775 76.3264 83.8467C76.3726 83.6313 76.4188 83.4158 76.4649 83.2081V83.185C76.5034 82.9888 76.538 82.8003 76.5727 82.6118L76.5957 82.4887C76.6304 82.2964 76.6611 82.104 76.6881 81.9155C76.6881 81.9155 76.6881 81.8963 76.6881 81.8847C76.715 81.7116 76.7342 81.5424 76.7535 81.3731V81.2461C76.7727 81.073 76.7881 80.8999 76.7996 80.7345V80.7153C76.7996 80.5575 76.7996 80.4036 76.8188 80.2536V80.1344C76.8188 79.9805 76.8188 79.8304 76.8188 79.6881C76.5765 74.7293 70.3366 60.4954 69.1248 57.8102C69.8505 57.254 70.4417 56.5416 70.8545 55.7258C71.2674 54.91 71.4914 54.0118 71.51 53.0976C71.51 52.9515 71.51 52.8091 71.4908 52.6668C77.4267 50.3586 79.1847 49.9046 80.4735 47.7772C81.2429 46.5 80.9351 43.3416 80.3389 40.2564C80.2888 39.9909 80.235 39.7255 80.1811 39.46L80.0888 39.0176C79.9388 38.3252 79.781 37.6519 79.6271 37.021L79.5233 36.5979C79.4425 36.2747 79.3617 35.9631 79.2848 35.663C79.2463 35.5322 79.2155 35.4014 79.1809 35.2783C79.0886 34.936 79.004 34.6205 78.9232 34.3397C78.8924 34.2166 78.8578 34.105 78.827 33.9934C78.7962 33.8819 78.7962 33.878 78.777 33.8242C78.736 33.2967 78.5764 32.7854 78.3099 32.3284C78.0434 31.8714 77.677 31.4805 77.2382 31.1851C76.8535 30.9389 76.5072 30.7312 76.2072 30.5234L76.1648 30.6196C75.5694 30.2879 75.1286 29.7351 74.9377 29.0808C75.2262 29.0077 75.4185 28.5692 75.5263 28.2076L75.6955 28.1691C75.7763 28.4961 75.9456 28.9039 76.2957 28.9385C76.8419 28.9385 76.9189 28.4037 76.8342 28.0883C76.8112 28.0075 76.7842 27.9229 76.7573 27.8382C77.142 27.6844 77.5267 27.5035 77.9114 27.3189C78.0691 27.2458 78.223 27.165 78.373 27.0804L78.5231 26.9919L78.8154 26.8149L78.9924 26.6957L79.2463 26.5187C79.3078 26.4764 79.3656 26.4302 79.4233 26.3841C79.481 26.3379 79.581 26.2648 79.6579 26.1994C79.7349 26.134 79.7772 26.1032 79.8349 26.0532L80.0542 25.8609L80.2273 25.7032L80.4389 25.4993L80.6004 25.3338L80.8044 25.1223L80.9582 24.9491C81.0223 24.8799 81.0877 24.8068 81.1544 24.7299L81.3045 24.5529L81.4891 24.3259L81.6276 24.149L81.8046 23.9181C81.8322 23.9471 81.8617 23.974 81.893 23.9989C82.397 24.3182 83.3241 23.9989 83.9627 23.318C84.6013 22.6371 84.709 21.7792 84.2051 21.4715C84.0045 21.3576 83.7702 21.3181 83.5434 21.3599C84.3431 20.1593 85.0442 18.8959 85.64 17.5821C85.6711 17.4797 85.6967 17.3757 85.717 17.2705C85.8318 16.6287 85.8103 15.9699 85.6539 15.337C85.4975 14.704 85.2097 14.1111 84.8091 13.5966L84.9283 13.4043ZM69.6596 48.8582C70.046 47.1991 70.7318 45.6243 71.6831 44.2111C72.1475 43.8967 72.6409 43.6275 73.1565 43.407L73.345 43.334C74.5448 42.9558 75.6476 42.3204 76.5765 41.472L77.7306 47.2887L70.806 50.3932C70.5013 49.828 70.115 49.3108 69.6596 48.8582ZM61.0077 38.5791L61.0846 38.6598C61.0846 38.8022 61.1039 38.9484 61.1116 39.0946C61.0346 39.4139 60.95 39.7524 60.8538 40.1063C60.6626 40.4916 60.5328 40.9043 60.4691 41.3297C60.4075 41.5259 60.3383 41.7144 60.2652 41.926L60.196 42.1222C59.6766 43.5664 58.9883 44.9442 58.1455 46.2269L53.1444 40.6911L60.5999 36.5055C60.6077 37.2096 60.746 37.9061 61.0077 38.5598V38.5791Z" fill="#65B6C1"/>
<path d="M280.356 105.894C280.196 105.194 279.916 104.528 279.529 103.924C279.144 103.316 278.471 102.77 278.375 102.066C278.329 101.483 278.317 100.897 278.34 100.312C278.34 100.158 278.34 100.077 278.156 100C277.971 99.9233 277.594 100.1 277.386 100.139L277.255 100.166H277.221C276.222 100.257 275.218 100.278 274.216 100.227L272.335 100.258C272.335 100.293 272.362 100.335 272.377 100.37C271.049 100.034 269.701 99.777 268.342 99.6002C268.199 99.2568 268.034 98.9227 267.849 98.5999C267.483 97.9506 267.014 97.3647 266.461 96.8649C265.891 96.3571 265.095 95.9801 264.78 95.3069C264.561 94.7538 264.375 94.1886 264.222 93.6142C264.176 93.468 264.156 93.3872 263.952 93.3488C263.749 93.3103 263.437 93.5642 263.26 93.645L263.141 93.695H263.106C262.237 94.0412 261.133 94.172 260.213 94.3836L258.405 94.7991L258.478 94.903C256.008 94.8413 253.537 94.9893 251.092 95.3454L248.895 80.1997C248.864 80.0497 248.83 79.8958 248.795 79.7419C248.795 79.6842 248.768 79.6265 248.757 79.5688L248.688 79.2726C248.688 79.1995 248.653 79.1264 248.634 79.0533C248.614 78.9802 248.591 78.8841 248.572 78.7994L248.503 78.534C248.503 78.4686 248.472 78.4032 248.453 78.3378C248.434 78.2724 248.395 78.1147 248.368 78.0031L248.345 77.9262C247.787 75.818 247.068 73.4559 246.514 71.2131C246.468 71.0362 246.425 70.8592 246.383 70.6823C246.383 70.6015 246.345 70.5245 246.329 70.4476C246.279 70.2322 246.233 70.0206 246.187 69.8128C246.187 69.7436 246.156 69.6743 246.145 69.6089C246.095 69.382 246.052 69.1627 246.01 68.9434C246.01 68.8857 245.987 68.828 245.979 68.7703C245.937 68.5433 245.898 68.3163 245.864 68.0971C245.866 68.0676 245.866 68.038 245.864 68.0086C245.833 67.7932 245.806 67.5854 245.779 67.3777V67.2815C245.756 67.0661 245.737 66.8545 245.721 66.6506C245.721 66.6121 245.721 66.5698 245.721 66.5275C245.721 66.3274 245.722 66.1428 245.698 65.9351C245.698 65.9043 245.698 65.8735 245.698 65.8427C245.698 65.6427 245.698 65.458 245.698 65.2618L245.721 65.0272C245.721 65.0041 245.721 64.981 245.721 64.9541C245.721 64.9271 245.722 64.831 245.748 64.7694C245.75 64.7451 245.75 64.7207 245.748 64.6963C245.748 64.6155 245.775 64.5309 245.791 64.4463C245.791 64.3501 245.825 64.2539 245.848 64.1539C245.848 64.1539 245.848 64.1231 245.848 64.1116L245.906 63.8423V63.7961C246.266 62.3605 246.71 60.9474 247.237 59.5644C247.483 58.8835 247.753 58.1949 248.007 57.5063C248.391 57.0946 248.776 56.6484 249.184 56.1829C249.549 55.8238 249.858 55.4129 250.103 54.9634C250.726 54.1076 251.178 53.1397 251.434 52.1128C254.058 53.0207 258.89 54.4518 261.052 53.5285H261.098C262.552 49.9931 257.324 46.9886 254.758 45.042C253.112 43.7917 251.68 42.3491 250.049 41.095C248.745 40.0986 250.73 37.6327 250.73 37.6327C251.842 35.9438 252.027 36.6017 252.204 33.4279C252.284 31.9353 252.227 31.2543 252.138 30.9504C252.129 30.9151 252.118 30.8804 252.104 30.8466C252.094 30.8239 252.082 30.8021 252.069 30.7812C252.06 30.7678 252.048 30.7561 252.034 30.7465H252.004H251.961C251.91 30.6182 251.83 30.5033 251.727 30.4106C251.624 30.3179 251.502 30.2499 251.369 30.2118C251.112 30.1442 250.838 30.1715 250.6 30.2888C250.6 30.2888 250.6 30.2503 250.6 30.231C250.623 30.1426 250.646 30.0464 250.669 29.9387L250.703 29.7694C250.726 29.654 250.75 29.527 250.773 29.3847C250.807 29.1847 250.838 28.9731 250.869 28.7538C251.03 27.7156 251.127 26.6686 251.161 25.6185C251.079 24.9377 250.854 24.282 250.499 23.695C250.001 22.8763 249.331 22.1744 248.538 21.6369L248.572 21.433C248.572 21.3906 248.572 21.3522 248.572 21.3099C248.592 21.1684 248.602 21.0257 248.603 20.8828C248.602 20.731 248.592 20.5794 248.572 20.4289C248.572 20.3789 248.572 20.3289 248.545 20.2789C248.518 20.2288 248.511 20.0827 248.488 19.9865C248.464 19.8903 248.453 19.8711 248.437 19.8134C248.422 19.7557 248.384 19.6441 248.353 19.5595C248.322 19.4748 248.303 19.4402 248.276 19.3787C248.249 19.3171 248.207 19.2248 248.168 19.1478C248.13 19.0709 248.103 19.0286 248.068 18.9709C248.034 18.9132 247.984 18.8285 247.937 18.7593L247.814 18.5823L247.66 18.3861C247.614 18.3284 247.564 18.2746 247.514 18.2169C247.464 18.1592 247.406 18.0976 247.349 18.0399L247.18 17.8783L247.079 17.6975C247.018 17.6437 246.953 17.5937 246.887 17.5436C246.822 17.4936 246.76 17.4513 246.695 17.4052L246.479 17.259C246.414 17.2166 246.349 17.182 246.279 17.1436C246.21 17.1051 246.122 17.0474 246.037 17.0051L245.86 16.9204C245.51 16.7505 245.146 16.6115 244.771 16.505L244.594 16.4511L244.271 16.3818L244.052 16.3395C243.948 16.3395 243.84 16.3088 243.733 16.2934C243.625 16.278 243.617 16.2741 243.556 16.2703C243.3 16.2418 243.043 16.2264 242.786 16.2241C239.52 16.2241 236.87 18.2977 236.87 20.8405C236.873 21.0849 236.9 21.3284 236.95 21.5676C236.95 21.5945 236.95 21.6215 236.97 21.6484C234.884 22.9795 233.192 25.4338 235.046 29.8887V30.1195H235.069C235.069 30.1772 235.069 30.2349 235.069 30.2964C234.812 30.1452 234.506 30.0997 234.215 30.1695C233.989 30.2521 233.796 30.4068 233.666 30.6097C233.536 30.8126 233.476 31.0526 233.496 31.2928L233.415 31.2428H233.388C233.315 31.2043 233.238 31.1659 233.153 31.1312H233.119C233.109 31.1274 233.098 31.1274 233.088 31.1312L233.049 31.1659C233.033 31.1852 233.02 31.2073 233.011 31.2313C232.903 31.4659 232.815 32.1122 232.911 33.8126C233.088 36.9864 233.273 36.3285 234.381 38.0174C234.381 38.0174 236.366 40.4641 235.061 41.4797C233.43 42.73 232.003 44.1726 230.353 45.4229C227.787 47.3733 222.559 50.3739 224.017 53.9132H224.063C224.101 53.9169 224.14 53.9169 224.178 53.9132H224.255H224.282H224.359H224.525H224.609H225.479H225.567H225.621L225.417 54.0978C227.79 53.5374 230.115 52.7874 232.369 51.855C232.346 53.2613 232.775 54.6378 233.592 55.7828C233.709 56.0062 233.837 56.2232 233.977 56.433C233.977 56.4945 234.019 56.5522 234.042 56.6138C234.311 57.3601 233.657 58.5373 234.254 59.7298L234.4 59.7722C234.219 63.5501 233.365 67.2654 231.88 70.7438C231.811 70.9054 231.738 71.0708 231.665 71.2324C231.484 71.6402 231.307 72.0441 231.103 72.4557C231.061 72.8404 231.026 73.2597 230.995 73.6637V73.7445C230.226 83.2081 231.353 92.9025 231.495 94.072C231.494 94.1079 231.494 94.1438 231.495 94.1797C231.157 101.393 232.688 102.139 233.519 102.035L233.627 102.389L245.279 100.285L245.96 102.428L266.088 103.078C266.434 103.41 266.865 103.641 267.333 103.747C267.802 103.853 268.29 103.829 268.746 103.678C268.919 103.678 269.13 103.563 269.192 103.178L272.123 103.274C272.084 103.325 272.04 103.373 271.993 103.416C272.853 103.523 273.667 103.864 274.347 104.401C274.516 104.54 274.678 104.682 274.824 104.828C274.97 104.974 275.051 105.071 275.151 105.194C275.31 105.381 275.457 105.579 275.59 105.786C275.651 105.886 275.713 105.978 275.767 106.075C275.847 106.209 275.92 106.344 275.986 106.459C276.051 106.586 276.109 106.709 276.163 106.844C276.217 106.979 276.255 107.059 276.294 107.16L276.371 107.367V107.386C276.417 107.517 276.451 107.625 276.478 107.713L276.509 107.821C276.509 107.887 276.536 107.921 276.536 107.921C276.536 108.014 276.574 108.102 276.598 108.187L276.655 108.402C276.655 108.402 276.655 108.425 276.655 108.437C277.394 110.983 279.052 111.045 279.691 110.968C279.933 110.995 280.302 110.88 280.46 109.956C280.683 108.608 280.648 107.229 280.356 105.894ZM243.767 96.661L243.459 96.7303L243.325 96.7611L243.029 96.8265L242.894 96.8572L242.605 96.9226L242.486 96.9496L242.194 97.0188L242.086 97.0457L241.774 97.1188H241.705L240.974 97.2958H240.905L240.643 97.3612L240.54 97.3881L240.328 97.442L240.216 97.4689L240.024 97.5189L239.928 97.542L239.728 97.5959L239.655 97.6151L239.459 97.6651H239.397L239.201 97.719H239.159L238.743 97.8305H238.708L238.581 97.8652H238.52L238.447 97.8844L238.362 96.8419L237.185 82.2233L238.451 82.5118L239.709 82.8003L244.056 96.511L243.902 96.5456L243.767 96.661ZM239.028 39.1138C238.645 38.7222 238.305 38.2916 238.012 37.8289C238.081 37.8943 238.147 37.9674 238.216 38.0328C238.497 38.2982 238.789 38.556 239.089 38.8022C239.093 38.9143 239.072 39.026 239.028 39.1292V39.1138ZM243.498 40.1448C243.855 40.0975 244.205 40.0071 244.54 39.8755C244.219 40.0592 243.88 40.2113 243.529 40.3294C243.517 40.2833 243.506 40.2217 243.498 40.1602V40.1448ZM243.571 40.5295C243.677 41.1668 243.862 41.7884 244.121 42.3799C244.04 42.2452 243.96 42.1029 243.883 41.9413C243.747 41.4777 243.641 41.0062 243.563 40.5295H243.571ZM247.841 43.8841C247.903 43.8187 247.934 43.6417 247.76 43.157C247.76 43.157 247.46 43.7879 247.699 43.8956V44.0572C246.245 43.6725 245.306 43.3878 244.583 41.9413C244.42 41.4377 244.291 40.9236 244.198 40.4025C244.962 40.1518 245.666 39.7472 246.268 39.2138C245.883 40.7526 247.21 42.2683 247.21 42.2683L248.876 44.2688C248.499 44.1264 248.157 44.0072 247.849 43.8879L247.841 43.8841ZM238.224 38.4252C238.485 38.6752 238.755 38.9137 239.035 39.1369C239 39.2183 238.952 39.2936 238.893 39.36C239.105 39.4254 239.32 39.4831 239.539 39.5408C239.539 39.8755 239.632 40.1717 239.897 40.1948C239.897 40.1948 240.355 40.2602 240.139 39.5716C240.139 39.5523 240.139 39.5292 240.139 39.5062C240.387 39.6449 240.644 39.7657 240.909 39.8678C240.756 40.7281 240.533 41.5746 240.243 42.3991C240.009 42.7463 239.69 43.0282 239.316 43.2185L239.343 42.9723C238.908 43.0839 238.458 43.1877 238.035 43.2993L237.701 43.3955H237.65L237.374 43.4878L237.297 43.5147L237.058 43.6109L237.881 42.6222C238.032 42.4393 238.168 42.2451 238.289 42.0413C238.289 42.1952 238.316 42.3222 238.447 42.3606C238.447 42.3606 238.905 42.5261 238.574 41.4874C238.633 41.3621 238.686 41.2337 238.732 41.1027C238.804 40.875 238.853 40.6403 238.878 40.4025V40.2217C238.885 39.852 238.806 39.4857 238.647 39.1519C238.488 38.818 238.254 38.5257 237.962 38.2982C237.964 38.2752 237.964 38.252 237.962 38.229V38.202C238.058 38.2713 238.135 38.3559 238.231 38.429L238.224 38.4252ZM259.063 97.8228C259.042 97.8808 259.015 97.9363 258.982 97.9883C259.866 97.9151 260.754 98.0757 261.556 98.4537C261.757 98.5476 261.954 98.6516 262.144 98.7654C262.294 98.8577 262.437 98.9539 262.571 99.05L262.656 99.1154H262.437H262.264H261.917H261.71H261.394H261.186H260.879H260.671H260.371H260.159H259.863H255.851H255.624H255.458H255.193H254.962H254.731H254.577H254.231H254.054H253.908H253.742H253.596H253.45H253.315H253.162H253.058H252.9H252.808H252.611H252.577H252.388H251.657V99.077L259.063 97.8228ZM235.981 34.8128C235.941 34.9732 235.916 35.1366 235.904 35.3014C235.611 34.7634 235.389 34.1891 235.246 33.5933C235.355 33.6018 235.464 33.5927 235.569 33.5664H235.596C235.7 33.9819 235.827 34.405 235.973 34.8167L235.981 34.8128Z" fill="#65B6C1"/>
<path d="M159.953 11.1037C159.953 10.9652 159.93 10.8267 159.91 10.6882C159.891 10.5497 159.887 10.5266 159.876 10.442C159.864 10.3574 159.837 10.1958 159.814 10.0573C159.791 9.9188 159.78 9.88418 159.76 9.79954C159.741 9.71491 159.71 9.56487 159.68 9.44946C159.649 9.33405 159.633 9.2802 159.61 9.19172C159.587 9.10323 159.545 8.96859 159.51 8.85703C159.476 8.74546 159.453 8.68391 159.422 8.59928L159.306 8.27228L159.202 8.01838C159.156 7.91066 159.114 7.8068 159.064 7.70293C159.014 7.59906 158.987 7.53751 158.949 7.45287C158.91 7.36824 158.845 7.24513 158.791 7.14511L158.664 6.90275C158.606 6.80273 158.548 6.69886 158.487 6.59884C158.425 6.49882 158.395 6.44496 158.345 6.36802C158.295 6.29108 158.218 6.16797 158.148 6.0718C158.079 5.97562 158.048 5.92177 157.995 5.84867C157.941 5.77558 157.856 5.65248 157.783 5.5563C157.71 5.46013 157.675 5.41396 157.617 5.34472L157.383 5.05619L157.214 4.85999C157.129 4.75997 157.04 4.66764 156.948 4.57147C156.856 4.47529 156.837 4.44836 156.779 4.39066C156.721 4.33295 156.583 4.19831 156.483 4.10213L156.317 3.94056C156.209 3.84054 156.094 3.74052 155.979 3.64049C155.929 3.59818 155.883 3.55201 155.833 3.51354C155.69 3.39044 155.544 3.27503 155.394 3.15962L155.329 3.10576C152.539 1.04822 149.154 -0.0419034 145.688 0.00123258C139.071 0.00123258 133.505 3.7559 131.87 8.84933C130.835 8.84702 129.83 9.18798 129.01 9.81876C128.191 10.4495 127.604 11.3344 127.342 12.3347C127.342 12.3347 129.215 10.9113 131.435 10.9575C131.404 11.2845 131.385 11.6115 131.385 11.9462C131.385 15.0507 132.8 17.8744 135.124 19.9979L135.193 20.0556C135.328 20.1787 135.466 20.3019 135.609 20.4173L135.763 20.5404C135.882 20.6365 136.001 20.7327 136.124 20.825L136.317 20.9635C136.432 21.0482 136.544 21.129 136.663 21.2097C136.782 21.2905 136.805 21.3059 136.878 21.3521C136.951 21.3982 137.105 21.5021 137.221 21.5714L137.459 21.7137L137.805 21.9099L138.056 22.0445L138.406 22.2254L138.675 22.3561L139.029 22.5177L139.31 22.637L139.671 22.7832L139.96 22.8909L140.344 23.0217L140.641 23.1179C140.768 23.1602 140.895 23.1948 141.025 23.2333L141.329 23.3179L141.714 23.4179L142.026 23.491L142.41 23.5718L142.722 23.6334L143.137 23.6988L143.445 23.7449L143.891 23.7949L144.184 23.8257C144.349 23.8257 144.515 23.8488 144.684 23.8603H144.934C145.184 23.8603 145.438 23.8603 145.703 23.8603C153.601 23.8603 160.007 18.513 160.007 11.9346C160.007 11.723 160.007 11.5115 160.007 11.2999C159.968 11.2422 159.956 11.1575 159.953 11.1037ZM131.87 8.84933C131.796 9.084 131.727 9.32251 131.669 9.56103C131.247 9.57383 130.828 9.64106 130.423 9.76107C130.423 9.76107 130.9 8.80317 131.87 8.84933ZM129.746 10.919C130.254 10.5124 130.871 10.2672 131.519 10.215C131.485 10.4035 131.458 10.5997 131.435 10.7805C131.173 10.6844 130.658 10.642 129.746 10.919Z" fill="#65B6C1"/>
<path d="M218.727 28.5537C218.585 28.5112 218.437 28.4905 218.289 28.4922H216.965C216.981 28.3646 216.99 28.2361 216.992 28.1075C216.993 27.6411 216.888 27.1807 216.684 26.761L216.83 26.6418C216.89 26.5912 216.944 26.5345 216.992 26.4725C217.007 26.4576 217.02 26.4407 217.031 26.4225C217.067 26.3771 217.1 26.3282 217.127 26.2763L217.15 26.234C217.18 26.1712 217.203 26.1054 217.219 26.0378C217.219 26.0378 217.219 26.007 217.219 25.9916C217.223 25.9378 217.223 25.8839 217.219 25.8301V25.7762C217.217 25.7115 217.21 25.6471 217.196 25.5839C217.183 25.5286 217.165 25.4745 217.142 25.4223C217.072 25.2435 216.956 25.0858 216.807 24.9645L212.791 21.6099C212.503 21.3834 212.146 21.2603 211.779 21.2603C211.412 21.2603 211.056 21.3834 210.768 21.6099L207.455 24.3951C207.021 24.4493 206.592 24.5354 206.17 24.6529H206.147H206.201L205.024 25.3646C204.667 25.777 204.448 26.2909 204.397 26.8341C204.366 27.4062 204.415 27.9799 204.543 28.5383H201.95C201.331 28.5383 200.831 28.9 200.831 29.3424C200.831 29.7848 201.339 30.1387 201.962 30.1387H202.054C202.104 32.8893 204.124 35.2398 206.986 36.2516C206.717 36.3579 206.474 36.5188 206.27 36.724C206.067 36.9293 205.909 37.1745 205.805 37.4442L198.038 46.5038C198.038 46.5038 195.757 41.8874 195.106 40.7333C192.521 36.1169 191.579 33.7087 190.529 32.7662L190.382 32.6469C190.281 32.5734 190.173 32.5102 190.059 32.4584H190.021L189.894 32.4123H189.848C189.792 32.3954 189.736 32.3825 189.678 32.3738C189.46 32.3327 189.239 32.307 189.017 32.2969L188.951 32.2699C188.885 32.2353 188.817 32.2044 188.747 32.1776L188.636 32.1276C188.51 32.0761 188.382 32.0325 188.251 31.9968C187.866 31.8929 187.482 31.8044 187.174 31.7121H187.128C186.143 31.4274 185.458 31.0735 184.912 29.981C184.912 29.981 184.912 29.9425 184.889 29.9117C184.879 29.874 184.868 29.8367 184.854 29.8002C184.854 29.754 184.827 29.704 184.812 29.6463C184.812 29.5886 184.781 29.5232 184.766 29.4539C184.766 29.3847 184.731 29.3077 184.716 29.2308C184.677 29.0462 184.635 28.8461 184.596 28.6307C185.674 28.3114 186.478 27.5766 187.316 26.788C187.432 26.6764 187.547 26.5571 187.659 26.4379C187.697 26.3956 187.732 26.3533 187.766 26.3071C187.801 26.2609 187.909 26.1494 187.974 26.0647L188.093 25.9032L188.267 25.6685L188.382 25.4915C188.432 25.4146 188.486 25.3376 188.532 25.2569L188.643 25.0684L188.774 24.8298L188.878 24.6298C188.917 24.549 188.959 24.4682 188.997 24.3836L189.09 24.1797C189.124 24.0951 189.163 24.0143 189.197 23.9296L189.278 23.7181C189.313 23.6334 189.344 23.5488 189.374 23.4642C189.405 23.3795 189.424 23.3218 189.448 23.2526C189.471 23.1833 189.509 23.0756 189.536 22.9871C189.563 22.8986 189.578 22.8486 189.601 22.7794C189.624 22.7101 189.651 22.6024 189.675 22.5139C189.712 22.5358 189.752 22.5538 189.794 22.5678C190.394 22.7371 191.152 22.1831 191.486 21.3637C191.821 20.5443 191.602 19.721 190.998 19.5518C190.773 19.4987 190.537 19.5231 190.328 19.621C190.611 18.2961 190.785 16.9503 190.848 15.597V15.3893C190.682 13.9659 189.782 12.7349 188.513 11.8462C188.513 11.7885 188.536 11.727 188.543 11.6654C188.551 11.6039 188.543 11.5923 188.543 11.5577C188.559 11.43 188.567 11.3016 188.567 11.173C188.566 11.0444 188.558 10.916 188.543 10.7883C188.543 10.746 188.543 10.6998 188.517 10.6575C188.506 10.5693 188.489 10.4819 188.467 10.3959C188.467 10.342 188.436 10.292 188.42 10.242C188.405 10.192 188.374 10.0881 188.347 10.015C188.32 9.94195 188.301 9.91117 188.278 9.85732C188.255 9.80346 188.217 9.71882 188.182 9.64958C188.147 9.58033 188.124 9.54571 188.093 9.49185L187.978 9.30335C187.943 9.24949 187.905 9.19948 187.866 9.14947C187.825 9.08942 187.78 9.03163 187.732 8.97635L187.605 8.82247L187.455 8.66859L187.305 8.52241C187.251 8.4724 187.197 8.43008 187.139 8.38391C187.086 8.33454 187.029 8.2883 186.97 8.24542C186.916 8.20311 186.855 8.16079 186.797 8.12232L186.608 7.99152L186.431 7.88765L186.216 7.76455L186.058 7.69145C185.743 7.53335 185.413 7.40458 185.073 7.30675L184.923 7.26444L184.631 7.20289L184.443 7.16442C184.346 7.14518 184.25 7.13364 184.15 7.1221L184 7.10286C183.768 7.07704 183.534 7.06291 183.3 7.06055C180.396 7.06055 178.041 8.90326 178.041 11.173C178.044 11.3903 178.068 11.6068 178.114 11.8193C178.119 11.844 178.126 11.8684 178.134 11.8924C176.279 13.0773 174.771 15.2547 176.414 19.2017V19.4056C176.414 19.4556 176.414 19.5094 176.414 19.5594C176.181 19.4256 175.906 19.3857 175.645 19.4479C175.044 19.6172 174.825 20.4289 175.16 21.2598C175.494 22.0908 176.252 22.6332 176.852 22.4639H176.876C176.876 22.537 176.91 22.6101 176.929 22.6794L176.952 22.7486C176.991 22.891 177.033 23.0294 177.076 23.1679C177.076 23.2179 177.11 23.268 177.126 23.318C177.164 23.4257 177.199 23.5372 177.241 23.6488L177.31 23.8258C177.345 23.9258 177.387 24.022 177.426 24.122L177.51 24.3105C177.549 24.4028 177.591 24.4913 177.637 24.5836L177.73 24.7721L177.868 25.0337C177.903 25.0953 177.937 25.1568 177.976 25.2184C178.014 25.2799 178.076 25.3877 178.13 25.4684L178.241 25.6454C178.299 25.73 178.36 25.8108 178.418 25.8916L178.537 26.0532C178.607 26.1417 178.68 26.2263 178.749 26.3109L178.861 26.4379C178.972 26.561 179.088 26.6802 179.211 26.7957C179.334 26.9111 179.457 27.0265 179.595 27.138C180.271 27.7722 181.081 28.2456 181.965 28.523C181.839 29.1357 181.662 29.7367 181.434 30.3195C181.05 30.8927 180.28 31.2197 179.476 31.5044V31.4736C179.091 31.6083 178.707 31.7275 178.353 31.8583L178.068 31.966H178.026L177.787 32.066L177.722 32.0968L177.518 32.2007L177.453 32.2353C177.371 32.2826 177.291 32.3339 177.214 32.3892L177.168 32.4238H177.122L177.033 32.4623L176.987 32.4854L176.868 32.5508H176.837L176.675 32.6431C176.66 32.6556 176.643 32.6659 176.625 32.6739L176.502 32.7547L176.437 32.8008L176.31 32.8855L176.241 32.9355L176.098 33.0432L176.037 33.0893L175.829 33.2548L175.771 33.3009L175.606 33.4433L175.521 33.5164L175.371 33.6549L175.279 33.7395L175.114 33.8934L175.029 33.9742L174.779 34.2281C172.99 36.0746 170.605 39.4638 168.308 45.3151C168.308 45.3151 167.239 49.3352 175.618 54.6479L175.595 54.6903V54.721C175.544 54.798 175.494 54.8826 175.444 54.9711C175.398 55.0557 175.348 55.1442 175.298 55.2404V55.2788C175.248 55.3712 175.198 55.4712 175.152 55.5712C175.141 55.5906 175.132 55.6113 175.125 55.6328C175.075 55.7366 175.025 55.8444 174.975 55.9598V55.9867C174.975 56.0175 174.948 56.0521 174.933 56.0867C174.898 56.1637 174.867 56.2406 174.837 56.3214C174.826 56.3438 174.817 56.3669 174.81 56.3906C174.76 56.5099 174.714 56.6368 174.667 56.7753C174.659 56.8054 174.649 56.8349 174.637 56.8638C174.59 56.9972 174.544 57.1357 174.498 57.2793V57.3216C174.456 57.4562 174.413 57.5986 174.371 57.7409C174.364 57.7735 174.355 57.8056 174.344 57.8371C174.302 57.9871 174.263 58.1449 174.221 58.3026C174.221 58.3411 174.221 58.3795 174.194 58.418C174.156 58.5834 174.113 58.7565 174.075 58.9335C174.077 58.9501 174.077 58.9669 174.075 58.9835C174.039 59.1528 174.004 59.3259 173.971 59.5028C173.971 59.5452 173.971 59.5836 173.952 59.6221C173.929 59.7491 173.906 59.876 173.886 60.0068C172.117 60.3338 170.355 59.7567 168.77 59.1489C167.685 58.7334 166.1 57.7986 164.896 57.914C165.438 58.4372 167.366 59.6683 168.127 59.6413C168.127 59.6413 160.56 59.9145 168.947 60.5762C168.947 60.5762 164.911 61.5879 165.808 61.6379C160.595 62.9613 168.247 61.6072 168.247 61.6072C160.433 65.1156 168.301 62.4766 168.304 62.4766C167.512 62.742 166.735 64.1962 166.681 64.7155C168.001 64.3308 168.716 63.1767 169.412 62.5343L169.551 62.4073C170.266 62.215 171.417 61.8264 171.417 61.8264C166.846 65.4657 171.417 62.692 171.417 62.692C170.959 62.969 170.451 64.4385 170.393 64.954C171.163 64.5693 171.613 63.3922 172.04 62.7305C172.493 61.9464 173.089 61.2547 173.798 60.6916L173.763 60.9647C173.763 60.9647 173.763 61.0032 173.763 61.0224C173.74 61.2263 173.717 61.4379 173.698 61.6533C173.698 61.7033 173.698 61.7495 173.698 61.7995C173.698 62.0226 173.663 62.2496 173.644 62.4843C173.644 62.5381 173.644 62.592 173.644 62.6458C173.644 62.8921 173.617 63.1421 173.606 63.4152V63.4691C173.606 63.7153 173.606 63.9692 173.606 64.2385V64.4039C173.606 64.6694 173.606 64.9425 173.606 65.2195C173.606 65.281 173.606 65.3426 173.606 65.4041C173.606 65.6965 173.606 65.9889 173.629 66.2928V66.339C173.629 66.6352 173.659 66.9352 173.675 67.243V67.4354C173.675 67.747 173.721 68.0663 173.748 68.3894C173.748 68.4548 173.748 68.5241 173.748 68.5895C173.779 68.9318 173.809 69.2742 173.848 69.6282V69.6628C173.886 70.009 173.929 70.3668 173.975 70.7284L173.998 70.94C174.048 71.2977 174.098 71.6671 174.152 72.0402L174.186 72.2672C174.244 72.6519 174.31 73.0558 174.375 73.4598V73.479C174.444 73.8637 174.517 74.2946 174.598 74.7139C174.598 74.7947 174.625 74.8716 174.64 74.9524C174.721 75.364 174.802 75.7833 174.89 76.2065C174.89 76.2912 174.925 76.3758 174.944 76.4566C175.037 76.9067 175.133 77.3568 175.237 77.8184L175.317 78.18V78.2377L175.387 78.5763V78.6186C175.41 78.7417 175.437 78.8725 175.46 79.0033C175.487 79.1456 175.514 79.2918 175.537 79.4418C175.537 79.5188 175.564 79.5919 175.575 79.6688L175.61 79.8612C175.61 79.9381 175.637 80.0189 175.648 80.0958L175.683 80.2997C175.683 80.3767 175.71 80.4536 175.721 80.5344L175.756 80.7537C175.756 80.8306 175.779 80.9114 175.795 80.9922L175.829 81.2192L175.864 81.4577L175.898 81.7L175.933 81.9424C175.933 82.0232 175.956 82.1078 175.972 82.1924L176.006 82.4387L176.041 82.6926L176.075 82.9426L176.11 83.2158C176.11 83.2927 176.11 83.3696 176.141 83.4504C176.172 83.5312 176.168 83.6466 176.179 83.7428C176.191 83.839 176.179 83.889 176.206 83.9621C176.233 84.0352 176.237 84.1737 176.248 84.2814C176.26 84.3891 176.248 84.4237 176.275 84.493C176.302 84.5622 176.302 84.7084 176.318 84.8199L176.341 85.0354C176.341 85.1469 176.372 85.2624 176.383 85.3778C176.383 85.4316 176.383 85.4855 176.383 85.5432C176.383 85.674 176.418 85.8048 176.433 85.9279V86.0048C176.56 87.082 176.683 88.1899 176.818 89.3132L176.876 89.8749L176.933 90.4173V90.4635C176.991 91.0329 177.049 91.6176 177.102 92.1754C177.16 92.7486 177.214 93.3295 177.268 93.8873C177.653 98.0959 177.968 102.012 178.145 104.363C178.145 104.494 178.145 104.617 178.172 104.747L178.053 104.697L177.991 104.667C177.92 104.632 177.853 104.589 177.791 104.54C177.645 105.223 177.27 105.836 176.729 106.279C176.584 106.405 176.431 106.523 176.272 106.632C176.145 106.721 176.018 106.798 175.887 106.875C175.681 106.993 175.469 107.099 175.252 107.194L174.944 107.329C174.802 107.386 174.66 107.436 174.521 107.486L174.136 107.613L173.798 107.71L173.582 107.763H173.556L173.213 107.84H173.19L173.079 107.86L172.971 107.879C172.778 107.906 172.586 107.937 172.425 107.971C169.87 108.475 169.651 109.591 169.701 110.114V110.21C169.666 110.387 169.789 110.664 170.77 110.772C172.222 110.97 173.693 110.97 175.144 110.772C175.868 110.665 176.575 110.462 177.245 110.168C177.895 109.875 178.464 109.398 179.226 109.318C179.838 109.26 180.484 109.318 181.1 109.318C181.261 109.318 181.346 109.318 181.43 109.183C181.515 109.048 181.327 108.764 181.284 108.617L181.261 108.521C181.092 107.81 181.215 106.983 181.203 106.263C181.203 105.798 181.203 105.332 181.203 104.871C181.096 104.905 180.976 104.932 180.853 104.959L181.1 93.418V92.8448V92.3678L181.719 63.2306L181.977 63.2883L182.111 63.3191L182.2 63.3421L182.438 63.3999L182.611 63.4383H182.638L182.788 63.4691H182.811L182.973 63.4922C183.089 63.5047 183.206 63.5111 183.323 63.5114C183.57 63.503 183.816 63.4734 184.058 63.4229L184.173 63.3999L184.289 63.3768L184.408 63.3498L184.566 63.3114L184.67 63.2883L184.966 63.2152L185.574 92.5216V92.6524L185.831 104.963C185.652 104.935 185.475 104.895 185.3 104.844C185.3 105.305 185.3 105.771 185.3 106.236C185.3 106.944 185.408 107.775 185.25 108.467C185.249 108.476 185.249 108.486 185.25 108.494L185.224 108.591C185.181 108.737 184.985 109.002 185.077 109.156C185.17 109.31 185.25 109.287 185.412 109.291C186.024 109.291 186.674 109.248 187.282 109.291C188.051 109.364 188.613 109.849 189.263 110.141C189.933 110.435 190.639 110.638 191.363 110.745C192.815 110.943 194.286 110.943 195.737 110.745C196.718 110.637 196.841 110.36 196.807 110.183V110.087C196.857 109.564 196.638 108.448 194.083 107.944C193.914 107.91 193.729 107.879 193.537 107.852L193.429 107.833L193.318 107.813H193.221L192.883 107.737H192.852L192.637 107.683L192.298 107.586L191.913 107.46C191.775 107.41 191.633 107.36 191.49 107.302L191.183 107.171C190.972 107.076 190.761 106.968 190.548 106.848C190.417 106.771 190.29 106.694 190.163 106.606C190.004 106.496 189.851 106.378 189.705 106.252C189.173 105.848 188.787 105.282 188.605 104.64C188.55 104.681 188.492 104.718 188.432 104.751C188.432 104.597 188.459 104.443 188.474 104.274V104.159L188.497 103.886V103.743C188.497 103.663 188.497 103.582 188.497 103.501C188.497 103.42 188.497 103.382 188.497 103.32C188.497 103.259 188.497 103.132 188.524 103.035C188.551 102.939 188.524 102.951 188.524 102.909C188.524 102.866 188.524 102.728 188.551 102.635C188.578 102.543 188.551 102.493 188.551 102.424L188.574 102.139V101.951L188.597 101.708C188.597 101.612 188.597 101.516 188.624 101.416V101.281C188.624 101.158 188.644 101.035 188.655 100.897V100.773L188.69 100.408C188.72 100.054 188.751 99.6925 188.786 99.3193V99.1769C188.786 99.0346 188.809 98.8923 188.824 98.7499C188.824 98.6845 188.824 98.6153 188.824 98.5499C188.824 98.4268 188.824 98.2998 188.855 98.1652L188.878 97.9151C188.878 97.8113 188.901 97.7074 188.909 97.5997C188.917 97.492 188.909 97.3766 188.94 97.265L188.963 97.0111C188.963 96.9111 188.982 96.8072 188.994 96.7033C189.005 96.5995 188.994 96.484 189.024 96.3725C189.055 96.2609 189.024 96.1763 189.051 96.0801C189.078 95.9839 189.071 95.8685 189.082 95.7608C189.094 95.6531 189.082 95.5723 189.109 95.4761L189.144 95.0914C189.144 95.0107 189.144 94.926 189.171 94.8414L189.205 94.4567C189.205 94.372 189.205 94.2913 189.232 94.2066L189.267 93.8219C189.267 93.7296 189.267 93.6411 189.294 93.5488V93.4795C189.294 93.3064 189.324 93.1333 189.344 92.9602C189.344 92.914 189.344 92.864 189.344 92.814C189.398 92.2331 189.459 91.6599 189.517 91.0598V90.9636C189.574 90.3789 189.636 89.8095 189.698 89.2094C189.698 89.1632 189.698 89.1171 189.698 89.0709L189.721 88.8247C189.721 88.7054 189.748 88.5862 189.759 88.4669L189.782 88.263C189.782 88.1322 189.809 88.0014 189.825 87.8783C189.825 87.8129 189.825 87.7514 189.825 87.686C189.825 87.559 189.851 87.4321 189.867 87.3013C189.882 87.1705 189.867 87.1397 189.894 87.0628L189.928 86.7242C189.928 86.6511 189.928 86.5742 189.955 86.5011C189.982 86.428 189.982 86.2587 189.994 86.1395L190.017 85.9587C190.017 85.8317 190.044 85.7048 190.059 85.574V85.4739C190.094 85.1508 190.132 84.8315 190.167 84.5199V84.4814C190.167 84.366 190.194 84.2506 190.205 84.1352C190.217 84.0198 190.205 83.9967 190.232 83.9274L190.267 83.6389C190.267 83.5543 190.267 83.4697 190.298 83.385L190.332 83.085C190.332 83.0119 190.332 82.9388 190.359 82.8657L190.394 82.5848L190.429 82.3348C190.429 82.2502 190.428 82.1694 190.459 82.0886C190.49 82.0078 190.482 81.9155 190.49 81.8308C190.498 81.7462 190.513 81.6616 190.525 81.5769C190.536 81.4923 190.525 81.4154 190.555 81.3384L190.59 81.0961C190.59 81.0153 190.59 80.9306 190.621 80.8537C190.652 80.7767 190.644 80.696 190.652 80.619L190.686 80.3882C190.686 80.3113 190.686 80.2343 190.717 80.1612C190.748 80.0881 190.74 80.0074 190.748 79.9343C190.755 79.8612 190.771 79.7881 190.779 79.7188L190.813 79.4919C190.813 79.4226 190.813 79.3572 190.844 79.2918L190.879 79.0725C190.879 79.0071 190.879 78.9417 190.906 78.8763L190.94 78.6724C190.94 78.607 190.94 78.5455 190.971 78.4839L191.006 78.2685C191.006 78.2147 191.006 78.1608 191.033 78.1108C191.059 78.0608 191.056 77.9569 191.071 77.88L191.094 77.753C191.112 77.6376 191.131 77.526 191.152 77.4183C191.206 77.1298 191.259 76.8413 191.306 76.5604C191.306 76.4681 191.34 76.3758 191.356 76.2796C191.386 76.095 191.421 75.8949 191.452 75.7218C191.452 75.6141 191.486 75.5102 191.502 75.4025C191.533 75.2332 191.56 75.0678 191.583 74.9024C191.583 74.7947 191.617 74.6831 191.636 74.5754C191.656 74.4677 191.683 74.2561 191.706 74.1022C191.729 73.9483 191.74 73.8829 191.756 73.7752C191.771 73.6675 191.798 73.4675 191.817 73.3136L191.863 72.9981L191.921 72.5403C191.921 72.4403 191.948 72.3441 191.96 72.2441L192.017 71.7594C192.017 71.6786 192.017 71.594 192.048 71.5093C192.071 71.3131 192.09 71.1246 192.114 70.9207V70.7938C192.14 70.5591 192.164 70.3245 192.183 70.0936C192.183 70.0359 192.183 69.9821 192.183 69.9282L192.229 69.4127C192.229 69.3358 192.229 69.2588 192.229 69.1819C192.229 69.0357 192.252 68.8934 192.26 68.7472C192.26 68.6664 192.26 68.5818 192.26 68.501L192.283 68.097C192.283 68.0163 192.283 67.9355 192.283 67.8547L192.306 67.47V67.2353C192.306 67.1045 192.306 66.9776 192.306 66.8506C192.306 66.7237 192.306 66.7044 192.306 66.6313V66.2466C192.306 66.1851 192.306 66.1235 192.306 66.062C192.306 65.9081 192.306 65.7542 192.306 65.6003C192.306 65.5657 192.306 65.5272 192.306 65.4888V64.9233C192.306 64.7425 192.306 64.5655 192.306 64.3885C192.306 64.3424 192.306 64.2962 192.306 64.25C192.306 64.1192 192.306 63.9923 192.306 63.8653C192.306 63.8076 192.306 63.7538 192.306 63.6961V63.3575C192.306 63.2998 192.306 63.2421 192.306 63.1806C192.306 63.119 192.306 62.969 192.306 62.8613V62.692C192.306 62.5843 192.306 62.4804 192.306 62.3766V62.2188L192.283 61.8995V61.761C192.283 61.6418 192.283 61.5225 192.252 61.4071C192.25 61.3802 192.25 61.3532 192.252 61.3263C192.221 61.0301 192.19 60.7454 192.152 60.4723C192.154 60.4518 192.154 60.4312 192.152 60.4107L192.106 60.0722C192.108 60.0402 192.108 60.0081 192.106 59.976C192.106 59.8798 192.079 59.7837 192.063 59.6913C192.048 59.599 192.063 59.6144 192.044 59.5798C192.025 59.5452 192.017 59.4028 192.002 59.3182C191.987 59.2336 192.002 59.2412 192.002 59.2028L191.956 58.9604L191.933 58.8489L191.887 58.6065L191.863 58.5142C191.863 58.4257 191.829 58.341 191.81 58.2564C191.808 58.2334 191.808 58.2102 191.81 58.1872C191.736 57.8679 191.656 57.564 191.579 57.2831C191.579 57.26 191.579 57.2408 191.579 57.2216C191.579 57.2023 191.536 57.0792 191.517 57.01L191.494 56.9331L191.436 56.7522C191.436 56.7253 191.417 56.6984 191.41 56.6715L191.352 56.5022C191.345 56.4758 191.336 56.45 191.325 56.4252L191.267 56.2598L191.244 56.1906L191.179 56.0213C191.18 56.0034 191.18 55.9854 191.179 55.9675L191.298 55.7828V55.7636L191.129 55.3789C191.127 55.3661 191.127 55.3531 191.129 55.3404C191.106 55.2942 191.086 55.2481 191.063 55.2057L191.04 55.1519L190.983 55.0365C190.975 55.0178 190.966 54.9998 190.956 54.9826C190.956 54.948 190.921 54.9134 190.906 54.8826L190.875 54.8249C190.86 54.7942 190.844 54.7646 190.825 54.7364C190.825 54.7172 190.825 54.6979 190.798 54.6826C190.771 54.6672 190.763 54.6249 190.748 54.5979C190.741 54.5801 190.732 54.5633 190.721 54.5479C190.706 54.5189 190.689 54.4906 190.671 54.4633L190.648 54.4248L190.586 54.3248L190.517 54.2209C190.509 54.2072 190.5 54.1943 190.49 54.1824L190.455 54.1286C190.446 54.1138 190.436 54.0997 190.425 54.0863C190.413 54.0718 190.403 54.0564 190.394 54.0401L190.363 53.9978L190.336 53.9632L190.305 53.9209L190.282 53.8939C190.273 53.8789 190.263 53.8648 190.252 53.8516V53.8324L190.221 53.7939L190.125 53.6862L190.078 53.6362L190.052 53.6092C189.882 53.4746 189.725 53.34 189.574 53.2053L189.448 53.0899L189.121 52.7744L189.024 52.6744C188.894 52.5436 188.774 52.4128 188.663 52.2897C188.64 52.2666 188.62 52.2397 188.597 52.2128L188.343 51.8935L188.259 51.7781C188.178 51.6665 188.101 51.5549 188.032 51.4434C188.019 51.4263 188.007 51.4083 187.997 51.3895C187.915 51.2639 187.842 51.1356 187.778 51.0048L187.728 50.9048C187.682 50.8086 187.636 50.7125 187.593 50.6163C187.593 50.5817 187.566 50.5509 187.551 50.5163C187.505 50.3932 187.459 50.27 187.42 50.1316V50.0931C187.389 49.9854 187.359 49.8777 187.336 49.7699L187.312 49.6699C187.292 49.575 187.277 49.4788 187.266 49.3814V49.316C187.266 49.2006 187.243 49.0852 187.239 48.9736V48.8582C187.239 48.7697 187.239 48.6812 187.239 48.5966C187.239 48.512 187.239 48.5351 187.239 48.5043C187.242 48.4025 187.251 48.3011 187.266 48.2004C187.266 48.0926 187.301 47.9926 187.32 47.8888C187.322 47.8606 187.322 47.8323 187.32 47.8041L187.378 47.5771L187.401 47.4964C187.428 47.4002 187.459 47.3079 187.493 47.2155C187.493 47.1963 187.493 47.1771 187.493 47.1578C187.493 47.1386 187.551 47.0116 187.582 46.9424C187.592 46.9132 187.605 46.8849 187.62 46.8578C187.651 46.7885 187.682 46.7193 187.716 46.6539C187.724 46.6339 187.733 46.6146 187.743 46.5962C187.782 46.5192 187.824 46.4423 187.866 46.3653C187.909 46.2884 187.997 46.1422 188.066 46.0383L188.116 45.9691C188.174 45.8806 188.232 45.796 188.29 45.719L188.336 45.6536L188.547 45.3844C188.69 45.2151 188.828 45.0651 188.932 44.942C189.086 44.7833 189.249 44.6343 189.421 44.4957C189.544 44.4072 189.659 44.311 189.775 44.2187L189.867 44.1456C190.407 43.7029 190.879 43.1847 191.271 42.6068C192.598 44.8654 194.099 47.0172 195.76 49.0429C195.999 49.3198 196.237 49.5737 196.468 49.8123C196.682 50.0279 196.906 50.2321 197.142 50.4239C197.417 50.6581 197.726 50.8512 198.057 50.9971C200.315 51.9012 208.182 38.1558 208.182 38.1558L211.852 38.0866C211.963 38.1017 212.075 38.1094 212.187 38.1097H212.245C212.349 38.1157 212.453 38.1157 212.556 38.1097H212.603C212.816 38.0789 213.026 38.0273 213.23 37.9558C214.811 37.3749 215.711 35.5707 215.711 35.5707C215.863 35.2852 215.991 34.988 216.096 34.682C216.749 34.1171 217.277 33.4218 217.647 32.6407C218.016 31.8596 218.217 31.01 218.238 30.1464H218.331C218.954 30.1464 219.454 29.7848 219.454 29.3424C219.442 29.1474 219.363 28.9625 219.231 28.8189C219.098 28.6753 218.92 28.5816 218.727 28.5537ZM174.402 40.968C174.401 40.9744 174.401 40.9809 174.402 40.9872C174.429 41.0796 174.456 41.168 174.49 41.2604C174.525 41.3527 174.552 41.4335 174.59 41.522C174.629 41.6105 174.664 41.6951 174.706 41.7836C174.748 41.872 174.787 41.9567 174.833 42.0413C174.879 42.1259 174.929 42.2106 174.979 42.2991L175.125 42.5453C175.191 42.6414 175.26 42.7338 175.329 42.8261C175.398 42.9184 175.521 43.08 175.625 43.2108C175.729 43.3416 175.768 43.3801 175.845 43.4647C176.196 43.8373 176.582 44.1748 176.999 44.4726C177.546 44.9244 178.021 45.4576 178.407 46.0537L178.518 46.0807C179.465 47.5695 180.119 49.9507 177.572 52.6206L177.491 52.7052L177.218 52.9668C175.106 50.8702 171.563 47.2232 171.093 45.8768C172.029 44.1335 173.137 42.489 174.402 40.968ZM171.355 61.3186C170.859 61.5379 170.455 61.7226 170.12 61.8764C170.832 61.2923 171.637 60.8319 172.502 60.5146C172.852 60.4184 173.209 60.3146 173.559 60.2068L173.748 60.1645C173.748 60.1992 173.748 60.2338 173.748 60.2684C173.748 60.303 173.748 60.3607 173.748 60.4069V60.4877C172.448 60.8724 171.355 61.3186 171.355 61.3186Z" fill="#65B6C1"/>
</svg>
