<svg width="159" height="14" viewBox="0 0 159 14" fill="none" xmlns="http://www.w3.org/2000/svg">
<circle r="6.85464" transform="matrix(-1 0 0 1 134.736 6.85464)" fill="#FF0404"/>
<circle r="6.85464" transform="matrix(-1 0 0 1 118.862 6.85464)" fill="#FF0404"/>
<circle r="6.85464" transform="matrix(-1 0 0 1 102.988 6.85464)" fill="#FF0404"/>
<circle r="6.85464" transform="matrix(-1 0 0 1 87.114 6.85464)" fill="#FF0404"/>
<circle r="6.85464" transform="matrix(-1 0 0 1 71.24 6.85464)" fill="#FF0404"/>
<circle r="6.85464" transform="matrix(-1 0 0 1 55.3663 6.85464)" fill="white"/>
<circle r="6.85464" transform="matrix(-1 0 0 1 39.4923 6.85464)" fill="white"/>
<circle r="6.85464" transform="matrix(-1 0 0 1 23.6184 6.85464)" fill="white"/>
<circle r="6.85464" transform="matrix(-1 0 0 1 7.74467 6.85464)" fill="white"/>
<circle r="6.85464" transform="matrix(-1 0 0 1 152.145 6.85464)" fill="white"/>
</svg>
