<svg width="190" height="15" viewBox="0 0 190 15" fill="none" xmlns="http://www.w3.org/2000/svg">
<circle r="6.85464" transform="matrix(-1 0 0 1 133.988 7.25454)" fill="#FF0404"/>
<circle r="6.85464" transform="matrix(-1 0 0 1 118.114 7.25454)" fill="#FF0404"/>
<circle r="6.85464" transform="matrix(-1 0 0 1 102.24 7.25454)" fill="#FF0404"/>
<circle r="6.85464" transform="matrix(-1 0 0 1 86.3661 7.25454)" fill="#FF0404"/>
<circle r="6.85464" transform="matrix(-1 0 0 1 70.4921 7.25454)" fill="#FF0404"/>
<circle r="6.85464" transform="matrix(-1 0 0 1 54.6184 7.25454)" fill="white"/>
<circle r="6.85464" transform="matrix(-1 0 0 1 38.7444 7.25454)" fill="white"/>
<circle r="6.85464" transform="matrix(-1 0 0 1 22.8704 7.25454)" fill="white"/>
<circle r="6.85464" transform="matrix(-1 0 0 1 6.99671 7.25454)" fill="white"/>
<circle r="6.85464" transform="matrix(-1 0 0 1 183.145 7.25454)" fill="white"/>
<circle r="6.85464" transform="matrix(-1 0 0 1 167.271 7.25454)" fill="white"/>
<circle r="6.85464" transform="matrix(-1 0 0 1 151.397 7.25454)" fill="white"/>
</svg>
