<svg width="159" height="14" viewBox="0 0 159 14" fill="none" xmlns="http://www.w3.org/2000/svg">
<circle r="6.85464" transform="matrix(-1 0 0 1 133.846 6.85464)" fill="#FF0404"/>
<circle r="6.85464" transform="matrix(-1 0 0 1 117.972 6.85464)" fill="#FF0404"/>
<circle r="6.85464" transform="matrix(-1 0 0 1 102.098 6.85464)" fill="#FF0404"/>
<circle r="6.85464" transform="matrix(-1 0 0 1 86.224 6.85464)" fill="#FF0404"/>
<circle r="6.85464" transform="matrix(-1 0 0 1 70.35 6.85464)" fill="#FF0404"/>
<circle r="6.85464" transform="matrix(-1 0 0 1 54.4763 6.85464)" fill="white"/>
<circle r="6.85464" transform="matrix(-1 0 0 1 38.6023 6.85464)" fill="white"/>
<circle r="6.85464" transform="matrix(-1 0 0 1 22.7284 6.85464)" fill="white"/>
<circle r="6.85464" transform="matrix(-1 0 0 1 6.85465 6.85464)" fill="white"/>
<circle r="6.85464" transform="matrix(-1 0 0 1 151.255 6.85464)" fill="white"/>
</svg>
