<svg width="299" height="299" viewBox="0 0 299 299" fill="none" xmlns="http://www.w3.org/2000/svg">
<path d="M173.796 53.5349C171.897 53.5349 169.912 53.6013 167.965 53.7153L168.468 53.9432C169.048 54.1901 169.618 54.4466 170.187 54.7125L171.137 55.1588L173.036 56.1085L173.739 56.4599C174.613 56.8968 175.477 57.3432 176.332 57.8085L176.864 58.1029L178.896 59.2521L179.779 59.7744C180.33 60.0973 180.881 60.4139 181.432 60.7241L182.382 61.3129L183.958 62.3386L184.908 62.9464L186.57 64.0955L187.348 64.6464C188.156 65.2162 188.944 65.7955 189.732 66.3938C190.815 67.2201 191.869 68.0748 192.923 68.9485L193.702 69.6038C194.585 70.3541 195.449 71.1328 196.295 71.9211L197.539 73.0702C198.375 73.868 199.191 74.6847 199.989 75.511L200.635 76.1948C217.439 94.266 227.303 117.702 228.48 142.351C229.287 160.69 223.181 178.031 211.784 189.941C201.822 200.34 188.697 205.839 173.796 205.839C166.819 205.851 159.901 204.562 153.397 202.04C152.903 202.04 152.447 202.04 151.915 202.04C142.891 202.03 134.239 198.441 127.858 192.059C121.477 185.678 117.888 177.027 117.878 168.003C117.878 152.807 139.218 115.987 146.369 104.012L146.036 103.869C145.505 103.651 144.973 103.432 144.441 103.233L143.862 103.014C143.171 102.755 142.478 102.517 141.782 102.302H141.725C141.041 102.084 140.357 101.894 139.664 101.713L139.056 101.552C138.505 101.419 137.945 101.286 137.394 101.172C137.214 101.172 137.033 101.086 136.853 101.058C136.141 100.906 135.428 100.783 134.706 100.669L134.279 100.612C133.69 100.526 133.101 100.45 132.503 100.384L131.857 100.317C131.24 100.26 130.632 100.213 130.015 100.175H129.645C128.91 100.137 128.179 100.118 127.451 100.118H125.77H124.716H124.022C123.642 100.118 123.263 100.175 122.883 100.213H122.275L120.67 100.403H120.527H120.252C112.882 101.438 105.849 104.158 99.7004 108.352C95.3189 111.462 91.5461 115.351 88.5699 119.824C79.2723 134.003 76.6226 153.729 81.5421 172.846C81.5421 172.931 81.5421 173.026 81.6181 173.112C89.8045 204.452 114.345 230.028 145.106 239.838L145.903 240.075C146.654 240.303 147.413 240.541 148.183 240.75C149.275 241.063 150.377 241.348 151.497 241.623C164.591 244.765 178.202 245.097 191.434 242.598C204.666 240.1 217.219 234.827 228.266 227.128C239.314 219.428 248.605 209.477 255.529 197.927C262.453 186.378 266.852 173.493 268.438 160.121C270.023 146.749 268.758 133.193 264.727 120.345C260.695 107.497 253.989 95.6483 245.048 85.5791C236.107 75.5099 225.135 67.4485 212.854 61.9253C200.573 56.4022 187.262 53.5426 173.796 53.5349Z" fill="#F37C92"/>
<path d="M95.1888 216.086C80.7908 199.355 72.1745 178.425 70.6199 156.407C70.6004 156.07 70.6195 155.732 70.6769 155.4C70.5629 154.45 70.4775 153.358 70.411 152.218V151.563C70.411 150.746 70.354 149.939 70.354 149.122V148.837C70.354 147.821 70.354 146.748 70.468 145.551V145.001C71.1223 135.689 74.0543 126.681 79.0061 118.768C83.9579 110.854 90.7779 104.279 98.8664 99.6196C106.955 94.96 116.064 92.359 125.394 92.0451C134.723 91.7312 143.987 93.7141 152.37 97.8194C153.051 98.1621 153.626 98.6842 154.032 99.3294C154.601 99.6659 155.08 100.135 155.428 100.697C158.553 105.778 185.999 150.851 185.999 168.059C186 174.02 184.435 179.877 181.462 185.044C178.488 190.21 174.211 194.506 169.057 197.5C170.633 197.652 172.229 197.747 173.805 197.747C198.678 197.747 217.178 178.915 218.812 151.952V151.269C218.812 150.499 218.812 149.73 218.812 148.951C218.812 148.173 218.812 147.413 218.812 146.644V145.96C218.755 144.925 218.726 143.899 218.707 142.883C218.745 140.765 218.541 138.649 218.099 136.577C218.03 136.306 217.988 136.029 217.976 135.751C214.044 107.44 203.208 86.9073 184.85 72.9847C168.328 60.3968 148.127 53.5864 127.355 53.6012H126.709C125.256 53.6012 123.974 53.6012 122.806 53.6962C122.341 53.6962 121.856 53.6962 121.448 53.7817H120.888C119.938 53.8386 119.121 53.8956 118.276 53.9811C117.431 54.0666 116.453 54.171 115.55 54.285L114.876 54.361L114.24 54.4275H114.069L113.679 54.4939C112.73 54.6364 111.695 54.8073 110.716 54.9783L110.365 55.0353L108.95 55.2917C108.067 55.4626 107.193 55.6526 106.319 55.852C105.446 56.0515 104.847 56.1749 104.125 56.3554L102.226 56.8587C101.191 57.1341 100.213 57.4095 99.2345 57.7039L98.2848 58.0078C79.0129 64.1321 62.1867 76.2242 50.237 92.5373C38.2872 108.85 31.8326 128.54 31.8056 148.761C31.8097 148.809 31.8097 148.857 31.8056 148.904C31.8056 149.046 31.8056 149.16 31.8056 149.265C31.8056 150.737 31.8056 152.066 31.91 153.311C31.91 153.728 31.91 154.137 31.986 154.536V155.134C32.0525 156.084 32.1095 156.957 32.195 157.831C32.2804 158.705 32.3849 159.626 32.4989 160.519C32.4989 160.747 32.4989 160.975 32.5748 161.203V161.506C32.5748 161.62 32.5748 161.734 32.6413 161.848C35.8342 184.682 47.1657 205.593 64.5508 220.736C81.9359 235.879 104.205 244.234 127.26 244.264C129.229 244.264 131.201 244.2 133.177 244.074C118.522 237.805 105.519 228.225 95.1888 216.086Z" fill="#65B6C1"/>
<path d="M151.952 110.716C142.455 126.861 126.063 156.929 126.063 168.031C126.063 174.897 128.791 181.482 133.646 186.337C138.501 191.192 145.086 193.92 151.952 193.92C158.818 193.92 165.403 191.192 170.258 186.337C175.113 181.482 177.841 174.897 177.841 168.031C177.841 156.929 161.449 126.842 151.952 110.716Z" fill="#ED1C24"/>
<path d="M34.3887 226.837C32.1156 228.608 30.6387 231.21 30.2826 234.07C29.9264 236.93 30.7201 239.814 32.4893 242.089L32.6033 242.222C33.9472 243.889 35.7539 245.122 37.7963 245.765C39.8387 246.409 42.0257 246.435 44.0827 245.839C46.1397 245.244 47.9748 244.054 49.3576 242.419C50.7403 240.783 51.609 238.776 51.8546 236.649C52.1001 234.522 51.7116 232.369 50.7377 230.462C49.7638 228.555 48.2481 226.978 46.3809 225.93C44.5137 224.881 42.3783 224.408 40.243 224.569C38.1077 224.731 36.0676 225.519 34.3792 226.837H34.3887Z" fill="#DBDBDB"/>
<path d="M34.3509 204.509C33.074 201.958 30.8447 200.011 28.1443 199.089C25.444 198.167 22.4895 198.345 19.919 199.583C17.3485 200.822 15.3684 203.022 14.4064 205.708C13.4443 208.394 13.5777 211.351 14.7775 213.94C15.6629 215.776 17.0489 217.326 18.7761 218.41C20.5033 219.493 22.5014 220.067 24.5404 220.065C26.3815 220.066 28.1927 219.599 29.8038 218.708C31.4149 217.817 32.7732 216.531 33.7511 214.972C34.729 213.412 35.2945 211.629 35.3944 209.79C35.4943 207.952 35.1254 206.118 34.3224 204.462L34.3509 204.509Z" fill="#DBDBDB"/>
<path d="M286.364 169.323C284.267 168.846 282.075 169.003 280.067 169.772C278.058 170.541 276.323 171.888 275.08 173.644C273.837 175.399 273.143 177.484 273.085 179.634C273.027 181.784 273.608 183.903 274.755 185.722C275.901 187.542 277.561 188.981 279.526 189.857C281.49 190.734 283.67 191.008 285.79 190.645C287.91 190.282 289.874 189.299 291.435 187.82C292.997 186.34 294.084 184.431 294.56 182.334C294.88 180.941 294.921 179.499 294.682 178.09C294.443 176.681 293.928 175.334 293.166 174.125C292.405 172.915 291.412 171.869 290.244 171.045C289.077 170.221 287.758 169.635 286.364 169.323Z" fill="#DBDBDB"/>
<path d="M69.7562 248.822C68.6472 247.89 67.3627 247.188 65.9786 246.76C64.5944 246.331 63.1385 246.183 61.6965 246.326C60.2545 246.468 58.8555 246.897 57.5819 247.589C56.3083 248.28 55.1858 249.219 54.2805 250.35C53.3753 251.482 52.7055 252.783 52.3106 254.177C51.9157 255.571 51.8036 257.03 51.9811 258.468C52.1585 259.906 52.6219 261.294 53.3438 262.551C54.0658 263.807 55.0318 264.906 56.185 265.784C58.4416 267.501 61.2801 268.268 64.0944 267.921C66.9087 267.573 69.4757 266.14 71.2473 263.925C73.0188 261.711 73.8545 258.892 73.576 256.07C73.2974 253.248 71.9265 250.647 69.7562 248.822Z" fill="#DBDBDB"/>
<path d="M228.555 248.765C227.441 249.659 226.514 250.764 225.826 252.017C225.139 253.27 224.705 254.645 224.55 256.066C224.394 257.486 224.519 258.923 224.919 260.295C225.319 261.666 225.985 262.946 226.879 264.06C227.773 265.175 228.878 266.102 230.131 266.789C231.383 267.476 232.759 267.91 234.179 268.066C235.6 268.222 237.037 268.096 238.408 267.696C239.78 267.297 241.06 266.631 242.174 265.736C243.287 264.843 244.212 263.739 244.898 262.488C245.584 261.236 246.016 259.862 246.171 258.444C246.326 257.025 246.2 255.59 245.8 254.22C245.4 252.851 244.734 251.573 243.841 250.46C242.947 249.348 241.843 248.422 240.592 247.737C239.341 247.051 237.967 246.618 236.548 246.463C235.129 246.309 233.694 246.435 232.325 246.835C230.955 247.234 229.677 247.9 228.565 248.794L228.555 248.765Z" fill="#DBDBDB"/>
<path d="M264.018 226.865C262.34 225.52 260.301 224.703 258.158 224.517C256.016 224.331 253.866 224.784 251.982 225.819C250.097 226.855 248.561 228.426 247.569 230.334C246.577 232.242 246.173 234.401 246.408 236.538C246.643 238.676 247.507 240.696 248.889 242.343C250.272 243.99 252.112 245.19 254.177 245.791C256.242 246.392 258.438 246.367 260.489 245.72C262.54 245.073 264.353 243.833 265.699 242.155C266.596 241.043 267.265 239.763 267.666 238.391C268.068 237.019 268.194 235.582 268.038 234.161C267.882 232.74 267.446 231.363 266.756 230.111C266.066 228.859 265.136 227.756 264.018 226.865Z" fill="#DBDBDB"/>
<path d="M298.273 148.866V148.818C298.263 146.282 297.365 143.829 295.735 141.886C294.105 139.942 291.846 138.631 289.35 138.18C286.854 137.729 284.278 138.165 282.071 139.415C279.863 140.664 278.163 142.647 277.266 145.02C276.793 146.26 276.548 147.576 276.544 148.904V149.217C276.555 150.516 276.796 151.802 277.256 153.016C278.15 155.395 279.849 157.385 282.059 158.639C284.269 159.893 286.848 160.333 289.349 159.881C291.849 159.429 294.112 158.114 295.742 156.166C297.373 154.217 298.269 151.758 298.273 149.217V148.904V148.866Z" fill="#DBDBDB"/>
<path d="M16.7244 190.643C19.5334 190.009 21.9756 188.285 23.5142 185.851C25.0528 183.416 25.562 180.471 24.9298 177.661C24.9298 177.604 24.9298 177.509 24.8823 177.452C24.3995 175.472 23.3695 173.668 21.91 172.245C20.4505 170.823 18.6203 169.839 16.6285 169.408C14.6366 168.976 12.5636 169.113 10.646 169.804C8.72851 170.494 7.04386 171.71 5.78456 173.313C4.52525 174.915 3.74206 176.839 3.52446 178.866C3.30687 180.892 3.66363 182.939 4.55401 184.772C5.44439 186.606 6.83247 188.151 8.55968 189.233C10.2869 190.315 12.2836 190.889 14.3216 190.89C15.1294 190.901 15.9357 190.818 16.7244 190.643Z" fill="#DBDBDB"/>
<path d="M278.462 199.362C275.875 198.178 272.926 198.056 270.25 199.021C267.574 199.987 265.382 201.962 264.146 204.525C262.909 207.087 262.726 210.032 263.636 212.728C264.546 215.424 266.476 217.655 269.012 218.944C270.491 219.664 272.116 220.035 273.761 220.027C275.805 220.03 277.809 219.456 279.541 218.371C281.273 217.285 282.663 215.733 283.552 213.892V213.845C284.17 212.56 284.529 211.165 284.607 209.742C284.686 208.318 284.483 206.893 284.01 205.548C283.538 204.202 282.804 202.964 281.852 201.902C280.9 200.841 279.748 199.977 278.462 199.362Z" fill="#DBDBDB"/>
<path d="M148.941 21.7292C151.823 21.7292 154.586 20.5845 156.624 18.547C158.661 16.5095 159.806 13.7461 159.806 10.8646C159.806 7.98313 158.661 5.21968 156.624 3.18217C154.586 1.14466 151.823 0 148.941 0V0C146.06 0 143.296 1.14466 141.259 3.18217C139.221 5.21968 138.077 7.98313 138.077 10.8646C138.077 13.7461 139.221 16.5095 141.259 18.547C143.296 20.5845 146.06 21.7292 148.941 21.7292Z" fill="#DBDBDB"/>
<path d="M204.186 34.1893L204.357 34.2748C206.996 35.5664 210.04 35.7597 212.822 34.8124C215.604 33.8651 217.897 31.8545 219.2 29.2204C220.503 26.5863 220.709 23.5434 219.774 20.7575C218.839 17.9717 216.838 15.6697 214.209 14.3555C211.581 13.0413 208.539 12.8218 205.749 13.7451C202.959 14.6684 200.649 16.6593 199.323 19.2821C197.998 21.9048 197.765 24.9459 198.676 27.7397C199.588 30.5335 201.569 32.8525 204.186 34.1893Z" fill="#DBDBDB"/>
<path d="M177.32 24.8537C178.725 25.2048 180.187 25.2712 181.619 25.049C183.051 24.8267 184.424 24.3202 185.658 23.5593C186.891 22.7984 187.959 21.7985 188.8 20.6184C189.641 19.4383 190.238 18.1019 190.555 16.6879C190.871 15.2739 190.902 13.8108 190.645 12.3847C190.388 10.9586 189.848 9.59838 189.057 8.38408C188.266 7.16978 187.241 6.12594 186.04 5.314C184.84 4.50206 183.489 3.93843 182.068 3.65628H182.021C179.208 3.02659 176.261 3.53983 173.827 5.0831C171.394 6.62637 169.673 9.07325 169.043 11.8855C168.413 14.6977 168.926 17.6448 170.47 20.0786C172.013 22.5124 174.46 24.2335 177.272 24.8631L177.32 24.8537Z" fill="#DBDBDB"/>
<path d="M228.356 49.3846L228.498 49.4986C230.775 51.289 233.668 52.1045 236.545 51.7667C239.421 51.4289 242.047 49.9652 243.846 47.6961C245.646 45.427 246.474 42.5373 246.148 39.6594C245.822 36.7816 244.369 34.15 242.108 32.3408C239.846 30.5315 236.96 29.6919 234.081 30.0057C231.202 30.3196 228.564 31.7613 226.745 34.0153C224.927 36.2693 224.075 39.1521 224.377 42.0326C224.679 44.913 226.11 47.5566 228.356 49.3846Z" fill="#DBDBDB"/>
<path d="M248.689 69.6132C250.52 71.7803 253.136 73.1331 255.963 73.3753C258.79 73.6175 261.598 72.7294 263.771 70.9055C265.944 69.0816 267.306 66.4706 267.558 63.6445C267.81 60.8185 266.932 58.0078 265.115 55.8281C263.299 53.6485 260.693 52.2776 257.868 52.0159C255.042 51.7541 252.229 52.6228 250.043 54.4316C247.857 56.2404 246.477 58.8419 246.205 61.6661C245.934 64.4904 246.793 67.3071 248.594 69.4993L248.689 69.6132Z" fill="#DBDBDB"/>
<path d="M263.856 93.6312C264.479 94.9158 265.35 96.065 266.418 97.0132C267.485 97.9613 268.729 98.6899 270.079 99.1573C271.428 99.6247 272.856 99.8218 274.281 99.7372C275.707 99.6527 277.102 99.2882 278.386 98.6647C279.671 98.0411 280.82 97.1706 281.768 96.1029C282.716 95.0352 283.445 93.7912 283.912 92.4419C284.38 91.0926 284.577 89.6645 284.492 88.239C284.408 86.8136 284.043 85.4188 283.42 84.1342L283.372 84.0297C282.745 82.7483 281.871 81.6029 280.801 80.6591C279.731 79.7152 278.486 78.9913 277.136 78.5288C275.786 78.0663 274.359 77.8741 272.935 77.9633C271.511 78.0524 270.118 78.4212 268.837 79.0485C267.555 79.6759 266.41 80.5495 265.466 81.6194C264.522 82.6894 263.799 83.9348 263.336 85.2845C262.873 86.6342 262.681 88.0618 262.77 89.4858C262.86 90.9098 263.228 92.3023 263.856 93.5837V93.6312Z" fill="#DBDBDB"/>
<path d="M21.7292 149.246C21.7292 146.364 20.5845 143.601 18.547 141.563C16.5095 139.526 13.7461 138.381 10.8646 138.381C7.98313 138.381 5.21968 139.526 3.18217 141.563C1.14466 143.601 0 146.364 0 149.246H0C0 152.127 1.14466 154.891 3.18217 156.928C5.21968 158.966 7.98313 160.11 10.8646 160.11C13.7461 160.11 16.5095 158.966 18.547 156.928C20.5845 154.891 21.7292 152.127 21.7292 149.246Z" fill="#DBDBDB"/>
<path d="M34.1231 71.5507C36.3739 73.3451 39.2444 74.1738 42.1053 73.8551C44.9662 73.5365 47.584 72.0965 49.3848 69.8508L49.4988 69.7083C50.8075 68.014 51.5865 65.9707 51.7379 63.8352C51.8893 61.6996 51.4064 59.5669 50.3498 57.7048C49.2932 55.8428 47.71 54.3344 45.799 53.3692C43.888 52.4039 41.7344 52.0247 39.6087 52.2793C37.4829 52.5339 35.4798 53.4108 33.8507 54.8C32.2217 56.1892 31.0394 58.0287 30.4524 60.0876C29.8653 62.1465 29.8996 64.3329 30.551 66.3724C31.2024 68.4118 32.4418 70.2133 34.1136 71.5507H34.1231Z" fill="#DBDBDB"/>
<path d="M17.6642 97.8195C18.778 98.7119 20.0568 99.3758 21.4276 99.7734C22.7983 100.171 24.2339 100.294 25.6523 100.136C27.0708 99.9785 28.4441 99.5425 29.6939 98.8532C30.9436 98.1639 32.0451 97.235 32.9354 96.1195L33.0399 95.9866C34.3511 94.2934 35.1327 92.2504 35.2864 90.1143C35.4401 87.9783 34.9591 85.8444 33.9038 83.9809C32.8485 82.1174 31.266 80.6073 29.3551 79.6403C27.4443 78.6734 25.2903 78.2928 23.1637 78.5463C21.0372 78.7998 19.033 79.6761 17.403 81.0651C15.773 82.4542 14.5898 84.294 14.0022 86.3533C13.4146 88.4127 13.4487 90.5998 14.1002 92.6399C14.7517 94.68 15.9917 96.482 17.6642 97.8195Z" fill="#DBDBDB"/>
<path d="M7.47386 127.013C8.58606 127.916 9.86583 128.589 11.2394 128.994C12.613 129.4 14.0533 129.53 15.4772 129.376C16.9012 129.222 18.2806 128.789 19.5362 128.099C20.7917 127.41 21.8984 126.48 22.7926 125.361L22.897 125.228C24.2083 123.535 24.9898 121.492 25.1435 119.356C25.2972 117.219 24.8162 115.086 23.761 113.222C22.7057 111.359 21.1232 109.848 19.2123 108.882C17.3014 107.915 15.1474 107.534 13.0209 107.788C10.8944 108.041 8.8902 108.917 7.26018 110.306C5.63016 111.695 4.447 113.535 3.85937 115.595C3.27173 117.654 3.30582 119.841 3.95736 121.881C4.6089 123.921 5.84883 125.723 7.52135 127.061L7.47386 127.013Z" fill="#DBDBDB"/>
<path d="M118.134 25.2145C118.942 25.2143 119.748 25.1251 120.537 24.9486H120.698C123.39 24.2981 125.732 22.6441 127.246 20.3246C128.759 18.0051 129.329 15.1953 128.84 12.4693C128.351 9.74326 126.839 7.30695 124.614 5.65822C122.389 4.0095 119.618 3.27284 116.868 3.5988C114.117 3.92476 111.595 5.28872 109.817 7.41194C108.039 9.53516 107.139 12.2573 107.3 15.0221C107.462 17.7869 108.673 20.3856 110.687 22.2871C112.701 24.1886 115.364 25.2493 118.134 25.2525V25.2145Z" fill="#DBDBDB"/>
<path d="M88.9492 35.4808C90.5781 35.4854 92.1873 35.1241 93.6579 34.4234C95.1284 33.7227 96.4228 32.7006 97.4453 31.4326C98.4678 30.1645 99.1924 28.6829 99.5655 27.0973C99.9386 25.5116 99.9507 23.8624 99.6008 22.2715C99.251 20.6805 98.5482 19.1885 97.5444 17.9056C96.5406 16.6227 95.2613 15.5817 93.8012 14.8596C92.3411 14.1374 90.7374 13.7525 89.1085 13.7334C87.4797 13.7142 85.8673 14.0612 84.3906 14.7487L84.1532 14.8722C81.9579 15.9548 80.1926 17.747 79.1432 19.9583C78.0938 22.1697 77.8218 24.6706 78.3714 27.0558C78.921 29.441 80.2599 31.5707 82.1712 33.0998C84.0824 34.629 86.454 35.4679 88.9017 35.4808H88.9492Z" fill="#DBDBDB"/>
<path d="M62.7851 52.0058C65.2465 52.0071 67.6349 51.1696 69.5565 49.6315L69.6799 49.5365C71.66 47.9111 73.0026 45.6388 73.4711 43.1202C73.9396 40.6017 73.5038 37.9986 72.2407 35.7699C70.9775 33.5412 68.9681 31.83 66.5666 30.938C64.1651 30.046 61.5259 30.0305 59.1141 30.8943C56.7023 31.758 54.6729 33.4455 53.3837 35.6592C52.0944 37.8729 51.6282 40.4707 52.067 42.9946C52.5059 45.5185 53.8218 47.8064 55.7826 49.455C57.7434 51.1035 60.2233 52.0069 62.7851 52.0058Z" fill="#DBDBDB"/>
<path d="M273.856 122.208C274.67 124.206 276.06 125.917 277.849 127.123C279.639 128.328 281.746 128.975 283.904 128.979C284.7 128.979 285.493 128.89 286.269 128.713C287.662 128.404 288.981 127.824 290.149 127.005C291.318 126.186 292.314 125.145 293.081 123.941C293.847 122.737 294.369 121.394 294.616 119.989C294.863 118.583 294.831 117.143 294.522 115.75C294.517 115.725 294.517 115.699 294.522 115.674C293.893 112.917 292.213 110.514 289.84 108.977C287.467 107.44 284.588 106.889 281.815 107.442C279.042 107.995 276.594 109.608 274.993 111.939C273.391 114.269 272.762 117.132 273.239 119.919C273.239 120.099 273.286 120.28 273.324 120.47C273.457 121.062 273.635 121.643 273.856 122.208Z" fill="#DBDBDB"/>
<path d="M149.17 276.544C146.289 276.544 143.525 277.689 141.488 279.726C139.45 281.764 138.306 284.527 138.306 287.409C138.306 290.29 139.45 293.053 141.488 295.091C143.525 297.129 146.289 298.273 149.17 298.273H149.218C152.099 298.267 154.86 297.116 156.893 295.074C158.926 293.032 160.065 290.266 160.058 287.385C160.052 284.503 158.901 281.742 156.859 279.709C154.818 277.676 152.052 276.538 149.17 276.544Z" fill="#ED1C24"/>
<path d="M118.419 273.135C116.966 273.092 115.519 273.341 114.163 273.867C112.808 274.394 111.573 275.187 110.529 276.199C109.486 277.212 108.657 278.424 108.091 279.763C107.525 281.102 107.233 282.541 107.233 283.994C107.233 285.448 107.525 286.887 108.091 288.226C108.657 289.565 109.486 290.777 110.529 291.79C111.573 292.802 112.808 293.595 114.163 294.122C115.519 294.648 116.966 294.897 118.419 294.854C119.872 294.897 121.319 294.648 122.674 294.122C124.029 293.595 125.265 292.802 126.308 291.79C127.351 290.777 128.18 289.565 128.746 288.226C129.313 286.887 129.604 285.448 129.604 283.994C129.604 282.541 129.313 281.102 128.746 279.763C128.18 278.424 127.351 277.212 126.308 276.199C125.265 275.187 124.029 274.394 122.674 273.867C121.319 273.341 119.872 273.092 118.419 273.135Z" fill="#ED1C24"/>
<path d="M177.538 273.372C176.101 273.637 174.732 274.19 173.513 274.996C172.294 275.803 171.25 276.847 170.445 278.066C169.639 279.286 169.087 280.655 168.823 282.093C168.559 283.53 168.588 285.006 168.907 286.432C169.227 287.859 169.831 289.206 170.683 290.393C171.536 291.58 172.619 292.583 173.868 293.342C175.117 294.101 176.507 294.6 177.953 294.809C179.4 295.018 180.874 294.934 182.287 294.56H182.344C185.093 293.863 187.462 292.118 188.942 289.699C190.423 287.279 190.898 284.376 190.267 281.611C189.635 278.845 187.948 276.436 185.564 274.898C183.18 273.361 180.289 272.816 177.51 273.382L177.538 273.372Z" fill="#ED1C24"/>
<path d="M93.9638 264.017C92.6786 263.341 91.2708 262.93 89.8237 262.807C88.3767 262.684 86.9197 262.853 85.5389 263.303C84.1581 263.753 82.8815 264.475 81.7847 265.427C80.6878 266.379 79.7929 267.541 79.1529 268.844C78.5128 270.148 78.1406 271.567 78.0582 273.017C77.9759 274.466 78.185 275.918 78.6733 277.286C79.1617 278.654 79.9192 279.909 80.9013 280.979C81.8833 282.049 83.0699 282.911 84.3908 283.515L84.4953 283.572C85.7792 284.195 87.1734 284.56 88.5983 284.645C90.0232 284.73 91.4508 284.533 92.7996 284.066C94.1484 283.599 95.3921 282.871 96.4596 281.923C97.527 280.976 98.3974 279.827 99.021 278.543C99.6446 277.259 100.009 275.865 100.094 274.44C100.179 273.015 99.982 271.588 99.515 270.239C99.0481 268.89 98.32 267.646 97.3724 266.579C96.4248 265.511 95.2763 264.641 93.9923 264.017H93.9638Z" fill="#ED1C24"/>
<path d="M204.499 263.922C202.268 264.979 200.463 266.763 199.381 268.983C198.3 271.202 198.006 273.723 198.549 276.132C199.092 278.54 200.439 280.692 202.368 282.232C204.297 283.773 206.693 284.61 209.162 284.607C210.741 284.608 212.301 284.261 213.73 283.591L213.911 283.505C216.467 282.233 218.419 280.005 219.345 277.304C220.272 274.604 220.097 271.647 218.861 269.073C217.624 266.5 215.424 264.517 212.736 263.553C210.049 262.589 207.09 262.722 204.499 263.922Z" fill="#ED1C24"/>
</svg>
