<svg width="145" height="64" viewBox="0 0 145 64" fill="none" xmlns="http://www.w3.org/2000/svg">
<path d="M26.1384 58.833C25.8666 58.6975 25.5711 58.6174 25.2687 58.5973C24.9662 58.5772 24.6629 58.6175 24.3759 58.716C24.0889 58.8144 23.8239 58.969 23.596 59.171C23.3681 59.373 23.1818 59.6183 23.0477 59.8931C22.9136 60.1678 22.8344 60.4666 22.8145 60.7723C22.7947 61.078 22.8346 61.3847 22.9319 61.6748C23.0293 61.9649 23.1822 62.2328 23.382 62.4632C23.5818 62.6935 23.8245 62.8819 24.0963 63.0174L24.1188 63.0298C24.3914 63.1639 24.6874 63.2423 24.99 63.2607C25.2926 63.2791 25.5958 63.2371 25.8823 63.137C26.1689 63.037 26.4331 62.8808 26.6599 62.6775C26.8867 62.4743 27.0717 62.2278 27.2043 61.9522C27.337 61.6767 27.4146 61.3774 27.4328 61.0715C27.451 60.7656 27.4094 60.4591 27.3104 60.1695C27.2114 59.8798 27.057 59.6127 26.8559 59.3834C26.6548 59.1541 26.411 58.9671 26.1384 58.833Z" fill="#ED1C24"/>
<path d="M3.7492 20.9795C3.98571 21.1706 4.25715 21.3128 4.54802 21.3979C4.83889 21.483 5.1435 21.5093 5.44444 21.4754C5.74538 21.4415 6.03677 21.3479 6.30195 21.2002C6.56713 21.0524 6.80091 20.8532 6.98995 20.6141C6.99853 20.6054 7.00607 20.5957 7.01241 20.5852C7.28991 20.2217 7.45503 19.7835 7.48707 19.3256C7.5191 18.8676 7.41662 18.4103 7.19247 18.011C6.96833 17.6117 6.63252 17.2882 6.22717 17.0811C5.82183 16.874 5.36501 16.7926 4.91404 16.847C4.46308 16.9014 4.03807 17.0893 3.69233 17.387C3.34659 17.6847 3.09554 18.079 2.97068 18.5204C2.84582 18.9618 2.8527 19.4307 2.99048 19.8682C3.12826 20.3057 3.39078 20.6923 3.74511 20.9795H3.7492Z" fill="#DBDBDB"/>
<path d="M1.58672 27.249C1.823 27.4405 2.09431 27.5831 2.38515 27.6685C2.67598 27.7539 2.98062 27.7805 3.28163 27.7467C3.58264 27.713 3.87411 27.6196 4.13937 27.4718C4.40462 27.3241 4.63845 27.1249 4.82747 26.8857C4.83562 26.8759 4.84312 26.8655 4.84994 26.8547C5.12743 26.4913 5.29256 26.0531 5.32459 25.5951C5.35663 25.1371 5.25414 24.6798 5.03 24.2805C4.80586 23.8812 4.47004 23.5577 4.0647 23.3506C3.65935 23.1435 3.20253 23.0621 2.75157 23.1165C2.30061 23.171 1.87559 23.3588 1.52985 23.6565C1.18412 23.9542 0.933066 24.3485 0.808203 24.79C0.68334 25.2314 0.690229 25.7002 0.828006 26.1377C0.965782 26.5752 1.22831 26.9618 1.58264 27.249H1.58672Z" fill="#DBDBDB"/>
<path d="M48.1926 30.5518C48.3621 34.4863 47.0715 38.2083 44.6517 40.7639C42.5381 42.9955 39.7507 44.1742 36.5937 44.1742C36.4528 44.1742 36.2915 44.1742 36.1199 44.1618C35.7646 44.1473 35.4113 44.1205 35.0601 44.0751C33.4685 43.9025 31.8927 43.6043 30.347 43.1833C28.7513 42.814 27.3266 41.9086 26.3055 40.6151C25.2844 39.3216 24.7274 37.7163 24.7252 36.0614C24.7252 32.8638 29.0953 25.1804 30.6962 22.4741L30.7105 22.3461C29.0033 21.6141 27.1348 21.352 25.295 21.5864C23.7096 21.804 22.1961 22.3913 20.8739 23.3019C19.9445 23.9695 19.1437 24.8035 18.5113 25.7625C16.5223 28.762 15.9607 32.9876 17.0042 37.0915C17.0092 37.1071 17.0133 37.1229 17.0165 37.139C18.7543 43.8707 23.9595 49.3577 30.4941 51.4633L30.6615 51.5149L31.1455 51.6615C31.3803 51.7275 31.6131 51.7895 31.85 51.8473C34.6285 52.5204 37.5165 52.5914 40.324 52.0553C43.1316 51.5193 45.7951 50.3885 48.1393 48.7372C50.4835 47.086 52.4553 44.9517 53.9251 42.4749C55.3949 39.998 56.3293 37.2346 56.6668 34.3666C57.0043 31.4985 56.7374 28.5906 55.8835 25.8343C55.0296 23.078 53.6082 20.5356 51.7126 18.3745C49.8171 16.2133 47.4904 14.4823 44.8856 13.2954C42.2809 12.1084 39.457 11.4924 36.5998 11.4878C36.1914 11.4878 35.783 11.5002 35.3623 11.527C37.0091 12.2417 38.5631 13.1575 39.9896 14.254C44.7783 17.9264 47.9251 24.1689 48.1926 30.5518Z" fill="white"/>
<path d="M20.5738 12.4518C16.4839 13.7662 12.9133 16.361 10.3779 19.8613C7.84252 23.3616 6.47371 27.5862 6.46924 31.9245V31.9534C6.46924 31.9864 6.46924 32.0071 6.46924 32.0298C6.46924 32.3498 6.46924 32.6346 6.48966 32.9009C6.48966 32.9897 6.49987 33.0764 6.506 33.1631L6.51621 33.3241C6.52846 33.5058 6.54071 33.6874 6.55909 33.8691C6.57747 34.0508 6.59993 34.2551 6.62239 34.4471L6.63465 34.5503C6.63465 34.5971 6.64077 34.6446 6.65302 34.6928V34.732C7.33119 39.6244 9.73193 44.1054 13.4147 47.3528C17.0974 50.6001 21.8151 52.396 26.702 52.4108C27.1199 52.4108 27.5385 52.3977 27.9578 52.3716C24.2552 50.7627 21.0599 48.1582 18.7196 44.8414C16.3793 41.5245 14.9836 37.6224 14.6845 33.5595C14.6778 33.4908 14.6778 33.4217 14.6845 33.353C14.662 33.1466 14.6436 32.9154 14.6293 32.6697V32.6243V32.5252C14.6293 32.3539 14.6171 32.1805 14.6171 32.005V31.9452C14.6171 31.7263 14.6171 31.4951 14.6395 31.2392V31.1215C14.8315 28.3198 15.9715 25.6704 17.8681 23.6182C19.7646 21.5661 22.302 20.2363 25.054 19.8524C27.4758 19.5379 29.9354 19.9567 32.1216 21.0559C32.2475 21.1193 32.3561 21.2129 32.4381 21.3284C32.5404 21.3985 32.6273 21.4891 32.6934 21.5947C33.3571 22.6846 39.181 32.356 39.181 36.0449C39.1805 37.323 38.8484 38.5786 38.2177 39.6863C37.587 40.794 36.6799 41.7151 35.587 42.3576C35.9219 42.3906 36.2588 42.4092 36.608 42.4092C39.132 42.4092 41.5498 41.3027 43.4183 39.2941C45.2117 37.3596 46.2762 34.8501 46.4263 32.2032C46.8592 22.9138 40.4287 14.2437 31.4702 12.0637C29.9251 11.6843 28.341 11.491 26.751 11.4878H26.6019C26.2874 11.4878 26.024 11.4878 25.7728 11.5084L25.4849 11.527H25.3338C25.1602 11.5394 24.9866 11.5518 24.8131 11.5683C24.6395 11.5848 24.4251 11.6096 24.2311 11.6344L24.0902 11.6488L23.9554 11.6653H23.9186L23.8349 11.6777C23.6307 11.7087 23.4265 11.7438 23.206 11.7809L23.1304 11.7954L22.8323 11.849C22.6444 11.8862 22.4586 11.9275 22.2727 11.9688C22.0869 12.0101 21.9624 12.039 21.8072 12.0782L21.3987 12.1876C21.1945 12.2454 20.976 12.3032 20.7698 12.3672L20.5738 12.4518Z" fill="#E5E5E5"/>
<path d="M31.9563 41.6106C33.4125 41.6057 34.8077 41.0186 35.8373 39.9774C36.8669 38.9363 37.4471 37.5256 37.4514 36.0535C37.4514 33.6713 33.9799 27.2161 31.9563 23.7563C29.9387 27.2161 26.4611 33.6651 26.4611 36.0535C26.4654 37.5256 27.0456 38.9363 28.0752 39.9774C29.1048 41.0186 30.5 41.6057 31.9563 41.6106Z" fill="#ED1C24"/>
<path d="M18.8809 7.61311C19.2264 7.61363 19.5675 7.53575 19.8791 7.38522C20.1908 7.23469 20.4651 7.01534 20.6817 6.74337C20.8983 6.4714 21.0518 6.15373 21.1308 5.8138C21.2098 5.47387 21.2122 5.12036 21.138 4.77933C21.0638 4.4383 20.9148 4.11847 20.7021 3.84341C20.4893 3.56836 20.2181 3.34511 19.9086 3.19012C19.5991 3.03514 19.2591 2.95238 18.9137 2.94794C18.5683 2.94351 18.2263 3.01752 17.913 3.1645L17.862 3.18928C17.3935 3.42114 17.0166 3.80677 16.7929 4.28315C16.5692 4.75954 16.512 5.29852 16.6305 5.81206C16.749 6.32559 17.0363 6.78331 17.4454 7.11044C17.8546 7.43757 18.3614 7.61478 18.883 7.61311H18.8809Z" fill="#DBDBDB"/>
<path d="M4.61097 32.0259C4.61097 31.4078 4.36807 30.815 3.93571 30.3779C3.50335 29.9409 2.91694 29.6953 2.30549 29.6953C1.69403 29.6953 1.10762 29.9409 0.675261 30.3779C0.242899 30.815 0 31.4078 0 32.0259H0C0 32.644 0.242899 33.2368 0.675261 33.6739C1.10762 34.111 1.69403 34.3565 2.30549 34.3565C2.91694 34.3565 3.50335 34.111 3.93571 33.6739C4.36807 33.2368 4.61097 32.644 4.61097 32.0259Z" fill="#DBDBDB"/>
<path d="M25.0745 5.41057C25.2462 5.41062 25.4175 5.39123 25.585 5.35277H25.6197C26.1901 5.2124 26.686 4.85714 27.0061 4.35956C27.3261 3.86198 27.4461 3.25965 27.3416 2.67564C27.237 2.09162 26.9158 1.57 26.4436 1.21735C25.9714 0.864701 25.3838 0.707645 24.8008 0.778271C24.2179 0.848897 23.6836 1.14187 23.3072 1.59734C22.9308 2.05281 22.7406 2.63638 22.7756 3.22883C22.8105 3.82129 23.0679 4.37789 23.4952 4.78493C23.9225 5.19196 24.4874 5.4187 25.0745 5.41882V5.41057Z" fill="#DBDBDB"/>
<path d="M7.24319 15.3521C7.4797 15.5433 7.75115 15.6855 8.04202 15.7706C8.33289 15.8557 8.6375 15.882 8.93844 15.8481C9.23938 15.8141 9.53076 15.7206 9.79594 15.5728C10.0611 15.425 10.2949 15.2259 10.4839 14.9868L10.5084 14.9579C10.7866 14.5942 10.9523 14.1556 10.9847 13.697C11.0171 13.2385 10.9147 12.7805 10.6905 12.3806C10.4662 11.9807 10.1301 11.6567 9.72425 11.4492C9.31843 11.2418 8.86103 11.1602 8.4095 11.2147C7.95796 11.2692 7.53241 11.4573 7.1863 11.7555C6.84019 12.0537 6.58895 12.4486 6.46412 12.8906C6.3393 13.3327 6.34646 13.8021 6.4847 14.2401C6.62295 14.678 6.88611 15.0649 7.24115 15.3521H7.24319Z" fill="#DBDBDB"/>
<path d="M13.3264 11.1598C13.8466 11.1583 14.3508 10.9777 14.7559 10.6478L14.7804 10.6292C15.1999 10.2805 15.4841 9.79327 15.5829 9.25342C15.6818 8.71357 15.589 8.15577 15.3208 7.67834C15.0526 7.20092 14.6263 6.83453 14.1171 6.64376C13.6078 6.45299 13.0483 6.45008 12.5371 6.63556C12.0259 6.82104 11.596 7.18299 11.323 7.65761C11.0499 8.13223 10.9515 8.68904 11.0448 9.22988C11.1382 9.77073 11.4175 10.2609 11.8334 10.6139C12.2493 10.967 12.7752 11.1603 13.3183 11.1598H13.3264Z" fill="#DBDBDB"/>
<path d="M59.1075 42.7765C58.5562 42.5075 57.9217 42.4708 57.3436 42.6746C56.7655 42.8784 56.2912 43.3061 56.025 43.8634C55.7588 44.4208 55.7226 45.0622 55.9242 45.6466C56.1258 46.2309 56.5488 46.7104 57.1002 46.9795C57.4118 47.1333 57.754 47.2131 58.1008 47.2128C58.535 47.2131 58.9605 47.0895 59.3283 46.8561C59.696 46.6228 59.9911 46.2891 60.1796 45.8937C60.3121 45.6179 60.3894 45.3184 60.4072 45.0124C60.425 44.7064 60.3829 44.3998 60.2833 44.1103C60.1837 43.8207 60.0286 43.5539 59.8268 43.325C59.6251 43.0961 59.3806 42.9098 59.1075 42.7765Z" fill="#DBDBDB"/>
<path d="M48.5133 53.3789C48.0358 53.7652 47.7298 54.3273 47.6624 54.9417C47.595 55.5561 47.7718 56.1724 48.1539 56.655C48.5359 57.1376 49.092 57.447 49.6998 57.5152C50.3076 57.5833 50.9172 57.4046 51.3946 57.0183C51.6307 56.8267 51.8272 56.5899 51.9728 56.3215C52.1184 56.053 52.2103 55.7583 52.2432 55.454C52.2761 55.1496 52.2494 54.8418 52.1646 54.5479C52.0797 54.254 51.9385 53.9799 51.7489 53.7412C51.5593 53.5025 51.3251 53.3039 51.0596 53.1567C50.794 53.0096 50.5024 52.9167 50.2014 52.8834C49.5935 52.8163 48.984 52.996 48.5071 53.3831L48.5133 53.3789Z" fill="#DBDBDB"/>
<path d="M14.807 53.3853C14.5705 53.1941 14.299 53.0518 14.0081 52.9666C13.7172 52.8814 13.4125 52.855 13.1115 52.8888C12.8105 52.9226 12.519 53.0161 12.2537 53.1638C11.9884 53.3115 11.7544 53.5106 11.5652 53.7497C11.376 53.9888 11.2353 54.2632 11.151 54.5573C11.0667 54.8514 11.0406 55.1594 11.0741 55.4637C11.1075 55.768 11.2 56.0627 11.3461 56.3309C11.4922 56.5991 11.6891 56.8355 11.9257 57.0268C12.3307 57.3565 12.8351 57.5364 13.3551 57.5367C13.8334 57.5366 14.2999 57.3863 14.69 57.1065C15.0801 56.8268 15.3746 56.4314 15.5327 55.975C15.6908 55.5187 15.7047 55.024 15.5725 54.5593C15.4403 54.0946 15.1685 53.6829 14.7948 53.3812L14.807 53.3853Z" fill="#DBDBDB"/>
<path d="M7.29833 48.6723C6.81559 49.0519 6.50148 49.6096 6.42492 50.2229C6.34835 50.8363 6.51558 51.4554 6.88992 51.9443L6.91442 51.9732C7.19994 52.3304 7.58347 52.5943 8.01686 52.7319C8.45026 52.8695 8.91421 52.8746 9.35046 52.7465C9.78671 52.6185 10.1758 52.363 10.4689 52.0122C10.7621 51.6614 10.9461 51.2308 10.998 50.7746C11.0499 50.3184 10.9673 49.8569 10.7606 49.4479C10.554 49.039 10.2324 48.7009 9.83626 48.4761C9.44015 48.2513 8.98717 48.1498 8.53419 48.1843C8.08122 48.2189 7.64843 48.3879 7.29016 48.6703L7.29833 48.6723Z" fill="#DBDBDB"/>
<path d="M3.54905 40.9084C3.84468 40.8411 4.12428 40.7155 4.37186 40.5389C4.61944 40.3622 4.83014 40.138 4.99192 39.879C5.1537 39.6199 5.26338 39.3312 5.31469 39.0293C5.366 38.7274 5.35792 38.4182 5.29093 38.1195C5.28827 38.1049 5.28486 38.0904 5.28072 38.0761C5.17243 37.6292 4.93595 37.2247 4.60097 36.9132C4.26598 36.6017 3.84743 36.3973 3.39788 36.3255C2.94832 36.2537 2.4878 36.3178 2.07415 36.5097C1.6605 36.7016 1.31216 37.0127 1.07287 37.4041C0.833587 37.7955 0.71402 38.2496 0.729189 38.7094C0.744358 39.1693 0.893586 39.6143 1.15813 39.9887C1.42268 40.3631 1.79076 40.6501 2.21613 40.8137C2.64151 40.9774 3.10523 41.0103 3.54905 40.9084Z" fill="#DBDBDB"/>
<path d="M7.2922 43.881C7.16609 43.5964 6.98482 43.3403 6.75909 43.1277C6.53337 42.9152 6.26779 42.7505 5.97804 42.6436C5.68829 42.5366 5.38026 42.4894 5.07217 42.5048C4.76407 42.5202 4.46216 42.598 4.18429 42.7334C3.90642 42.8688 3.65822 43.0591 3.45438 43.2932C3.25054 43.5272 3.09519 43.8002 2.99752 44.096C2.89984 44.3918 2.86182 44.7044 2.88572 45.0153C2.90961 45.3262 2.99492 45.6291 3.13661 45.9061C3.41395 46.4444 3.88793 46.8523 4.45792 47.043C5.02791 47.2338 5.64901 47.1925 6.18935 46.9279C6.72969 46.6632 7.14671 46.1961 7.35187 45.6256C7.55702 45.0552 7.53415 44.4264 7.28812 43.8727L7.2922 43.881Z" fill="#DBDBDB"/>
<path d="M37.6372 5.33205C37.9372 5.41415 38.2504 5.43413 38.5581 5.39077C38.8659 5.34741 39.1618 5.24162 39.428 5.07975C39.6943 4.91787 39.9255 4.70326 40.1076 4.44879C40.2898 4.19433 40.4192 3.90527 40.4881 3.59898C40.5569 3.29269 40.5638 2.97549 40.5084 2.66643C40.4529 2.35737 40.3362 2.06284 40.1653 1.80052C39.9944 1.5382 39.7728 1.31352 39.5138 1.13996C39.2548 0.966399 38.9638 0.847549 38.6583 0.790549C38.0769 0.692526 37.4804 0.823343 36.9915 1.15612C36.5025 1.48889 36.1582 1.99834 36.0293 2.57978C35.9004 3.16122 35.9967 3.77048 36.2984 4.28237C36.6001 4.79425 37.0844 5.16987 37.6515 5.33205H37.6372Z" fill="#DBDBDB"/>
<path d="M60.784 36.3322C60.1869 36.1953 59.5605 36.3038 59.0425 36.6339C58.5246 36.9639 58.1575 37.4884 58.0221 38.092C57.8867 38.6956 57.9941 39.3289 58.3206 39.8525C58.647 40.3761 59.1659 40.7471 59.763 40.884C59.9298 40.9225 60.1004 40.9419 60.2715 40.9418C60.7942 40.9404 61.301 40.7598 61.7091 40.4294C62.1171 40.099 62.4022 39.6385 62.5177 39.1232C62.5854 38.8248 62.5943 38.5159 62.5437 38.2141C62.4932 37.9123 62.3843 37.6235 62.2233 37.3643C62.0623 37.1051 61.8523 36.8805 61.6053 36.7034C61.3583 36.5263 61.0793 36.4002 60.784 36.3322Z" fill="#DBDBDB"/>
<path d="M56.0056 20.0897C56.1941 20.4852 56.4892 20.8188 56.857 21.0521C57.2247 21.2855 57.6502 21.4091 58.0844 21.4088C58.4312 21.4089 58.7734 21.3291 59.0851 21.1755C59.6356 20.9064 60.0579 20.4274 60.2593 19.8437C60.4607 19.26 60.4247 18.6194 60.1592 18.0625L60.1469 18.0419C60.0174 17.7613 59.8338 17.5096 59.607 17.3015C59.3802 17.0934 59.1146 16.9331 58.8258 16.8299C58.5369 16.7268 58.2307 16.6828 57.9249 16.7006C57.619 16.7185 57.3198 16.7978 57.0447 16.9338C56.7695 17.0699 56.5239 17.26 56.3223 17.4931C56.1206 17.7262 55.9669 17.9976 55.8702 18.2914C55.7734 18.5852 55.7356 18.8956 55.7589 19.2043C55.7821 19.5131 55.866 19.8141 56.0056 20.0897Z" fill="#DBDBDB"/>
<path d="M59.7589 23.0645C59.2041 23.1894 58.7143 23.5169 58.3836 23.9842C58.0529 24.4515 57.9044 25.0258 57.9666 25.5969C58.0289 26.1681 58.2975 26.6959 58.7209 27.0792C59.1443 27.4625 59.6928 27.6744 60.2612 27.6742C60.4302 27.6738 60.5986 27.6551 60.7636 27.6184C61.0592 27.5522 61.339 27.4278 61.5871 27.2521C61.8351 27.0765 62.0464 26.8532 62.2089 26.5949C62.3715 26.3367 62.482 26.0485 62.5343 25.747C62.5866 25.4455 62.5796 25.1365 62.5136 24.8378C62.5148 24.8323 62.5148 24.8267 62.5136 24.8213C62.4473 24.5228 62.3234 24.2406 62.1489 23.9906C61.9744 23.7407 61.7529 23.528 61.497 23.3648C61.2411 23.2016 60.9558 23.0911 60.6575 23.0396C60.3593 22.988 60.0539 22.9965 59.7589 23.0645Z" fill="#DBDBDB"/>
<path d="M63.3038 31.941C63.3038 31.3228 63.0609 30.73 62.6286 30.293C62.1962 29.8559 61.6098 29.6104 60.9984 29.6104C60.3869 29.6104 59.8005 29.8559 59.3681 30.293C58.9358 30.73 58.6929 31.3228 58.6929 31.941V32.0091C58.6929 32.3151 58.7525 32.6182 58.8684 32.901C58.9842 33.1837 59.154 33.4407 59.3681 33.6571C59.5822 33.8735 59.8364 34.0452 60.1161 34.1623C60.3958 34.2794 60.6956 34.3397 60.9984 34.3397C61.3011 34.3397 61.6009 34.2794 61.8806 34.1623C62.1603 34.0452 62.4145 33.8735 62.6286 33.6571C62.8427 33.4407 63.0125 33.1837 63.1283 32.901C63.2442 32.6182 63.3038 32.3151 63.3038 32.0091V31.941Z" fill="#DBDBDB"/>
<path d="M31.6152 4.66123C32.2266 4.66123 32.813 4.41568 33.2454 3.97861C33.6778 3.54153 33.9207 2.94873 33.9207 2.33061C33.9207 1.7125 33.6778 1.1197 33.2454 0.682621C32.813 0.245546 32.2266 0 31.6152 0V0C31.0037 0 30.4173 0.245546 29.985 0.682621C29.5526 1.1197 29.3097 1.7125 29.3097 2.33061C29.3097 2.94873 29.5526 3.54153 29.985 3.97861C30.4173 4.41568 31.0037 4.66123 31.6152 4.66123Z" fill="#DBDBDB"/>
<path d="M56.0444 48.6789C55.688 48.3898 55.2549 48.214 54.7997 48.1739C54.3445 48.1337 53.8878 48.2309 53.4873 48.4532C53.0868 48.6755 52.7605 49.0129 52.5498 49.4227C52.339 49.8325 52.2532 50.2963 52.3032 50.7554C52.3532 51.2145 52.5368 51.6483 52.8307 52.0019C53.1247 52.3554 53.5158 52.613 53.9545 52.7418C54.3933 52.8707 54.86 52.8651 55.2956 52.7258C55.7312 52.5864 56.1162 52.3196 56.4017 51.9591C56.5919 51.7202 56.7336 51.4458 56.8186 51.1514C56.9036 50.8571 56.9303 50.5487 56.8971 50.2439C56.8639 49.9391 56.7715 49.644 56.6251 49.3754C56.4788 49.1068 56.2814 48.8701 56.0444 48.6789Z" fill="#DBDBDB"/>
<path d="M52.7873 14.9375C53.1762 15.4026 53.7316 15.693 54.3319 15.7449C54.9322 15.7969 55.5284 15.6062 55.9899 15.2147C56.4514 14.8231 56.7406 14.2626 56.7941 13.656C56.8476 13.0493 56.661 12.446 56.2753 11.9781C55.8896 11.5102 55.3362 11.2159 54.7363 11.1597C54.1364 11.1035 53.5389 11.29 53.0747 11.6782C52.6105 12.0665 52.3174 12.6249 52.2597 13.2312C52.202 13.8375 52.3844 14.4421 52.7668 14.9127L52.7873 14.9375Z" fill="#DBDBDB"/>
<path d="M48.4724 10.5879L48.501 10.6126C48.9882 11.0282 49.6184 11.2316 50.2537 11.1784C50.8889 11.1252 51.4775 10.8198 51.8904 10.3289C52.3034 9.83797 52.5071 9.20167 52.457 8.55927C52.4068 7.91688 52.1069 7.32074 51.6229 6.90137C51.139 6.48201 50.5103 6.27359 49.8747 6.32176C49.239 6.36993 48.6481 6.67075 48.2314 7.15837C47.8147 7.64598 47.606 8.28066 47.6512 8.92343C47.6964 9.5662 47.9916 10.1647 48.4724 10.5879Z" fill="#DBDBDB"/>
<path d="M43.3407 7.33868L43.3795 7.35726C43.9338 7.61633 44.567 7.64294 45.1407 7.43126C45.7143 7.21958 46.1817 6.78685 46.4406 6.22772C46.6994 5.66859 46.7287 5.02858 46.522 4.4477C46.3152 3.86681 45.8893 3.39234 45.3374 3.12807C44.7856 2.8638 44.1526 2.83124 43.577 3.03752C43.0014 3.2438 42.5301 3.67212 42.2661 4.2288C42.0021 4.78547 41.967 5.42517 42.1684 6.00798C42.3698 6.59078 42.7913 7.06923 43.3407 7.33868Z" fill="#DBDBDB"/>
<path d="M31.6622 59.3389C31.0507 59.3389 30.4643 59.5844 30.032 60.0215C29.5996 60.4586 29.3567 61.0514 29.3567 61.6695C29.3567 62.2876 29.5996 62.8804 30.032 63.3175C30.4643 63.7545 31.0507 64.0001 31.6622 64.0001C31.9649 64.0001 32.2647 63.9398 32.5444 63.8227C32.8242 63.7056 33.0783 63.5339 33.2924 63.3175C33.5065 63.1011 33.6763 62.8441 33.7922 62.5614C33.908 62.2786 33.9677 61.9755 33.9677 61.6695C33.9677 61.3634 33.908 61.0604 33.7922 60.7776C33.6763 60.4948 33.5065 60.2379 33.2924 60.0215C33.0783 59.8051 32.8242 59.6334 32.5444 59.5163C32.2647 59.3991 31.9649 59.3389 31.6622 59.3389Z" fill="#ED1C24"/>
<path d="M37.6842 58.6577C37.3787 58.7147 37.0877 58.8335 36.8287 59.0071C36.5697 59.1807 36.3481 59.4054 36.1772 59.6677C36.0063 59.93 35.8896 60.2245 35.8341 60.5336C35.7787 60.8426 35.7856 61.1598 35.8544 61.4661C35.9233 61.7724 36.0527 62.0615 36.2349 62.316C36.417 62.5704 36.6482 62.785 36.9145 62.9469C37.1807 63.1088 37.4766 63.2146 37.7844 63.2579C38.0921 63.3013 38.4053 63.2813 38.7053 63.1992C39.0108 63.1422 39.3018 63.0234 39.5608 62.8498C39.8198 62.6762 40.0414 62.4516 40.2123 62.1892C40.3832 61.9269 40.4999 61.6324 40.5553 61.3233C40.6108 61.0143 40.6039 60.6971 40.535 60.3908C40.4662 60.0845 40.3368 59.7954 40.1546 59.541C39.9725 59.2865 39.7413 59.0719 39.475 58.91C39.2088 58.7481 38.9129 58.6423 38.6051 58.599C38.2974 58.5556 37.9841 58.5756 37.6842 58.6577Z" fill="#ED1C24"/>
<path d="M19.9448 56.6509C19.673 56.5154 19.3775 56.4353 19.075 56.4152C18.7726 56.3951 18.4693 56.4354 18.1823 56.5339C17.8953 56.6323 17.6303 56.7869 17.4024 56.9889C17.1745 57.1908 16.9882 57.4362 16.8541 57.7109C16.72 57.9857 16.6408 58.2844 16.6209 58.5901C16.6011 58.8959 16.641 59.2025 16.7383 59.4926C16.8357 59.7828 16.9886 60.0507 17.1884 60.281C17.3882 60.5114 17.6309 60.6997 17.9027 60.8353L17.9252 60.8456C18.2368 60.9994 18.579 61.0792 18.9258 61.0789C19.4479 61.0797 19.9548 60.9013 20.3636 60.5729C20.7723 60.2445 21.0587 59.7856 21.1759 59.2713C21.2931 58.757 21.2341 58.2177 21.0086 57.7416C20.7831 57.2656 20.4044 56.8811 19.9346 56.6509H19.9448Z" fill="#ED1C24"/>
<path d="M43.406 56.6303C43.1318 56.7603 42.8856 56.9436 42.6815 57.1698C42.4774 57.396 42.3193 57.6606 42.2164 57.9485C42.1134 58.2364 42.0675 58.542 42.0814 58.8478C42.0953 59.1537 42.1686 59.4537 42.2972 59.7309C42.5569 60.2907 43.0259 60.7233 43.6011 60.9336C43.8859 61.0376 44.1882 61.084 44.4908 61.07C44.7933 61.056 45.0901 60.9818 45.3643 60.8519L45.4052 60.8312C45.9563 60.5632 46.3794 60.0849 46.5816 59.5015C46.7838 58.9181 46.7485 58.2774 46.4834 57.7203C46.2183 57.1632 45.7451 56.7354 45.168 56.531C44.5909 56.3266 43.9571 56.3623 43.406 56.6303Z" fill="#ED1C24"/>
<path d="M77.002 23.3329L71.4006 14.3779H69.9487V29.0573H72.0235V19.1816L76.2771 25.9113H77.729L81.9805 19.1816V29.0573H84.0553V14.3779H82.6034L77.002 23.3329Z" fill="white"/>
<path d="M89.8629 22.1377H97.9515V29.0573H100.026V14.3779H97.9515V20.1456H89.8629V14.3779H87.7882V29.0573H89.8629V22.1377Z" fill="white"/>
<path d="M105.834 19.1816L110.087 25.9113H111.539L115.791 19.1816V29.0573H117.866V14.3779H116.414L110.812 23.3329L105.211 14.3779H103.759V29.0573H105.834V19.1816Z" fill="white"/>
<path d="M130.124 15.344C129.418 14.7247 128.505 14.3779 127.096 14.3779H121.599V29.0573H123.673V22.5567H127.096C128.505 22.5567 129.418 22.1996 130.124 21.5927C130.573 21.2082 130.933 20.7296 131.181 20.1901C131.428 19.6505 131.556 19.063 131.556 18.4684C131.556 17.8737 131.428 17.2862 131.181 16.7467C130.933 16.2071 130.573 15.7285 130.124 15.344ZM128.899 19.9144C128.527 20.3128 127.986 20.5647 126.992 20.5647H123.673V16.37H126.992C127.986 16.37 128.527 16.6218 128.899 17.0203C129.273 17.4061 129.483 17.9249 129.483 18.4653C129.483 19.0056 129.273 19.5244 128.899 19.9103V19.9144Z" fill="white"/>
<path d="M137.984 14.3779H136.532L130.516 29.0573H132.675L134.188 25.2837H140.314L141.85 29.0573H144.006L137.984 14.3779ZM135.019 23.2916L137.265 17.8377L139.512 23.2916H135.019Z" fill="white"/>
<path d="M80.1141 44.775L71.4006 33.9951H69.9487V48.6745H72.0235V37.8967L80.7369 48.6745H82.1888V33.9951H80.1141V44.775Z" fill="white"/>
<path d="M87.9965 41.7549H92.7668V39.7628H87.9965V35.9872H94.2187V33.9951H85.9218V48.6745H94.427V46.6824H87.9965V41.7549Z" fill="white"/>
<path d="M105.648 34.9612C104.941 34.3419 104.029 33.9951 102.62 33.9951H97.1224V48.6745H99.1972V42.1739H102.62C104.029 42.1739 104.941 41.8168 105.648 41.2099C106.097 40.8254 106.457 40.3468 106.705 39.8072C106.952 39.2677 107.08 38.6802 107.08 38.0856C107.08 37.4909 106.952 36.9034 106.705 36.3639C106.457 35.8243 106.097 35.3457 105.648 34.9612ZM104.423 39.5316C104.051 39.93 103.512 40.1819 102.516 40.1819H99.1972V35.9872H102.511C103.508 35.9872 104.047 36.239 104.419 36.6374C104.793 37.0233 105.002 37.5421 105.002 38.0825C105.002 38.6228 104.793 39.1416 104.419 39.5275L104.423 39.5316Z" fill="white"/>
<path d="M112.056 33.9951L106.042 48.6745H108.199L109.714 44.9009H115.84L117.376 48.6745H119.532L113.518 33.9951H112.056ZM110.543 42.9088L112.789 37.4549L115.035 42.9088H110.543Z" fill="white"/>
<path d="M123.569 33.9951H121.495V48.6745H130V46.6824H123.569V33.9951Z" fill="white"/>
</svg>
