<svg width="95" height="42" viewBox="0 0 95 42" fill="none" xmlns="http://www.w3.org/2000/svg">
<path d="M24.3134 7.48932C24.0476 7.48932 23.77 7.49862 23.4976 7.51456L23.568 7.54644C23.6491 7.58099 23.7288 7.61686 23.8085 7.65406L23.9414 7.71651L24.2071 7.84937L24.3054 7.89852C24.4276 7.95964 24.5485 8.02208 24.6681 8.08718L24.7425 8.12837L25.0268 8.28913L25.1504 8.3622C25.2274 8.40738 25.3045 8.45166 25.3815 8.49506L25.5144 8.57744L25.735 8.72092L25.8678 8.80595L26.1003 8.96671L26.2093 9.04377C26.3222 9.12349 26.4325 9.20453 26.5427 9.28824C26.6942 9.40382 26.8417 9.5234 26.9892 9.64563L27.0981 9.7373C27.2217 9.84226 27.3426 9.95121 27.4608 10.0615L27.6349 10.2222C27.7518 10.3338 27.866 10.4481 27.9776 10.5637L28.068 10.6593C30.4188 13.1874 31.7988 16.4661 31.9634 19.9144C32.0764 22.4799 31.2221 24.9059 29.6277 26.572C28.234 28.0268 26.3979 28.796 24.3134 28.796C23.3373 28.7977 22.3695 28.6175 21.4595 28.2646C21.3904 28.2646 21.3267 28.2646 21.2523 28.2646C19.9898 28.2632 18.7795 27.7611 17.8868 26.8684C16.9941 25.9757 16.492 24.7653 16.4906 23.5029C16.4906 21.3771 19.4759 16.2262 20.4764 14.5508L20.4299 14.5309C20.3555 14.5003 20.2811 14.4698 20.2067 14.4419L20.1256 14.4113C20.0291 14.375 19.9321 14.3418 19.8347 14.3117H19.8267C19.731 14.2811 19.6354 14.2545 19.5384 14.2293L19.4534 14.2067C19.3763 14.1881 19.2979 14.1695 19.2208 14.1536C19.1956 14.1536 19.1704 14.1416 19.1451 14.1376C19.0455 14.1164 18.9458 14.0991 18.8449 14.0831L18.7851 14.0752C18.7027 14.0632 18.6203 14.0526 18.5366 14.0433L18.4463 14.034C18.3599 14.026 18.2749 14.0194 18.1885 14.0141H18.1367C18.034 14.0087 17.9317 14.0061 17.8298 14.0061H17.5946H17.4472H17.3502C17.297 14.0061 17.2439 14.0141 17.1908 14.0194H17.1057L16.8812 14.0459H16.8613H16.8227C15.7917 14.1908 14.8078 14.5713 13.9476 15.158C13.3347 15.5931 12.8069 16.1371 12.3905 16.7629C11.0898 18.7465 10.7192 21.506 11.4074 24.1805C11.4074 24.1924 11.4074 24.2057 11.418 24.2177C12.5632 28.602 15.9963 32.18 20.2997 33.5524L20.4113 33.5856C20.5162 33.6175 20.6225 33.6507 20.7301 33.6799C20.8829 33.7238 21.037 33.7636 21.1938 33.8022C23.0256 34.2416 24.9298 34.2881 26.7809 33.9386C28.632 33.589 30.388 32.8514 31.9335 31.7743C33.479 30.6972 34.7788 29.305 35.7475 27.6893C36.7161 26.0736 37.3316 24.271 37.5533 22.4003C37.7751 20.5296 37.5982 18.6332 37.0342 16.8358C36.4702 15.0384 35.532 13.3808 34.2812 11.9722C33.0304 10.5635 31.4955 9.43577 29.7774 8.66311C28.0594 7.89044 26.1972 7.4904 24.3134 7.48932V7.48932Z" fill="#F37C92"/>
<path d="M13.3165 30.2296C11.3023 27.8889 10.0969 24.961 9.87944 21.8807C9.87671 21.8336 9.87938 21.7863 9.88741 21.7398C9.87147 21.607 9.85951 21.4542 9.85021 21.2947V21.2031C9.85021 21.0888 9.84224 20.9759 9.84224 20.8616V20.8218C9.84224 20.6796 9.84224 20.5295 9.85818 20.3621V20.285C9.94972 18.9823 10.3599 17.7221 11.0526 16.6151C11.7454 15.5081 12.6995 14.5882 13.831 13.9364C14.9626 13.2845 16.2369 12.9207 17.5421 12.8767C18.8472 12.8328 20.1432 13.1102 21.316 13.6845C21.4113 13.7325 21.4917 13.8055 21.5485 13.8958C21.6281 13.9429 21.6951 14.0085 21.7438 14.0871C22.1809 14.7979 26.0206 21.1034 26.0206 23.5108C26.0206 24.3448 25.8017 25.1641 25.3858 25.8869C24.9698 26.6097 24.3714 27.2106 23.6503 27.6295C23.8709 27.6508 24.0941 27.664 24.3146 27.664C27.7942 27.664 30.3823 25.0294 30.6109 21.2575V21.1619C30.6109 21.0543 30.6109 20.9467 30.6109 20.8377C30.6109 20.7288 30.6109 20.6225 30.6109 20.5149V20.4192C30.6029 20.2744 30.5989 20.1309 30.5962 19.9887C30.6015 19.6924 30.573 19.3964 30.5112 19.1065C30.5015 19.0687 30.4957 19.03 30.4939 18.991C29.9439 15.0304 28.428 12.158 25.8598 10.2103C23.5483 8.44926 20.7223 7.49652 17.8165 7.4986H17.7261C17.5229 7.4986 17.3435 7.4986 17.1801 7.51188C17.115 7.51188 17.0472 7.51188 16.9901 7.52384H16.9117C16.7788 7.53181 16.6646 7.53978 16.5463 7.55174C16.4281 7.5637 16.2912 7.57831 16.165 7.59425L16.0707 7.60488L15.9817 7.61418H15.9578L15.9033 7.62348C15.7704 7.64341 15.6256 7.66733 15.4888 7.69124L15.4396 7.69921L15.2417 7.73509C15.1181 7.759 14.9959 7.78557 14.8736 7.81347C14.7514 7.84137 14.6677 7.85865 14.5667 7.88389L14.301 7.9543C14.1562 7.99283 14.0193 8.03136 13.8825 8.07255L13.7496 8.11507C11.0536 8.97183 8.69966 10.6635 7.02794 12.9456C5.35622 15.2277 4.45325 17.9822 4.44946 20.8111C4.45004 20.8178 4.45004 20.8244 4.44946 20.8311C4.44946 20.851 4.44946 20.8669 4.44946 20.8816C4.44946 21.0875 4.44946 21.2735 4.46408 21.4475C4.46408 21.506 4.46408 21.5631 4.47471 21.6189V21.7026C4.48401 21.8355 4.49198 21.9577 4.50394 22.0799C4.51589 22.2022 4.53051 22.3311 4.54645 22.4559C4.54645 22.4878 4.54645 22.5197 4.55708 22.5516V22.5941C4.55708 22.6101 4.55708 22.626 4.56638 22.6419C5.01305 25.8362 6.59829 28.7617 9.0304 30.8801C11.4625 32.9985 14.5778 34.1674 17.8032 34.1715C18.0787 34.1715 18.3546 34.1627 18.6309 34.1449C16.5807 33.268 14.7616 31.9278 13.3165 30.2296V30.2296Z" fill="#65B6C1"/>
<path d="M21.2575 15.4888C19.9289 17.7474 17.6358 21.9537 17.6358 23.5069C17.6358 24.4674 18.0174 25.3886 18.6966 26.0678C19.3758 26.7471 20.297 27.1286 21.2575 27.1286C22.2181 27.1286 23.1393 26.7471 23.8185 26.0678C24.4977 25.3886 24.8793 24.4674 24.8793 23.5069C24.8793 21.9537 22.5861 17.7447 21.2575 15.4888Z" fill="#ED1C24"/>
<path d="M4.81083 31.7335C4.49283 31.9814 4.28622 32.3453 4.2364 32.7454C4.18657 33.1455 4.29761 33.549 4.54511 33.8673L4.56106 33.8859C4.74907 34.1191 5.00182 34.2916 5.28754 34.3816C5.57326 34.4716 5.87922 34.4752 6.16699 34.3919C6.45475 34.3086 6.71147 34.1421 6.90492 33.9134C7.09836 33.6846 7.21989 33.4038 7.25424 33.1062C7.28859 32.8086 7.23424 32.5075 7.098 32.2407C6.96175 31.9739 6.74971 31.7533 6.48849 31.6067C6.22728 31.46 5.92855 31.3938 5.62982 31.4164C5.3311 31.4389 5.04571 31.5493 4.8095 31.7335H4.81083Z" fill="#DBDBDB"/>
<path d="M4.80552 28.61C4.62689 28.253 4.31501 27.9807 3.93725 27.8517C3.55948 27.7228 3.14616 27.7476 2.78655 27.9209C2.42695 28.0942 2.14994 28.4019 2.01536 28.7777C1.88077 29.1535 1.89942 29.5672 2.06728 29.9293V29.9293C2.19114 30.1863 2.38504 30.403 2.62667 30.5546C2.8683 30.7062 3.14782 30.7865 3.43308 30.7863C3.69064 30.7864 3.94401 30.7211 4.1694 30.5964C4.39479 30.4718 4.5848 30.2919 4.72161 30.0737C4.85842 29.8554 4.93752 29.606 4.9515 29.3488C4.96548 29.0917 4.91388 28.8351 4.80153 28.6034L4.80552 28.61Z" fill="#DBDBDB"/>
<path d="M40.0612 23.6876C39.7678 23.6209 39.4612 23.6428 39.1802 23.7504C38.8992 23.858 38.6565 24.0465 38.4826 24.2921C38.3088 24.5377 38.2117 24.8293 38.2036 25.1301C38.1955 25.4308 38.2767 25.7272 38.4371 25.9818C38.5975 26.2364 38.8297 26.4377 39.1045 26.5603C39.3793 26.6829 39.6842 26.7212 39.9808 26.6705C40.2774 26.6197 40.5523 26.4822 40.7707 26.2752C40.989 26.0682 41.1412 25.8012 41.2078 25.5077V25.5077C41.2525 25.3129 41.2583 25.1112 41.2249 24.9141C41.1914 24.717 41.1193 24.5285 41.0128 24.3593C40.9063 24.1902 40.7673 24.0438 40.604 23.9285C40.4407 23.8132 40.2562 23.7313 40.0612 23.6876V23.6876Z" fill="#DBDBDB"/>
<path d="M9.75856 34.8093C9.60341 34.6788 9.42373 34.5807 9.23009 34.5207C9.03645 34.4607 8.83277 34.4401 8.63104 34.46C8.4293 34.4799 8.23359 34.54 8.05542 34.6367C7.87725 34.7334 7.72022 34.8647 7.59358 35.023C7.46693 35.1813 7.37323 35.3633 7.31798 35.5583C7.26274 35.7534 7.24707 35.9575 7.27189 36.1587C7.29672 36.3599 7.36154 36.5541 7.46254 36.7298C7.56354 36.9056 7.69867 37.0594 7.86 37.1821V37.1821C8.17569 37.4223 8.57279 37.5296 8.9665 37.481C9.36021 37.4325 9.71932 37.2319 9.96716 36.9221C10.215 36.6124 10.3319 36.218 10.2929 35.8232C10.254 35.4285 10.0622 35.0646 9.75856 34.8093Z" fill="#DBDBDB"/>
<path d="M31.974 34.8013C31.8181 34.9264 31.6884 35.081 31.5922 35.2562C31.4961 35.4314 31.4354 35.6239 31.4136 35.8226C31.3918 36.0213 31.4094 36.2223 31.4653 36.4142C31.5212 36.6061 31.6144 36.7851 31.7395 36.941C31.8646 37.0969 32.0192 37.2266 32.1944 37.3228C32.3696 37.4189 32.5621 37.4796 32.7608 37.5014C32.9595 37.5232 33.1605 37.5056 33.3524 37.4497C33.5443 37.3937 33.7233 37.3006 33.8792 37.1755V37.1755C34.0348 37.0505 34.1643 36.896 34.2603 36.721C34.3562 36.5459 34.4167 36.3537 34.4384 36.1552C34.46 35.9568 34.4424 35.756 34.3865 35.5644C34.3305 35.3728 34.2374 35.1941 34.1124 35.0384C33.9874 34.8828 33.8329 34.7533 33.6579 34.6574C33.4828 34.5614 33.2906 34.5009 33.0921 34.4792C32.8937 34.4576 32.6929 34.4752 32.5013 34.5312C32.3097 34.5871 32.131 34.6803 31.9753 34.8053L31.974 34.8013Z" fill="#DBDBDB"/>
<path d="M36.935 31.7375C36.7002 31.5494 36.415 31.4351 36.1153 31.409C35.8155 31.383 35.5148 31.4464 35.2512 31.5912C34.9875 31.7361 34.7727 31.9559 34.6339 32.2228C34.4951 32.4897 34.4386 32.7918 34.4715 33.0908C34.5043 33.3898 34.6251 33.6724 34.8186 33.9028C35.0121 34.1332 35.2695 34.301 35.5583 34.3851C35.8472 34.4693 36.1545 34.4658 36.4414 34.3753C36.7283 34.2848 36.9819 34.1112 37.1701 33.8766C37.2957 33.7209 37.3893 33.542 37.4454 33.35C37.5016 33.1581 37.5192 32.9569 37.4974 32.7581C37.4755 32.5593 37.4146 32.3668 37.3181 32.1917C37.2216 32.0165 37.0914 31.8622 36.935 31.7375V31.7375Z" fill="#DBDBDB"/>
<path d="M41.7272 20.8257V20.8191C41.7258 20.4643 41.6002 20.1211 41.3722 19.8493C41.1441 19.5774 40.8281 19.394 40.4789 19.3308C40.1297 19.2677 39.7694 19.3288 39.4606 19.5036C39.1518 19.6784 38.914 19.9558 38.7884 20.2877C38.7223 20.4612 38.688 20.6453 38.6874 20.8311V20.8749C38.6889 21.0565 38.7227 21.2365 38.7871 21.4063C38.912 21.7391 39.1498 22.0175 39.4589 22.193C39.7681 22.3685 40.129 22.4299 40.4788 22.3667C40.8286 22.3035 41.1451 22.1196 41.3732 21.847C41.6014 21.5744 41.7266 21.2304 41.7272 20.8749V20.8311V20.8257Z" fill="#DBDBDB"/>
<path d="M2.33965 26.6702C2.73262 26.5815 3.07427 26.3403 3.28952 25.9997C3.50476 25.6592 3.57599 25.2471 3.48756 24.8541C3.48756 24.8461 3.48756 24.8328 3.48091 24.8248C3.41337 24.5478 3.26928 24.2954 3.0651 24.0964C2.86091 23.8974 2.60488 23.7599 2.32623 23.6995C2.04758 23.6391 1.75757 23.6583 1.48931 23.7549C1.22106 23.8515 0.985383 24.0216 0.809211 24.2457C0.633039 24.4699 0.523474 24.7391 0.493033 25.0226C0.462592 25.3061 0.512502 25.5924 0.637063 25.8489C0.761623 26.1054 0.95581 26.3216 1.19744 26.473C1.43907 26.6243 1.7184 26.7047 2.00351 26.7048C2.11652 26.7063 2.22932 26.6947 2.33965 26.6702Z" fill="#DBDBDB"/>
<path d="M38.9558 27.8899C38.5938 27.7244 38.1814 27.7073 37.807 27.8423C37.4326 27.9773 37.126 28.2537 36.953 28.6122C36.78 28.9707 36.7544 29.3827 36.8817 29.7598C37.009 30.1369 37.279 30.4491 37.6338 30.6295C37.8407 30.7302 38.068 30.782 38.2981 30.7809C38.5841 30.7814 38.8644 30.701 39.1067 30.5492C39.349 30.3973 39.5436 30.1802 39.6679 29.9227V29.916C39.7544 29.7362 39.8045 29.5412 39.8155 29.342C39.8265 29.1429 39.7981 28.9435 39.732 28.7553C39.6658 28.5671 39.5632 28.3938 39.4301 28.2453C39.2969 28.0968 39.1357 27.976 38.9558 27.8899V27.8899Z" fill="#DBDBDB"/>
<path d="M20.8364 3.03983C21.2395 3.03983 21.6261 2.8797 21.9111 2.59466C22.1961 2.30962 22.3563 1.92302 22.3563 1.51991C22.3563 1.11681 22.1961 0.730212 21.9111 0.445173C21.6261 0.160133 21.2395 0 20.8364 0V0C20.4333 0 20.0467 0.160133 19.7616 0.445173C19.4766 0.730212 19.3165 1.11681 19.3165 1.51991C19.3165 1.92302 19.4766 2.30962 19.7616 2.59466C20.0467 2.8797 20.4333 3.03983 20.8364 3.03983V3.03983Z" fill="#DBDBDB"/>
<path d="M28.5648 4.78296L28.5887 4.79492C28.958 4.97561 29.3838 5.00265 29.773 4.87013C30.1622 4.73761 30.483 4.45633 30.6653 4.08783C30.8475 3.71934 30.8764 3.29364 30.7456 2.90391C30.6147 2.51418 30.3348 2.19215 29.9671 2.00829C29.5994 1.82444 29.1738 1.79374 28.7835 1.9229C28.3932 2.05207 28.07 2.33058 27.8846 2.6975C27.6991 3.06441 27.6666 3.48984 27.7941 3.88069C27.9216 4.27153 28.1987 4.59595 28.5648 4.78296V4.78296Z" fill="#DBDBDB"/>
<path d="M24.8062 3.47694C25.0029 3.52607 25.2074 3.53536 25.4078 3.50426C25.6081 3.47316 25.8002 3.40231 25.9727 3.29586C26.1452 3.18941 26.2947 3.04953 26.4124 2.88444C26.53 2.71936 26.6134 2.5324 26.6578 2.33458C26.7021 2.13677 26.7064 1.93208 26.6704 1.73258C26.6344 1.53308 26.5589 1.34279 26.4483 1.17291C26.3376 1.00304 26.1941 0.857007 26.0262 0.743419C25.8583 0.629832 25.6694 0.550982 25.4705 0.511511H25.4639C25.0705 0.423419 24.6582 0.49522 24.3177 0.711117C23.9772 0.927015 23.7365 1.26932 23.6484 1.66274C23.5603 2.05616 23.6321 2.46845 23.848 2.80893C24.0639 3.14941 24.4062 3.39018 24.7996 3.47827L24.8062 3.47694Z" fill="#DBDBDB"/>
<path d="M31.9461 6.90871L31.966 6.92465C32.2845 7.17512 32.6893 7.2892 33.0917 7.24195C33.4941 7.19469 33.8614 6.98993 34.1132 6.67249C34.365 6.35505 34.4807 5.95079 34.4351 5.54819C34.3896 5.14559 34.1863 4.77745 33.8699 4.52434C33.5536 4.27123 33.1498 4.15377 32.747 4.19768C32.3442 4.24158 31.9752 4.44327 31.7208 4.7586C31.4664 5.07393 31.3472 5.47722 31.3895 5.88018C31.4317 6.28315 31.6318 6.65297 31.9461 6.90871V6.90871Z" fill="#DBDBDB"/>
<path d="M34.7906 9.73861C35.0468 10.0418 35.4127 10.231 35.8082 10.2649C36.2037 10.2988 36.5965 10.1745 36.9005 9.91939C37.2045 9.66423 37.3951 9.29897 37.4303 8.90361C37.4656 8.50826 37.3427 8.11505 37.0886 7.81013C36.8345 7.5052 36.4699 7.31343 36.0746 7.27681C35.6794 7.24019 35.2858 7.36171 34.98 7.61476C34.6742 7.86781 34.4811 8.23174 34.4432 8.62684C34.4052 9.02194 34.5253 9.41599 34.7773 9.72267L34.7906 9.73861Z" fill="#DBDBDB"/>
<path d="M36.9124 13.0986C36.9996 13.2783 37.1214 13.4391 37.2708 13.5718C37.4202 13.7044 37.5942 13.8063 37.7829 13.8717C37.9717 13.9371 38.1715 13.9647 38.3709 13.9528C38.5703 13.941 38.7654 13.89 38.9452 13.8028C39.1249 13.7156 39.2856 13.5938 39.4183 13.4444C39.5509 13.295 39.6528 13.121 39.7182 12.9323C39.7836 12.7435 39.8112 12.5437 39.7994 12.3443C39.7875 12.1449 39.7365 11.9497 39.6493 11.77L39.6427 11.7554C39.5549 11.5762 39.4327 11.4159 39.283 11.2839C39.1333 11.1518 38.9591 11.0506 38.7703 10.9859C38.5815 10.9212 38.3817 10.8943 38.1825 10.9067C37.9833 10.9192 37.7885 10.9708 37.6092 11.0586C37.43 11.1463 37.2697 11.2685 37.1377 11.4182C37.0057 11.5679 36.9044 11.7421 36.8397 11.931C36.775 12.1198 36.7481 12.3195 36.7606 12.5187C36.773 12.7179 36.8246 12.9127 36.9124 13.092V13.0986Z" fill="#DBDBDB"/>
<path d="M3.03983 20.8789C3.03983 20.4758 2.8797 20.0892 2.59466 19.8042C2.30962 19.5191 1.92302 19.359 1.51991 19.359C1.11681 19.359 0.730212 19.5191 0.445173 19.8042C0.160133 20.0892 0 20.4758 0 20.8789H0C0 21.282 0.160133 21.6686 0.445173 21.9536C0.730212 22.2387 1.11681 22.3988 1.51991 22.3988C1.92302 22.3988 2.30962 22.2387 2.59466 21.9536C2.8797 21.6686 3.03983 21.282 3.03983 20.8789V20.8789Z" fill="#DBDBDB"/>
<path d="M4.77368 10.0097C5.08857 10.2607 5.49014 10.3766 5.89036 10.332C6.29059 10.2875 6.65681 10.086 6.90874 9.77184L6.92468 9.75191C7.10777 9.51488 7.21675 9.22904 7.23793 8.93028C7.25911 8.63152 7.19155 8.33316 7.04374 8.07267C6.89592 7.81218 6.67444 7.60117 6.4071 7.46613C6.13976 7.33109 5.83848 7.27805 5.5411 7.31366C5.24371 7.34927 4.96348 7.47195 4.73558 7.6663C4.50769 7.86064 4.34229 8.11798 4.26016 8.40601C4.17803 8.69404 4.18283 8.99992 4.27396 9.28523C4.36509 9.57054 4.53847 9.82256 4.77235 10.0097H4.77368Z" fill="#DBDBDB"/>
<path d="M2.47119 13.6845C2.62701 13.8094 2.80592 13.9023 2.99767 13.9579C3.18943 14.0135 3.39027 14.0308 3.5887 14.0087C3.78714 13.9866 3.97927 13.9256 4.1541 13.8292C4.32893 13.7327 4.48303 13.6028 4.60758 13.4467L4.62219 13.4281C4.80563 13.1913 4.91497 12.9054 4.93647 12.6066C4.95797 12.3078 4.89068 12.0093 4.74305 11.7486C4.59542 11.4879 4.37404 11.2766 4.10671 11.1414C3.83939 11.0061 3.53805 10.9528 3.24056 10.9883C2.94307 11.0238 2.66269 11.1464 2.43466 11.3407C2.20662 11.535 2.04111 11.7924 1.9589 12.0805C1.87669 12.3686 1.88146 12.6745 1.97261 12.9599C2.06375 13.2453 2.23721 13.4974 2.47119 13.6845Z" fill="#DBDBDB"/>
<path d="M1.04559 17.7687C1.20118 17.8949 1.38022 17.9891 1.57238 18.0458C1.76454 18.1026 1.96603 18.1207 2.16523 18.0992C2.36443 18.0777 2.55742 18.017 2.73306 17.9206C2.9087 17.8242 3.06353 17.694 3.18862 17.5375L3.20323 17.5189C3.38667 17.282 3.496 16.9962 3.51751 16.6974C3.53901 16.3985 3.47172 16.1 3.32409 15.8393C3.17646 15.5786 2.95508 15.3674 2.68775 15.2321C2.42043 15.0968 2.11909 15.0436 1.8216 15.0791C1.52411 15.1145 1.24373 15.2371 1.0157 15.4314C0.787663 15.6257 0.622145 15.8831 0.539936 16.1712C0.457728 16.4593 0.462498 16.7653 0.553646 17.0507C0.644794 17.3361 0.818254 17.5882 1.05223 17.7753L1.04559 17.7687Z" fill="#DBDBDB"/>
<path d="M16.5264 3.52742C16.6395 3.52739 16.7522 3.51492 16.8625 3.49022H16.8851C17.2617 3.39922 17.5894 3.16784 17.8011 2.84335C18.0128 2.51886 18.0926 2.12577 18.0242 1.74442C17.9558 1.36306 17.7443 1.02223 17.433 0.791578C17.1217 0.560928 16.734 0.457873 16.3493 0.503473C15.9645 0.549073 15.6117 0.739887 15.3629 1.03692C15.1142 1.33395 14.9882 1.71477 15.0108 2.10155C15.0335 2.48834 15.2029 2.85188 15.4846 3.11789C15.7663 3.3839 16.139 3.53229 16.5264 3.53274V3.52742Z" fill="#DBDBDB"/>
<path d="M12.4436 4.96363C12.6715 4.96428 12.8966 4.91373 13.1024 4.81571C13.3081 4.71769 13.4892 4.5747 13.6322 4.3973C13.7753 4.21991 13.8766 4.01264 13.9288 3.79081C13.981 3.56899 13.9827 3.33827 13.9338 3.1157C13.8848 2.89313 13.7865 2.68441 13.6461 2.50493C13.5057 2.32546 13.3267 2.17983 13.1224 2.07881C12.9182 1.97778 12.6938 1.92394 12.4659 1.92125C12.2381 1.91857 12.0125 1.96711 11.8059 2.0633L11.7727 2.08057C11.4656 2.23203 11.2186 2.48274 11.0718 2.7921C10.925 3.10146 10.887 3.45132 10.9639 3.785C11.0407 4.11868 11.2281 4.41662 11.4954 4.63054C11.7628 4.84447 12.0946 4.96183 12.437 4.96363H12.4436Z" fill="#DBDBDB"/>
<path d="M8.78335 7.27539C9.12769 7.27557 9.46182 7.15842 9.73064 6.94324L9.74791 6.92995C10.0249 6.70256 10.2127 6.38467 10.2783 6.03233C10.3438 5.68 10.2829 5.31583 10.1061 5.00405C9.92944 4.69226 9.64832 4.45287 9.31237 4.32809C8.97641 4.20331 8.60719 4.20114 8.26979 4.32197C7.93239 4.4428 7.64849 4.67887 7.46813 4.98856C7.28777 5.29825 7.22254 5.66167 7.28394 6.01476C7.34533 6.36784 7.52942 6.68791 7.80373 6.91854C8.07804 7.14917 8.42497 7.27554 8.78335 7.27539V7.27539Z" fill="#DBDBDB"/>
<path d="M38.3114 17.0964C38.4253 17.3759 38.6198 17.6153 38.8701 17.7839C39.1204 17.9526 39.4152 18.043 39.7171 18.0437C39.8284 18.0437 39.9394 18.0312 40.0479 18.0065C40.2428 17.9632 40.4273 17.882 40.5908 17.7675C40.7543 17.6529 40.8937 17.5073 41.0009 17.3389C41.1081 17.1705 41.1811 16.9826 41.2157 16.786C41.2503 16.5893 41.2458 16.3878 41.2025 16.1929C41.2019 16.1894 41.2019 16.1858 41.2025 16.1823C41.1145 15.7966 40.8795 15.4605 40.5475 15.2455C40.2156 15.0304 39.8128 14.9533 39.4248 15.0307C39.0369 15.1081 38.6945 15.3338 38.4704 15.6598C38.2464 15.9857 38.1583 16.3863 38.2251 16.7762C38.2251 16.8014 38.2317 16.8267 38.237 16.8532C38.2556 16.9361 38.2805 17.0173 38.3114 17.0964Z" fill="#DBDBDB"/>
<path d="M20.8683 38.6874C20.4652 38.6874 20.0786 38.8476 19.7935 39.1326C19.5085 39.4176 19.3483 39.8042 19.3483 40.2073C19.3483 40.6104 19.5085 40.997 19.7935 41.2821C20.0786 41.5671 20.4652 41.7272 20.8683 41.7272H20.8749C21.278 41.7264 21.6643 41.5654 21.9487 41.2797C22.2331 40.9941 22.3924 40.6071 22.3915 40.204C22.3906 39.8009 22.2296 39.4147 21.944 39.1302C21.6583 38.8458 21.2714 38.6865 20.8683 38.6874V38.6874Z" fill="#ED1C24"/>
<path d="M16.5663 38.2104C16.363 38.2044 16.1606 38.2393 15.971 38.3129C15.7814 38.3866 15.6085 38.4975 15.4626 38.6392C15.3167 38.7809 15.2007 38.9504 15.1215 39.1377C15.0423 39.325 15.0014 39.5263 15.0014 39.7297C15.0014 39.9331 15.0423 40.1344 15.1215 40.3217C15.2007 40.509 15.3167 40.6785 15.4626 40.8202C15.6085 40.9619 15.7814 41.0728 15.971 41.1465C16.1606 41.2201 16.363 41.255 16.5663 41.249C16.7696 41.255 16.972 41.2201 17.1616 41.1465C17.3512 41.0728 17.524 40.9619 17.67 40.8202C17.8159 40.6785 17.9319 40.509 18.0111 40.3217C18.0903 40.1344 18.1311 39.9331 18.1311 39.7297C18.1311 39.5263 18.0903 39.325 18.0111 39.1377C17.9319 38.9504 17.8159 38.7809 17.67 38.6392C17.524 38.4975 17.3512 38.3866 17.1616 38.3129C16.972 38.2393 16.7696 38.2044 16.5663 38.2104V38.2104Z" fill="#ED1C24"/>
<path d="M24.8368 38.2437C24.6357 38.2808 24.4442 38.358 24.2737 38.4709C24.1032 38.5837 23.9572 38.7298 23.8445 38.9004C23.7317 39.071 23.6546 39.2626 23.6176 39.4637C23.5807 39.6648 23.5847 39.8712 23.6294 40.0708C23.6741 40.2703 23.7586 40.4587 23.8779 40.6248C23.9971 40.7909 24.1486 40.9312 24.3234 41.0374C24.4981 41.1435 24.6925 41.2134 24.8949 41.2426C25.0972 41.2719 25.3034 41.26 25.5011 41.2078H25.5091C25.8938 41.1103 26.2251 40.8662 26.4322 40.5277C26.6393 40.1892 26.7058 39.7831 26.6175 39.3962C26.5292 39.0093 26.2931 38.6723 25.9596 38.4572C25.6261 38.2421 25.2217 38.1659 24.8328 38.245L24.8368 38.2437Z" fill="#ED1C24"/>
<path d="M13.1451 36.935C12.9653 36.8404 12.7684 36.7828 12.566 36.7657C12.3635 36.7485 12.1597 36.7721 11.9665 36.835C11.7734 36.898 11.5948 36.999 11.4413 37.1322C11.2879 37.2653 11.1627 37.4279 11.0731 37.6103C10.9836 37.7926 10.9315 37.9911 10.92 38.1939C10.9085 38.3968 10.9377 38.5999 11.0061 38.7912C11.0744 38.9825 11.1804 39.1582 11.3177 39.3079C11.4551 39.4576 11.6211 39.5782 11.8059 39.6626L11.8205 39.6706C12.0001 39.7578 12.1952 39.8088 12.3945 39.8207C12.5938 39.8326 12.7936 39.805 12.9823 39.7397C13.171 39.6744 13.3449 39.5725 13.4943 39.44C13.6436 39.3074 13.7654 39.1467 13.8526 38.9671C13.9398 38.7875 13.9909 38.5924 14.0027 38.3931C14.0146 38.1938 13.987 37.9941 13.9217 37.8054C13.8564 37.6167 13.7545 37.4427 13.622 37.2933C13.4894 37.144 13.3287 37.0223 13.1491 36.935H13.1451Z" fill="#ED1C24"/>
<path d="M28.6087 36.9217C28.2965 37.0695 28.044 37.3192 27.8927 37.6296C27.7414 37.9401 27.7003 38.2928 27.7763 38.6297C27.8522 38.9667 28.0407 39.2677 28.3105 39.4832C28.5804 39.6987 28.9156 39.8159 29.261 39.8154C29.4819 39.8155 29.7001 39.767 29.9001 39.6732L29.9253 39.6613C30.2829 39.4832 30.556 39.1716 30.6856 38.7938C30.8152 38.416 30.7908 38.0023 30.6178 37.6423C30.4448 37.2823 30.137 37.0048 29.761 36.87C29.385 36.7351 28.9711 36.7537 28.6087 36.9217Z" fill="#ED1C24"/>
<path d="M50.8481 15.2124L47.1572 9.37592H46.2006V18.9445H47.5677V12.5061L50.3698 16.8944H51.3264L54.1297 12.5061V18.9445H55.4968V9.37592H54.5389L50.8481 15.2124Z" fill="#65B6C1"/>
<path d="M59.3245 14.4339H64.6562V18.9445H66.0233V9.3759H64.6562V13.1345H59.3245V9.3759H57.9574V18.9445H59.3245V14.4339Z" fill="#65B6C1"/>
<path d="M69.851 12.5061L72.6543 16.8944H73.6109L76.4129 12.5061V18.9445H77.78V9.3759H76.8235L73.1326 15.2124L69.4404 9.3759H68.4839V18.9445H69.851V12.5061Z" fill="#65B6C1"/>
<path d="M85.8592 10.0043C85.3956 9.60575 84.7964 9.3759 83.8664 9.3759H80.2473V18.9418H81.6144V14.7036H83.873C84.803 14.7036 85.4049 14.4724 85.8659 14.0751C86.1615 13.8245 86.399 13.5124 86.5619 13.1607C86.7248 12.809 86.8092 12.426 86.8092 12.0384C86.8092 11.6508 86.7248 11.2678 86.5619 10.9161C86.399 10.5644 86.1615 10.2524 85.8659 10.0017L85.8592 10.0043ZM85.0528 12.9844C84.807 13.2501 84.4523 13.4082 83.7959 13.4082H81.6077V10.6739H83.7959C84.4523 10.6739 84.807 10.8387 85.0528 11.0978C85.2982 11.3504 85.4355 11.6888 85.4355 12.0411C85.4355 12.3933 85.2982 12.7317 85.0528 12.9844V12.9844Z" fill="#65B6C1"/>
<path d="M91.0408 9.3759H90.0789L86.1143 18.9418H87.5359L88.5337 16.4812H92.5673L93.5784 18.9418H95L91.0408 9.3759ZM89.0864 15.1859L90.5625 11.6305L92.0386 15.1859H89.0864Z" fill="#65B6C1"/>
<path d="M52.8994 29.192L47.1572 22.165H46.2006V31.7349H47.5677V24.7079L53.3099 31.7349H54.2665V22.165H52.8994V29.192Z" fill="#F37C92"/>
<path d="M58.0942 27.223H61.239V25.9249H58.0942V23.4644H62.1956V22.165H56.7271V31.7349H62.3324V30.4355H58.0942V27.223Z" fill="#F37C92"/>
<path d="M69.7288 22.7948C69.2638 22.3962 68.6659 22.165 67.7359 22.165H64.1101V31.7309H65.4772V27.502H67.7359C68.6659 27.502 69.2677 27.2695 69.7288 26.8736C70.0244 26.6229 70.2619 26.3108 70.4248 25.9591C70.5877 25.6074 70.6721 25.2244 70.6721 24.8368C70.6721 24.4492 70.5877 24.0662 70.4248 23.7145C70.2619 23.3628 70.0244 23.0508 69.7288 22.8001V22.7948ZM68.921 25.7748C68.6752 26.0339 68.3204 26.1986 67.6641 26.1986H65.4772V23.4644H67.6641C68.3204 23.4644 68.6752 23.6278 68.921 23.8882C69.167 24.1405 69.3048 24.479 69.3048 24.8315C69.3048 25.184 69.167 25.5225 68.921 25.7748V25.7748Z" fill="#F37C92"/>
<path d="M73.9524 22.165L69.9878 31.7309H71.4094L72.4085 29.2743H76.4421L77.4572 31.7349H78.8788L74.9143 22.169L73.9524 22.165ZM72.9546 27.975L74.4306 24.421L75.9081 27.975H72.9546Z" fill="#F37C92"/>
<path d="M81.7517 22.029H80.3846V31.5989H85.99V30.2995H81.7517V22.029Z" fill="#F37C92"/>
</svg>
